<svg xmlns="http://www.w3.org/2000/svg" width="30" height="32" viewBox="0 0 30 32">
  <g id="Group_3454" data-name="Group 3454" transform="translate(-28.999 -276)">
    <path id="Path_2186" data-name="Path 2186" d="M48,276l8,8v24H32V276Z" fill="#737373"/>
    <path id="Path_2187" data-name="Path 2187" d="M47,285v-8H33v30H55V285Z" fill="#fff"/>
    <rect id="Rectangle_2576" data-name="Rectangle 2576" width="30" height="10" transform="translate(28.999 292)" fill="#ffea00"/>
    <path id="Path_2188" data-name="Path 2188" d="M39.384,298.844l2.794-4.057V294H37.827v1.121h2.589v.035l-2.856,4.111V300h4.662v-1.121H39.384ZM43.3,300h1.361v-6H43.3Zm6.424-5.56a2.873,2.873,0,0,0-1.832-.481,11.2,11.2,0,0,0-1.833.125V300H47.4v-2.145a3.22,3.22,0,0,0,.463.028,2.773,2.773,0,0,0,1.948-.632,1.911,1.911,0,0,0,.552-1.423A1.753,1.753,0,0,0,49.725,294.44Zm-1.869,2.4a2.138,2.138,0,0,1-.454-.035v-1.771a2.348,2.348,0,0,1,.561-.054c.677,0,1.058.331,1.058.881C49.021,296.477,48.577,296.842,47.856,296.842Z" fill="#262626"/>
  </g>
</svg>
