<svg xmlns="http://www.w3.org/2000/svg" width="30" height="32" viewBox="0 0 30 32">
  <g id="Group_3482" data-name="Group 3482" transform="translate(-114.999 -141)">
    <path id="Path_2270" data-name="Path 2270" d="M134,141l8,8v24H118V141Z" fill="#737373"/>
    <path id="Path_2271" data-name="Path 2271" d="M133,150v-8H119v30h22V150Z" fill="#fff"/>
    <rect id="Rectangle_2604" data-name="Rectangle 2604" width="30" height="10" transform="translate(114.999 157)" fill="#963"/>
    <path id="Path_2272" data-name="Path 2272" d="M123.608,159l-1.833,6h1.406l.427-1.539h1.717l.462,1.539h1.459l-1.858-6Zm.2,3.443.355-1.272c.1-.347.188-.8.276-1.156h.018c.089.355.195.8.3,1.156l.373,1.272ZM129.446,159l-1.832,6h1.4l.427-1.539h1.717l.463,1.539h1.459l-1.859-6Zm.2,3.443.355-1.272c.1-.347.187-.8.275-1.156h.019c.089.355.195.8.3,1.156l.374,1.272Zm7.091,1.521a1.971,1.971,0,0,1-.008-3.941,2.936,2.936,0,0,1,1.138.222l.276-1.076a3.544,3.544,0,0,0-1.477-.267,3.057,3.057,0,0,0-3.273,3.185,2.851,2.851,0,0,0,3.14,3,3.854,3.854,0,0,0,1.539-.258l-.205-1.058A3.4,3.4,0,0,1,136.734,163.968Z" fill="#fff"/>
  </g>
</svg>
