<svg xmlns="http://www.w3.org/2000/svg" width="30" height="32" viewBox="0 0 30 32">
  <g id="Group_3509" data-name="Group 3509" transform="translate(-244 -6)">
    <path id="Path_2351" data-name="Path 2351" d="M263,6l8,8V38H247V6Z" fill="#737373"/>
    <path id="Path_2352" data-name="Path 2352" d="M262,15V7H248V37h22V15Z" fill="#fff"/>
    <rect id="Rectangle_2631" data-name="Rectangle 2631" width="30" height="10" transform="translate(244 22)" fill="#c00"/>
    <path id="Path_2353" data-name="Path 2353" d="M252.978,24l-1.832,6h1.407l.425-1.539H254.7L255.158,30h1.459l-1.859-6Zm.2,3.443.355-1.272c.1-.347.186-.8.276-1.156h.017c.09.355.195.8.3,1.156l.373,1.272Zm7.482-.258v-.027a1.587,1.587,0,0,0,1.059-1.477,1.525,1.525,0,0,0-.551-1.254,3.06,3.06,0,0,0-1.939-.472,11.95,11.95,0,0,0-1.807.125V30h1.344V27.643h.41c.551.008.808.213.969.961a7.527,7.527,0,0,0,.417,1.4h1.389c-.115-.231-.3-1.014-.49-1.69A1.509,1.509,0,0,0,260.658,27.189Zm-1.359-.525h-.535V25.009a3.482,3.482,0,0,1,.615-.044c.621.009,1,.284,1,.836C260.375,26.326,259.975,26.664,259.3,26.664ZM262.244,24v1.139h1.611V30h1.36V25.143h1.638V24Z" fill="#fff"/>
  </g>
</svg>
