<svg xmlns="http://www.w3.org/2000/svg" width="30" height="32" viewBox="0 0 30 32">
  <g id="Group_3466" data-name="Group 3466" transform="translate(-373 -186)">
    <path id="Path_2222" data-name="Path 2222" d="M392,186l8,8v24H376V186Z" fill="#737373"/>
    <path id="Path_2223" data-name="Path 2223" d="M391,195v-8H377v30h22V195Z" fill="#fff"/>
    <rect id="Rectangle_2588" data-name="Rectangle 2588" width="30" height="10" transform="translate(373 202)" fill="#6cf"/>
    <path id="Path_2224" data-name="Path 2224" d="M382.094,204l-1.832,6h1.4l.428-1.539h1.716l.463,1.539h1.459l-1.859-6Zm.2,3.443.355-1.272c.1-.347.188-.8.276-1.156h.019c.088.355.2.8.3,1.156l.375,1.272Zm6.8-1.006c-.774-.293-1.111-.462-1.111-.844,0-.312.285-.578.871-.578a2.864,2.864,0,0,1,1.255.284l.3-1.094a3.666,3.666,0,0,0-1.529-.3c-1.414,0-2.268.783-2.268,1.806,0,.872.649,1.424,1.645,1.77.721.258,1.006.472,1.006.846,0,.391-.33.649-.953.649a3.459,3.459,0,0,1-1.5-.373l-.276,1.12a3.921,3.921,0,0,0,1.7.365c1.644,0,2.417-.854,2.417-1.859C390.644,207.385,390.146,206.833,389.088,206.441Zm6.363-1.325V204h-3.666v6h1.361v-2.411H395.3v-1.1h-2.155v-1.37Z" fill="#06c"/>
  </g>
</svg>
