<svg xmlns="http://www.w3.org/2000/svg" width="30" height="32" viewBox="0 0 30 32">
  <g id="Group_3499" data-name="Group 3499" transform="translate(-244 -51)">
    <path id="Path_2321" data-name="Path 2321" d="M263,51l8,8V83H247V51Z" fill="#737373"/>
    <path id="Path_2322" data-name="Path 2322" d="M262,60V52H248V82h22V60Z" fill="#fff"/>
    <rect id="Rectangle_2621" data-name="Rectangle 2621" width="30" height="10" transform="translate(244 67)" fill="blue"/>
    <path id="Path_2323" data-name="Path 2323" d="M253.8,71.771v-.018a1.357,1.357,0,0,0,.988-1.281,1.3,1.3,0,0,0-.721-1.174,3.314,3.314,0,0,0-1.771-.339,10.8,10.8,0,0,0-1.752.125v5.889a10.388,10.388,0,0,0,1.469.09,3.778,3.778,0,0,0,2.355-.543A1.6,1.6,0,0,0,255,73.248,1.5,1.5,0,0,0,253.8,71.771Zm-1.912-1.788a3.635,3.635,0,0,1,.578-.036c.613,0,.961.241.961.694s-.383.738-1.1.738h-.443Zm.523,4.074a4.186,4.186,0,0,1-.523-.018v-1.69h.462c.676,0,1.219.24,1.219.845C253.574,73.826,253.031,74.057,252.416,74.057ZM260.31,69,259.67,71c-.2.667-.4,1.459-.57,2.152h-.026c-.135-.7-.32-1.449-.508-2.143l-.588-2h-1.8l-.383,6h1.254l.107-2.277c.045-.747.071-1.673.106-2.482h.019c.141.782.346,1.636.541,2.339l.641,2.322h1.059l.73-2.339c.23-.7.48-1.557.666-2.322h.027c0,.871.028,1.743.053,2.464l.09,2.295h1.326l-.33-6Zm6.809.436a2.878,2.878,0,0,0-1.834-.481,11.11,11.11,0,0,0-1.832.125V75H264.8V72.856a3.386,3.386,0,0,0,.463.027,2.778,2.778,0,0,0,1.947-.632,1.92,1.92,0,0,0,.553-1.423A1.753,1.753,0,0,0,267.119,69.44Zm-1.869,2.4a2.042,2.042,0,0,1-.453-.036v-1.77a2.294,2.294,0,0,1,.56-.053c.676,0,1.059.329,1.059.88C266.416,71.477,265.971,71.842,265.25,71.842Z" fill="#fff"/>
  </g>
</svg>
