<svg xmlns="http://www.w3.org/2000/svg" width="30" height="32" viewBox="0 0 30 32">
  <g id="Group_3512" data-name="Group 3512" transform="translate(-114.999 -6)">
    <path id="Path_2360" data-name="Path 2360" d="M134,6l8,8V38H118V6Z" fill="#737373"/>
    <path id="Path_2361" data-name="Path 2361" d="M133,15V7H119V37h22V15Z" fill="#fff"/>
    <rect id="Rectangle_2634" data-name="Rectangle 2634" width="30" height="10" transform="translate(114.999 22)" fill="#00980d"/>
    <path id="Path_2362" data-name="Path 2362" d="M125.041,25.027a2.949,2.949,0,0,1,1.139.222l.275-1.076a3.544,3.544,0,0,0-1.477-.267,3.057,3.057,0,0,0-3.273,3.185,2.851,2.851,0,0,0,3.14,3,3.858,3.858,0,0,0,1.539-.258l-.2-1.058a3.416,3.416,0,0,1-1.13.195,1.791,1.791,0,0,1-1.922-1.957A1.8,1.8,0,0,1,125.041,25.027Zm6.745-.427a3.855,3.855,0,0,0-2.455-.641,12.12,12.12,0,0,0-1.833.125v5.889a11.628,11.628,0,0,0,1.539.09,4.3,4.3,0,0,0,2.767-.775,3.038,3.038,0,0,0,1-2.428A2.653,2.653,0,0,0,131.786,24.6ZM129.331,29a2.479,2.479,0,0,1-.472-.027V25.054a2.825,2.825,0,0,1,.615-.053,1.719,1.719,0,0,1,1.885,1.9A1.859,1.859,0,0,1,129.331,29Zm8.623-.694a1.512,1.512,0,0,0-.8-1.121v-.027a1.59,1.59,0,0,0,1.059-1.477,1.522,1.522,0,0,0-.552-1.254,3.06,3.06,0,0,0-1.939-.472,11.926,11.926,0,0,0-1.806.125V30h1.343V27.643h.41c.551.008.809.213.969.961a7.388,7.388,0,0,0,.419,1.4h1.387C138.327,29.769,138.141,28.986,137.954,28.31Zm-2.162-1.646h-.534V25.009a3.487,3.487,0,0,1,.614-.044c.623.009,1,.284,1,.836C136.868,26.326,136.468,26.664,135.792,26.664Z" fill="#fff"/>
  </g>
</svg>
