<svg xmlns="http://www.w3.org/2000/svg" width="30" height="32" viewBox="0 0 30 32">
  <g id="Group_3508" data-name="Group 3508" transform="translate(-287 -6)">
    <path id="Path_2348" data-name="Path 2348" d="M306,6l8,8V38H290V6Z" fill="#737373"/>
    <path id="Path_2349" data-name="Path 2349" d="M305,15V7H291V37h22V15Z" fill="#fff"/>
    <rect id="Rectangle_2630" data-name="Rectangle 2630" width="30" height="10" transform="translate(287 22)" fill="#6cf"/>
    <path id="Path_2350" data-name="Path 2350" d="M296.334,25.027a2.945,2.945,0,0,1,1.139.222l.275-1.076a3.54,3.54,0,0,0-1.477-.267A3.057,3.057,0,0,0,293,27.091a2.851,2.851,0,0,0,3.141,3,3.865,3.865,0,0,0,1.539-.258l-.205-1.058a3.417,3.417,0,0,1-1.131.195,1.79,1.79,0,0,1-1.92-1.957A1.8,1.8,0,0,1,296.334,25.027Zm4.744,2.6H302v1.254A1.964,1.964,0,0,1,299.449,27a1.814,1.814,0,0,1,1.985-1.939,3.312,3.312,0,0,1,1.4.258l.285-1.086a4.146,4.146,0,0,0-1.664-.293c-1.967,0-3.416,1.139-3.426,3.131a2.912,2.912,0,0,0,.846,2.18,3.341,3.341,0,0,0,2.438.81,6.678,6.678,0,0,0,2-.339V26.566h-2.232ZM310.527,24h-1.769L308.117,26c-.2.667-.4,1.459-.57,2.152h-.026c-.134-.7-.32-1.449-.507-2.143l-.588-2h-1.8l-.383,6h1.254l.108-2.277c.044-.747.07-1.673.1-2.482h.02c.14.782.345,1.636.541,2.339l.64,2.322h1.059l.73-2.339c.231-.7.481-1.557.666-2.322h.028c0,.871.027,1.743.052,2.464l.09,2.3h1.326Z" fill="#06c"/>
  </g>
</svg>
