<svg xmlns="http://www.w3.org/2000/svg" width="30" height="32" viewBox="0 0 30 32">
  <g id="Group_3458" data-name="Group 3458" transform="translate(-287 -231)">
    <path id="Path_2198" data-name="Path 2198" d="M306,231l8,8v24H290V231Z" fill="#737373"/>
    <path id="Path_2199" data-name="Path 2199" d="M305,240v-8H291v30h22V240Z" fill="#fff"/>
    <rect id="Rectangle_2580" data-name="Rectangle 2580" width="30" height="10" transform="translate(287 247)" fill="#f60"/>
    <path id="Path_2200" data-name="Path 2200" d="M296.168,250.027a2.925,2.925,0,0,1,1.139.223l.275-1.076a3.512,3.512,0,0,0-1.477-.268,3.057,3.057,0,0,0-3.273,3.185,2.852,2.852,0,0,0,3.141,3,3.868,3.868,0,0,0,1.539-.258l-.2-1.059a3.376,3.376,0,0,1-1.129.2,1.972,1.972,0,0,1-.01-3.942Zm5.83,1.282h-2.232V249H298.4v6h1.362v-2.509H302V255h1.352v-6H302ZM310.691,249h-1.769L308.281,251c-.2.667-.4,1.458-.57,2.152h-.026c-.134-.7-.32-1.45-.507-2.143l-.588-2h-1.8l-.383,6h1.254l.108-2.277c.045-.747.07-1.672.1-2.483h.02c.14.783.345,1.637.541,2.34l.64,2.322h1.059l.73-2.339c.231-.7.481-1.557.666-2.323h.028c0,.872.027,1.744.052,2.465L309.7,255h1.326Z" fill="#fff"/>
  </g>
</svg>
