<svg xmlns="http://www.w3.org/2000/svg" width="30" height="32" viewBox="0 0 30 32">
  <g id="Group_3422" data-name="Group 3422" transform="translate(-114.999 -411)">
    <path id="Path_2088" data-name="Path 2088" d="M134,411l8,8v24H118V411Z" fill="#737373"/>
    <path id="Path_2089" data-name="Path 2089" d="M133,420v-8H119v30h22V420Z" fill="#fff"/>
    <rect id="Rectangle_2544" data-name="Rectangle 2544" width="30" height="10" transform="translate(114.999 427)" fill="#7f7f0a"/>
    <path id="Path_2090" data-name="Path 2090" d="M126.638,429.6a3.856,3.856,0,0,0-2.455-.641,12.1,12.1,0,0,0-1.833.125v5.889a11.577,11.577,0,0,0,1.539.09,4.3,4.3,0,0,0,2.766-.775,3.04,3.04,0,0,0,1-2.429A2.654,2.654,0,0,0,126.638,429.6Zm-2.455,4.4a2.463,2.463,0,0,1-.472-.027v-3.923a2.779,2.779,0,0,1,.613-.054,1.719,1.719,0,0,1,1.886,1.9A1.859,1.859,0,0,1,124.183,434Zm5.837-5-1.832,6h1.406l.426-1.539h1.717L132.2,435h1.459l-1.859-6Zm.2,3.443.355-1.272c.1-.347.187-.8.276-1.156h.018c.089.355.2.8.3,1.156l.374,1.272ZM133.492,429v1.139h1.61V435h1.362v-4.857H138.1V429Z" fill="#fff"/>
  </g>
</svg>
