<svg xmlns="http://www.w3.org/2000/svg" width="30" height="32" viewBox="0 0 30 32">
  <g id="Group_3463" data-name="Group 3463" transform="translate(-71.999 -231)">
    <path id="Path_2213" data-name="Path 2213" d="M91,231l8,8v24H75V231Z" fill="#737373"/>
    <path id="Path_2214" data-name="Path 2214" d="M90,240v-8H76v30H98V240Z" fill="#fff"/>
    <rect id="Rectangle_2585" data-name="Rectangle 2585" width="30" height="10" transform="translate(71.999 247)" fill="#639"/>
    <path id="Path_2215" data-name="Path 2215" d="M79.667,248.959a9.827,9.827,0,0,0-1.65.125v5.889a9.4,9.4,0,0,0,1.385.09,3.606,3.606,0,0,0,2.492-.775,3.208,3.208,0,0,0,.9-2.429,2.779,2.779,0,0,0-.913-2.259A3.225,3.225,0,0,0,79.667,248.959Zm0,5.045a2.009,2.009,0,0,1-.425-.027v-3.923a2.267,2.267,0,0,1,.553-.054c1.049,0,1.706.658,1.7,1.9C81.493,253.336,80.772,254.013,79.667,254Zm4.981-1.229c0,.935-.32,1.194-.833,1.194a1.809,1.809,0,0,1-.625-.108l-.135,1.094a2.849,2.849,0,0,0,.888.143c1.186,0,1.923-.6,1.923-2.3V249H84.648Zm4.766-1.209c-.184.685-.353,1.4-.488,2.118H88.9c-.128-.749-.3-1.433-.48-2.145L87.765,249H86.427l1.729,6h1.427l1.818-6H90.1ZM95.166,249v3.451c0,1.059-.353,1.558-.994,1.558-.625,0-.977-.525-.977-1.558V249H91.969v3.346c0,1.912.8,2.748,2.163,2.748,1.41,0,2.251-.881,2.251-2.731V249Z" fill="#f93"/>
  </g>
</svg>
