<svg xmlns="http://www.w3.org/2000/svg" width="30.001" height="32" viewBox="0 0 30.001 32">
  <g id="Group_3420" data-name="Group 3420" transform="translate(-201 -411)">
    <path id="Path_2082" data-name="Path 2082" d="M220,411l8,8v24H204V411Z" fill="#737373"/>
    <path id="Path_2083" data-name="Path 2083" d="M219,420v-8H205v30h22V420Z" fill="#fff"/>
    <rect id="Rectangle_2542" data-name="Rectangle 2542" width="30.001" height="10" transform="translate(200.999 427)" fill="#009"/>
    <path id="Path_2084" data-name="Path 2084" d="M213.006,429.6a3.855,3.855,0,0,0-2.455-.641,12.117,12.117,0,0,0-1.833.125v5.889a11.626,11.626,0,0,0,1.539.09,4.3,4.3,0,0,0,2.767-.775,3.04,3.04,0,0,0,1-2.429A2.652,2.652,0,0,0,213.006,429.6Zm-2.455,4.4a2.457,2.457,0,0,1-.471-.027v-3.923a2.779,2.779,0,0,1,.613-.054,1.719,1.719,0,0,1,1.886,1.9A1.859,1.859,0,0,1,210.551,434Zm5.946-5h-1.362v6h3.746v-1.139H216.5Zm4.77,4.857V429H219.9v6h3.746v-1.139Z" fill="#fff"/>
  </g>
</svg>
