<svg xmlns="http://www.w3.org/2000/svg" width="30.001" height="32" viewBox="0 0 30.001 32">
  <g id="Group_3490" data-name="Group 3490" transform="translate(-201 -96)">
    <path id="Path_2294" data-name="Path 2294" d="M220,96l8,8v24H204V96Z" fill="#737373"/>
    <path id="Path_2295" data-name="Path 2295" d="M219,105V97H205v30h22V105Z" fill="#fff"/>
    <rect id="Rectangle_2612" data-name="Rectangle 2612" width="30.001" height="10" transform="translate(200.999 112)" fill="#f60"/>
    <path id="Path_2296" data-name="Path 2296" d="M210.626,113.906a2.9,2.9,0,0,0-2.917,3.14,2.8,2.8,0,0,0,2.82,3.052,2.858,2.858,0,0,0,2.944-3.158A2.8,2.8,0,0,0,210.626,113.906Zm-.026,5.115c-.908,0-1.459-.827-1.459-2s.534-2.037,1.45-2.037c.934,0,1.45.925,1.45,2C212.041,118.149,211.516,119.021,210.6,119.021Zm8.054-4.421a3.856,3.856,0,0,0-2.455-.641,12.11,12.11,0,0,0-1.833.125v5.889a11.6,11.6,0,0,0,1.539.09,4.3,4.3,0,0,0,2.766-.775,3.038,3.038,0,0,0,1-2.428A2.656,2.656,0,0,0,218.654,114.6ZM216.2,119a2.469,2.469,0,0,1-.472-.027v-3.923a2.814,2.814,0,0,1,.614-.053,1.72,1.72,0,0,1,1.886,1.9A1.859,1.859,0,0,1,216.2,119Zm3.658-5v1.139h1.611V120h1.361v-4.857h1.637V114Z" fill="#fff"/>
  </g>
</svg>
