<svg xmlns="http://www.w3.org/2000/svg" width="30" height="32" viewBox="0 0 30 32">
  <g id="Group_3461" data-name="Group 3461" transform="translate(-157.999 -231)">
    <path id="Path_2207" data-name="Path 2207" d="M177,231l8,8v24H161V231Z" fill="#737373"/>
    <path id="Path_2208" data-name="Path 2208" d="M176,240v-8H162v30h22V240Z" fill="#fff"/>
    <rect id="Rectangle_2583" data-name="Rectangle 2583" width="30" height="10" transform="translate(157.999 247)" fill="#690"/>
    <path id="Path_2209" data-name="Path 2209" d="M165.29,252.465h1.987v-1.1H165.29v-1.245H167.4V249h-3.333v6h3.446v-1.111h-2.22Zm4.7-3.506a9.12,9.12,0,0,0-1.65.125V255h1.21v-2.145a2.6,2.6,0,0,0,.416.028,2.346,2.346,0,0,0,1.755-.632,2.035,2.035,0,0,0,.5-1.423,1.835,1.835,0,0,0-.576-1.388A2.4,2.4,0,0,0,169.992,248.959Zm-.032,2.883a1.717,1.717,0,0,1-.408-.035v-1.771a1.9,1.9,0,0,1,.505-.054.84.84,0,0,1,.953.881A.937.937,0,0,1,169.96,251.842Zm6.225.613c0,1.059-.353,1.558-.995,1.558-.625,0-.976-.525-.976-1.558V249h-1.227v3.346c0,1.912.8,2.748,2.163,2.748,1.41,0,2.251-.881,2.251-2.731V249h-1.216Zm5.206-.683v-.019a1.345,1.345,0,0,0,.889-1.28,1.326,1.326,0,0,0-.649-1.175,2.726,2.726,0,0,0-1.594-.339,8.877,8.877,0,0,0-1.578.125v5.889a8.418,8.418,0,0,0,1.321.09,3.15,3.15,0,0,0,2.123-.543,1.665,1.665,0,0,0,.561-1.272A1.469,1.469,0,0,0,181.391,251.772Zm-1.723-1.79a3.119,3.119,0,0,1,.521-.035c.553,0,.865.241.865.694s-.344.738-.986.738h-.4Zm.473,4.075a3.437,3.437,0,0,1-.473-.018V252.35h.417c.608,0,1.1.24,1.1.844C181.183,253.826,180.693,254.057,180.141,254.057Z" fill="#fff"/>
  </g>
</svg>
