<svg xmlns="http://www.w3.org/2000/svg" width="30" height="32" viewBox="0 0 30 32">
  <g id="Group_3464" data-name="Group 3464" transform="translate(-28.999 -231)">
    <path id="Path_2216" data-name="Path 2216" d="M48,231l8,8v24H32V231Z" fill="#737373"/>
    <path id="Path_2217" data-name="Path 2217" d="M47,240v-8H33v30H55V240Z" fill="#fff"/>
    <rect id="Rectangle_2586" data-name="Rectangle 2586" width="30" height="10" transform="translate(28.999 247)" fill="#009"/>
    <path id="Path_2218" data-name="Path 2218" d="M36.639,255H38v-2.41h2.152v-1.1H38v-1.37h2.3V249H36.639Zm8.169-3.228v-.019a1.355,1.355,0,0,0,.987-1.28,1.306,1.306,0,0,0-.721-1.175,3.3,3.3,0,0,0-1.769-.339,10.92,10.92,0,0,0-1.753.125v5.889a10.354,10.354,0,0,0,1.467.09,3.784,3.784,0,0,0,2.358-.543A1.6,1.6,0,0,0,46,253.248,1.5,1.5,0,0,0,44.808,251.772Zm-1.914-1.79a3.87,3.87,0,0,1,.58-.035c.613,0,.96.241.96.694s-.382.738-1.094.738h-.446Zm.526,4.075a4.246,4.246,0,0,1-.526-.018V252.35h.463c.676,0,1.219.24,1.219.844C44.576,253.826,44.033,254.057,43.42,254.057Zm5.437-.168v-.019l.535-.444a3.6,3.6,0,0,0,1.538-2.491,1.8,1.8,0,0,0-2.028-1.816,3.2,3.2,0,0,0-1.9.6l.383.969a2.1,2.1,0,0,1,1.236-.48c.667,0,.952.373.952.846-.018.676-.632,1.324-1.894,2.455l-.749.676V255h4.1v-1.111Z" fill="#fff"/>
  </g>
</svg>
