<svg xmlns="http://www.w3.org/2000/svg" width="30" height="32" viewBox="0 0 30 32">
  <g id="Group_3417" data-name="Group 3417" transform="translate(-330 -411)">
    <path id="Path_2073" data-name="Path 2073" d="M349,411l8,8v24H333V411Z" fill="#737373"/>
    <path id="Path_2074" data-name="Path 2074" d="M348,420v-8H334v30h22V420Z" fill="#fff"/>
    <rect id="Rectangle_2539" data-name="Rectangle 2539" width="30" height="10" transform="translate(330 427)" fill="#09f"/>
    <path id="Path_2075" data-name="Path 2075" d="M336.758,435h1.361v-2.41h2.152v-1.1h-2.152v-1.37h2.305V429h-3.666Zm7.554-6.094a2.9,2.9,0,0,0-2.918,3.141,2.8,2.8,0,0,0,2.821,3.051,2.859,2.859,0,0,0,2.945-3.158A2.8,2.8,0,0,0,344.312,428.906Zm-.025,5.116c-.908,0-1.459-.828-1.459-2s.533-2.038,1.449-2.038c.934,0,1.45.926,1.45,2C345.727,433.149,345.2,434.022,344.287,434.022ZM351.992,429v1.753a21.98,21.98,0,0,0,.117,2.5h-.027a17.574,17.574,0,0,0-.979-2.055l-1.246-2.2h-1.584v6h1.246v-1.806c0-.978-.017-1.823-.052-2.616l.025-.008a23,23,0,0,0,1.041,2.118L351.814,435h1.424v-6Z" fill="#fff"/>
  </g>
</svg>
