<svg xmlns="http://www.w3.org/2000/svg" width="30" height="32" viewBox="0 0 30 32">
  <g id="Group_3421" data-name="Group 3421" transform="translate(-157.999 -411)">
    <path id="Path_2085" data-name="Path 2085" d="M177,411l8,8v24H161V411Z" fill="#737373"/>
    <path id="Path_2086" data-name="Path 2086" d="M176,420v-8H162v30h22V420Z" fill="#fff"/>
    <rect id="Rectangle_2543" data-name="Rectangle 2543" width="30" height="10" transform="translate(157.999 427)" fill="#36f"/>
    <path id="Path_2087" data-name="Path 2087" d="M169.032,431.309H166.8V429h-1.362v6H166.8v-2.509h2.232V435h1.353v-6h-1.353Zm4.122-2.3h-1.361v6h3.745v-1.139h-2.384Zm7.074.436a2.873,2.873,0,0,0-1.833-.481,11.236,11.236,0,0,0-1.833.125V435h1.344v-2.145a3.21,3.21,0,0,0,.463.028,2.775,2.775,0,0,0,1.948-.632,1.914,1.914,0,0,0,.551-1.423A1.753,1.753,0,0,0,180.228,429.44Zm-1.868,2.4a2.12,2.12,0,0,1-.454-.035v-1.771a2.335,2.335,0,0,1,.561-.054c.676,0,1.058.331,1.058.881C179.525,431.477,179.08,431.842,178.36,431.842Z" fill="#ffea00"/>
  </g>
</svg>
