<svg xmlns="http://www.w3.org/2000/svg" width="30" height="32" viewBox="0 0 30 32">
  <g id="Group_3452" data-name="Group 3452" transform="translate(-114.999 -276)">
    <path id="Path_2180" data-name="Path 2180" d="M134,276l8,8v24H118V276Z" fill="#737373"/>
    <path id="Path_2181" data-name="Path 2181" d="M133,285v-8H119v30h22V285Z" fill="#fff"/>
    <rect id="Rectangle_2574" data-name="Rectangle 2574" width="30" height="10" transform="translate(114.999 292)" fill="#e57e7e"/>
    <path id="Path_2182" data-name="Path 2182" d="M123.279,300h1.362v-6h-1.362Zm5.09-3.559c-.773-.293-1.112-.463-1.112-.844,0-.312.285-.578.872-.578a2.864,2.864,0,0,1,1.255.284l.3-1.094a3.666,3.666,0,0,0-1.529-.3c-1.415,0-2.268.784-2.268,1.807,0,.871.649,1.423,1.645,1.769.721.258,1,.472,1,.846,0,.391-.329.649-.951.649a3.457,3.457,0,0,1-1.5-.374l-.275,1.122a3.929,3.929,0,0,0,1.7.364c1.645,0,2.419-.855,2.419-1.86C129.926,297.385,129.428,296.833,128.369,296.441Zm5.34-2.535a2.9,2.9,0,0,0-2.918,3.141,2.8,2.8,0,0,0,2.82,3.051,2.859,2.859,0,0,0,2.945-3.158A2.8,2.8,0,0,0,133.709,293.906Zm-.026,5.116c-.909,0-1.459-.828-1.459-2s.533-2.038,1.45-2.038c.933,0,1.449.926,1.449,2C135.123,298.149,134.6,299.022,133.683,299.022Z" fill="#fff"/>
  </g>
</svg>
