<svg xmlns="http://www.w3.org/2000/svg" width="30.001" height="32" viewBox="0 0 30.001 32">
  <g id="Group_3460" data-name="Group 3460" transform="translate(-201 -231)">
    <path id="Path_2204" data-name="Path 2204" d="M220,231l8,8v24H204V231Z" fill="#737373"/>
    <path id="Path_2205" data-name="Path 2205" d="M219,240v-8H205v30h22V240Z" fill="#fff"/>
    <rect id="Rectangle_2582" data-name="Rectangle 2582" width="30.001" height="10" transform="translate(200.999 247)" fill="#dd3e00"/>
    <path id="Path_2206" data-name="Path 2206" d="M208.562,255h1.362v-6h-1.362Zm8.088-3.541c-.124.712-.257,1.415-.346,2.082h-.018c-.089-.667-.187-1.308-.32-2.01L215.485,249h-1.441l-.507,2.455c-.151.738-.293,1.459-.392,2.109h-.017c-.1-.6-.223-1.378-.356-2.091L212.318,249h-1.45l1.423,6h1.486l.57-2.58c.142-.6.24-1.174.346-1.85h.018c.072.685.169,1.245.285,1.85L215.5,255h1.468l1.548-6H217.14Zm6.258,1.148v-3.389h-1.655l-2.189,3.522v.881h2.562V255h1.282v-1.379h.694v-1.014Zm-1.282-1.281v1.281h-1.3v-.017l.774-1.264c.195-.365.347-.7.533-1.076h.036C221.644,250.623,221.626,250.978,221.626,251.326Z" fill="#fff"/>
  </g>
</svg>
