<svg xmlns="http://www.w3.org/2000/svg" width="30" height="32" viewBox="0 0 30 32">
  <g id="Group_3451" data-name="Group 3451" transform="translate(-157.999 -276)">
    <path id="Path_2177" data-name="Path 2177" d="M177,276l8,8v24H161V276Z" fill="#737373"/>
    <path id="Path_2178" data-name="Path 2178" d="M176,285v-8H162v30h22V285Z" fill="#fff"/>
    <rect id="Rectangle_2573" data-name="Rectangle 2573" width="30" height="10" transform="translate(157.999 292)" fill="#06c"/>
    <path id="Path_2179" data-name="Path 2179" d="M166.934,297.775c0,.935-.356,1.194-.925,1.194a2.209,2.209,0,0,1-.7-.108l-.151,1.094a3.491,3.491,0,0,0,.987.143c1.317,0,2.136-.6,2.136-2.3V294h-1.352Zm4.1-3.771-1.832,6h1.4l.427-1.539h1.717l.463,1.539h1.459l-1.86-6Zm.2,3.443.356-1.272c.1-.347.186-.8.275-1.156h.019c.089.355.195.8.3,1.156l.374,1.272Zm8.507.863a1.506,1.506,0,0,0-.8-1.12v-.028A1.59,1.59,0,0,0,180,295.685a1.519,1.519,0,0,0-.552-1.253,3.058,3.058,0,0,0-1.939-.473,12.057,12.057,0,0,0-1.806.125V300h1.343v-2.357h.41c.551.008.809.212.969.96a7.461,7.461,0,0,0,.419,1.4h1.387C180.112,299.769,179.926,298.986,179.739,298.31Zm-2.162-1.646h-.534V295.01a3.36,3.36,0,0,1,.614-.045c.623.009,1,.285,1,.836C178.653,296.326,178.253,296.664,177.577,296.664Z" fill="#fff"/>
  </g>
</svg>
