<svg xmlns="http://www.w3.org/2000/svg" width="30" height="32" viewBox="0 0 30 32">
  <g id="Group_3436" data-name="Group 3436" transform="translate(-373 -321)">
    <path id="Path_2132" data-name="Path 2132" d="M392,321l8,8v24H376V321Z" fill="#737373"/>
    <path id="Path_2133" data-name="Path 2133" d="M391,330v-8H377v30h22V330Z" fill="#fff"/>
    <rect id="Rectangle_2558" data-name="Rectangle 2558" width="30" height="10" transform="translate(373 337)" fill="#09f"/>
    <path id="Path_2134" data-name="Path 2134" d="M380.279,342.775c0,.935-.338,1.194-.879,1.194a2.006,2.006,0,0,1-.66-.108l-.142,1.094a3.143,3.143,0,0,0,.937.143c1.252,0,2.029-.6,2.029-2.3V339h-1.285ZM383.965,339l-1.74,6h1.335l.4-1.539H385.6l.439,1.539h1.387l-1.768-6Zm.187,3.443.338-1.272c.092-.347.178-.8.262-1.156h.016c.085.355.187.8.289,1.156l.353,1.272ZM391.084,339l-.727,2.562c-.2.685-.371,1.4-.515,2.118h-.026c-.134-.749-.312-1.433-.507-2.145L388.615,339H387.2l1.824,6h1.506l1.918-6Zm4.541,0h-1.691l-1.741,6h1.336l.4-1.539h1.632l.44,1.539h1.387Zm-1.5,3.443.338-1.272c.092-.347.178-.8.262-1.156h.015c.086.355.188.8.289,1.156l.354,1.272Z" fill="#fff"/>
  </g>
</svg>
