<svg xmlns="http://www.w3.org/2000/svg" width="30" height="32" viewBox="0 0 30 32">
  <g id="Group_3484" data-name="Group 3484" transform="translate(-28.999 -141)">
    <path id="Path_2276" data-name="Path 2276" d="M48,141l8,8v24H32V141Z" fill="#737373"/>
    <path id="Path_2277" data-name="Path 2277" d="M47,150v-8H33v30H55V150Z" fill="#fff"/>
    <rect id="Rectangle_2606" data-name="Rectangle 2606" width="30" height="10" transform="translate(28.999 157)" fill="#09f"/>
    <path id="Path_2278" data-name="Path 2278" d="M40.152,159,39.512,161c-.2.667-.4,1.459-.57,2.152h-.026c-.134-.7-.32-1.449-.508-2.143l-.587-2H36.016l-.383,6h1.255l.106-2.277c.045-.747.071-1.673.107-2.482h.018c.142.782.347,1.636.542,2.339L38.3,164.9H39.36l.73-2.339c.231-.7.48-1.557.667-2.322h.027c0,.871.026,1.743.053,2.464L40.926,165h1.326l-.329-6Zm4.977-.045a11.106,11.106,0,0,0-1.833.125V165h1.343v-2.144a3.387,3.387,0,0,0,.463.027,2.781,2.781,0,0,0,1.948-.632,1.915,1.915,0,0,0,.552-1.423,1.753,1.753,0,0,0-.641-1.388A2.877,2.877,0,0,0,45.129,158.959Zm-.036,2.883a2.053,2.053,0,0,1-.454-.036v-1.77a2.3,2.3,0,0,1,.56-.053c.677,0,1.059.329,1.059.88C46.258,161.477,45.813,161.842,45.093,161.842Zm5.954.08V161.9a1.385,1.385,0,0,0,1.058-1.343c0-.792-.685-1.441-1.921-1.441a3.619,3.619,0,0,0-1.789.436l.276.978a2.646,2.646,0,0,1,1.21-.346c.569,0,.854.257.854.6,0,.49-.578.659-1.032.667h-.524v.97h.551c.6,0,1.165.258,1.165.827,0,.436-.356.774-1.058.774a3.182,3.182,0,0,1-1.344-.356l-.275,1.015a3.42,3.42,0,0,0,1.717.409c1.467,0,2.366-.747,2.366-1.77A1.437,1.437,0,0,0,51.047,161.922Z" fill="#fff"/>
  </g>
</svg>
