<svg xmlns="http://www.w3.org/2000/svg" width="30" height="32" viewBox="0 0 30 32">
  <g id="Group_3469" data-name="Group 3469" transform="translate(-244 -186)">
    <path id="Path_2231" data-name="Path 2231" d="M263,186l8,8v24H247V186Z" fill="#737373"/>
    <path id="Path_2232" data-name="Path 2232" d="M262,195v-8H248v30h22V195Z" fill="#fff"/>
    <rect id="Rectangle_2591" data-name="Rectangle 2591" width="30" height="10" transform="translate(244 202)" fill="#639"/>
    <path id="Path_2233" data-name="Path 2233" d="M254.588,204,253.947,206c-.2.667-.4,1.459-.568,2.152h-.027c-.133-.7-.321-1.449-.508-2.143l-.586-2h-1.807l-.383,6h1.254l.108-2.277c.045-.747.07-1.673.107-2.482h.018c.142.782.345,1.636.543,2.339l.64,2.322H253.8l.728-2.339c.231-.7.481-1.557.668-2.322h.026c0,.871.027,1.743.054,2.464l.088,2.295h1.326l-.33-6Zm4.976-.045a11.138,11.138,0,0,0-1.834.125V210h1.344v-2.144a3.387,3.387,0,0,0,.463.027,2.782,2.782,0,0,0,1.949-.632,1.914,1.914,0,0,0,.551-1.423,1.753,1.753,0,0,0-.641-1.388A2.876,2.876,0,0,0,259.564,203.959Zm-.035,2.883a2.051,2.051,0,0,1-.455-.036v-1.77a2.3,2.3,0,0,1,.561-.053c.675,0,1.058.329,1.058.88C260.693,206.477,260.248,206.842,259.529,206.842Zm6.149-.276v1.059h.925v1.254a1.955,1.955,0,1,1-.57-3.816,3.31,3.31,0,0,1,1.4.258l.285-1.086a4.134,4.134,0,0,0-1.664-.293c-1.965,0-3.416,1.139-3.424,3.131a2.9,2.9,0,0,0,.844,2.18,3.34,3.34,0,0,0,2.437.81,6.679,6.679,0,0,0,2-.339v-3.158Z" fill="#fff"/>
  </g>
</svg>
