<svg xmlns="http://www.w3.org/2000/svg" width="30" height="32" viewBox="0 0 30 32">
  <g id="Group_3477" data-name="Group 3477" transform="translate(-330 -141)">
    <path id="Path_2255" data-name="Path 2255" d="M349,141l8,8v24H333V141Z" fill="#737373"/>
    <path id="Path_2256" data-name="Path 2256" d="M348,150v-8H334v30h22V150Z" fill="#fff"/>
    <rect id="Rectangle_2599" data-name="Rectangle 2599" width="30" height="10" transform="translate(330 157)" fill="#c00"/>
    <path id="Path_2257" data-name="Path 2257" d="M338.969,158.906a2.9,2.9,0,0,0-2.918,3.14,2.8,2.8,0,0,0,2.82,3.052,2.858,2.858,0,0,0,2.943-3.158A2.794,2.794,0,0,0,338.969,158.906Zm-.028,5.115c-.906,0-1.459-.827-1.459-2s.536-2.037,1.452-2.037c.933,0,1.449.925,1.449,2C340.383,163.149,339.857,164.021,338.941,164.021Zm6.543-1.4h.924v1.254A1.964,1.964,0,0,1,343.855,162a1.814,1.814,0,0,1,1.985-1.939,3.312,3.312,0,0,1,1.4.258l.285-1.086a4.142,4.142,0,0,0-1.664-.293c-1.966,0-3.416,1.139-3.425,3.131a2.911,2.911,0,0,0,.845,2.18,3.341,3.341,0,0,0,2.438.81,6.691,6.691,0,0,0,2-.339v-3.158h-2.233Zm6.069-1.059v1.059h.925v1.254a1.955,1.955,0,1,1-.57-3.816,3.321,3.321,0,0,1,1.4.258l.283-1.086a4.13,4.13,0,0,0-1.662-.293c-1.967,0-3.416,1.139-3.426,3.131a2.893,2.893,0,0,0,.846,2.18,3.334,3.334,0,0,0,2.437.81,6.7,6.7,0,0,0,2-.339v-3.158Z" fill="#fff"/>
  </g>
</svg>
