<svg xmlns="http://www.w3.org/2000/svg" width="30" height="32" viewBox="0 0 30 32">
  <g id="Group_3487" data-name="Group 3487" transform="translate(-330 -96)">
    <path id="Path_2285" data-name="Path 2285" d="M349,96l8,8v24H333V96Z" fill="#737373"/>
    <path id="Path_2286" data-name="Path 2286" d="M348,105V97H334v30h22V105Z" fill="#fff"/>
    <rect id="Rectangle_2609" data-name="Rectangle 2609" width="30" height="10" transform="translate(330 112)" fill="#060"/>
    <path id="Path_2287" data-name="Path 2287" d="M339.738,113.906a2.9,2.9,0,0,0-2.918,3.14,2.8,2.8,0,0,0,2.821,3.052,2.859,2.859,0,0,0,2.945-3.158A2.8,2.8,0,0,0,339.738,113.906Zm-.025,5.115c-.908,0-1.459-.827-1.459-2s.533-2.037,1.449-2.037c.934,0,1.449.925,1.449,2C341.152,118.149,340.629,119.021,339.713,119.021Zm7.226-1.832v-.027A1.59,1.59,0,0,0,348,115.685a1.523,1.523,0,0,0-.553-1.254,3.056,3.056,0,0,0-1.939-.472,11.911,11.911,0,0,0-1.805.125V120h1.342v-2.357h.41c.551.008.809.213.969.961a7.438,7.438,0,0,0,.42,1.4h1.386c-.115-.231-.3-1.014-.488-1.69A1.514,1.514,0,0,0,346.939,117.189Zm-1.361-.525h-.535v-1.655a3.511,3.511,0,0,1,.615-.044c.623.009,1,.284,1,.836C346.654,116.326,346.254,116.664,345.578,116.664Zm3.168-2.66v1.139h1.611V120h1.36v-4.857h1.638V114Z" fill="#fff"/>
  </g>
</svg>
