<svg xmlns="http://www.w3.org/2000/svg" width="30" height="32" viewBox="0 0 30 32">
  <g id="Group_3437" data-name="Group 3437" transform="translate(-330 -321)">
    <path id="Path_2135" data-name="Path 2135" d="M349,321l8,8v24H333V321Z" fill="#737373"/>
    <path id="Path_2136" data-name="Path 2136" d="M348,330v-8H334v30h22V330Z" fill="#fff"/>
    <rect id="Rectangle_2559" data-name="Rectangle 2559" width="30" height="10" transform="translate(330 337)" fill="#690"/>
    <path id="Path_2137" data-name="Path 2137" d="M338.961,338.959a11.232,11.232,0,0,0-1.834.125V345h1.344v-2.145a3.22,3.22,0,0,0,.463.028,2.774,2.774,0,0,0,1.947-.632,1.912,1.912,0,0,0,.553-1.423,1.75,1.75,0,0,0-.641-1.388A2.869,2.869,0,0,0,338.961,338.959Zm-.037,2.883a2.109,2.109,0,0,1-.453-.035v-1.771a2.331,2.331,0,0,1,.56-.054c.676,0,1.059.331,1.059.881C340.09,341.477,339.644,341.842,338.924,341.842Zm7.191-.533h-2.232V339h-1.362v6h1.362v-2.509h2.232V345h1.352v-6h-1.352Zm6.426-1.869a2.876,2.876,0,0,0-1.834-.481,11.222,11.222,0,0,0-1.832.125V345h1.344v-2.145a3.2,3.2,0,0,0,.463.028,2.774,2.774,0,0,0,1.947-.632,1.918,1.918,0,0,0,.551-1.423A1.755,1.755,0,0,0,352.541,339.44Zm-1.869,2.4a2.116,2.116,0,0,1-.453-.035v-1.771a2.318,2.318,0,0,1,.56-.054c.676,0,1.059.331,1.059.881C351.838,341.477,351.393,341.842,350.672,341.842Z" fill="#fff"/>
  </g>
</svg>
