<svg xmlns="http://www.w3.org/2000/svg" width="30.001" height="32" viewBox="0 0 30.001 32">
  <g id="Group_3500" data-name="Group 3500" transform="translate(-201 -51)">
    <path id="Path_2324" data-name="Path 2324" d="M220,51l8,8V83H204V51Z" fill="#737373"/>
    <path id="Path_2325" data-name="Path 2325" d="M219,60V52H205V82h22V60Z" fill="#fff"/>
    <rect id="Rectangle_2622" data-name="Rectangle 2622" width="30.001" height="10" transform="translate(200.999 67)" fill="#7f0100"/>
    <path id="Path_2326" data-name="Path 2326" d="M209.728,68.959a11.106,11.106,0,0,0-1.833.125V75h1.343V72.856a3.386,3.386,0,0,0,.463.027,2.779,2.779,0,0,0,1.948-.632,1.915,1.915,0,0,0,.552-1.423,1.753,1.753,0,0,0-.641-1.388A2.876,2.876,0,0,0,209.728,68.959Zm-.036,2.883a2.058,2.058,0,0,1-.454-.036v-1.77a2.3,2.3,0,0,1,.561-.053c.676,0,1.058.329,1.058.88C210.857,71.477,210.413,71.842,209.692,71.842Zm7.093-1.085a22.233,22.233,0,0,0,.115,2.5h-.027A17.167,17.167,0,0,0,215.9,71.2L214.649,69h-1.583v6h1.245V73.194c0-.978-.017-1.823-.053-2.615l.027-.009a22.362,22.362,0,0,0,1.041,2.117L216.607,75h1.423V69h-1.245Zm5.2.809v1.059h.925v1.254A1.964,1.964,0,0,1,220.354,72a1.814,1.814,0,0,1,1.984-1.939,3.311,3.311,0,0,1,1.4.258l.284-1.086a4.132,4.132,0,0,0-1.663-.293c-1.966,0-3.416,1.139-3.425,3.131a2.9,2.9,0,0,0,.845,2.18,3.34,3.34,0,0,0,2.437.81,6.685,6.685,0,0,0,2-.339V71.566Z" fill="#fff"/>
  </g>
</svg>
