<svg xmlns="http://www.w3.org/2000/svg" width="30" height="32" viewBox="0 0 30 32">
  <g id="Group_3505" data-name="Group 3505" transform="translate(-416 -6)">
    <path id="Path_2339" data-name="Path 2339" d="M435,6l8,8V38H419V6Z" fill="#737373"/>
    <path id="Path_2340" data-name="Path 2340" d="M434,15V7H420V37h22V15Z" fill="#fff"/>
    <rect id="Rectangle_2627" data-name="Rectangle 2627" width="30" height="10" transform="translate(416 22)" fill="#7f0100"/>
    <path id="Path_2341" data-name="Path 2341" d="M428.08,23.959a11.11,11.11,0,0,0-1.832.125V30h1.344V27.856a3.365,3.365,0,0,0,.463.027A2.778,2.778,0,0,0,430,27.251a1.918,1.918,0,0,0,.551-1.423,1.758,1.758,0,0,0-.639-1.388A2.882,2.882,0,0,0,428.08,23.959Zm-.035,2.883a2.042,2.042,0,0,1-.453-.036v-1.77a2.281,2.281,0,0,1,.56-.053c.676,0,1.059.329,1.059.88C429.211,26.477,428.766,26.842,428.045,26.842Zm6.15-.4c-.775-.293-1.113-.462-1.113-.844,0-.312.285-.578.873-.578a2.863,2.863,0,0,1,1.254.284l.3-1.094a3.693,3.693,0,0,0-1.532-.3c-1.414,0-2.267.783-2.267,1.806,0,.872.648,1.424,1.644,1.77.721.258,1.006.472,1.006.846,0,.391-.328.649-.951.649a3.476,3.476,0,0,1-1.5-.373l-.275,1.12a3.917,3.917,0,0,0,1.7.365c1.645,0,2.42-.854,2.42-1.859C435.752,27.385,435.254,26.833,434.2,26.441Z" fill="#fff"/>
  </g>
</svg>
