<svg xmlns="http://www.w3.org/2000/svg" width="30" height="32" viewBox="0 0 30 32">
  <g id="Group_3474" data-name="Group 3474" transform="translate(-28.999 -186)">
    <path id="Path_2246" data-name="Path 2246" d="M48,186l8,8v24H32V186Z" fill="#737373"/>
    <path id="Path_2247" data-name="Path 2247" d="M47,195v-8H33v30H55V195Z" fill="#fff"/>
    <rect id="Rectangle_2596" data-name="Rectangle 2596" width="30" height="10" transform="translate(28.999 202)" fill="#099"/>
    <path id="Path_2248" data-name="Path 2248" d="M42.479,209.608a3.1,3.1,0,0,0-1.414-5.7,2.906,2.906,0,0,0-2.926,3.15,2.8,2.8,0,0,0,2.615,3.042,1.335,1.335,0,0,1,.418.089,20.787,20.787,0,0,0,2.366.845l.392-1.05c-.472-.1-.988-.2-1.451-.338Zm-1.458-.587c-.908,0-1.459-.872-1.45-2.01,0-1.121.533-2.028,1.459-2.028s1.441.907,1.441,2C42.471,208.159,41.937,209.021,41.021,209.021ZM44.538,204v1.139h1.61V210h1.361v-4.857h1.637V204Z" fill="#fff"/>
  </g>
</svg>
