<svg xmlns="http://www.w3.org/2000/svg" width="30" height="32" viewBox="0 0 30 32">
  <g id="Group_3453" data-name="Group 3453" transform="translate(-71.999 -276)">
    <path id="Path_2183" data-name="Path 2183" d="M91,276l8,8v24H75V276Z" fill="#737373"/>
    <path id="Path_2184" data-name="Path 2184" d="M90,285v-8H76v30H98V285Z" fill="#fff"/>
    <rect id="Rectangle_2575" data-name="Rectangle 2575" width="30" height="10" transform="translate(71.999 292)" fill="#906"/>
    <path id="Path_2185" data-name="Path 2185" d="M82.365,297.19v-.028a1.589,1.589,0,0,0,1.059-1.477,1.521,1.521,0,0,0-.551-1.253,3.061,3.061,0,0,0-1.939-.473,12.072,12.072,0,0,0-1.807.125V300h1.344v-2.357h.409c.552.008.809.212.97.96a7.409,7.409,0,0,0,.418,1.4h1.387c-.115-.231-.3-1.014-.489-1.69A1.506,1.506,0,0,0,82.365,297.19ZM81,296.664h-.534V295.01a3.332,3.332,0,0,1,.614-.045c.622.009,1,.285,1,.836C82.081,296.326,81.681,296.664,81,296.664ZM86.1,294l-1.833,6h1.406l.427-1.539h1.717L88.283,300h1.459l-1.858-6Zm.2,3.443.355-1.272c.1-.347.188-.8.277-1.156h.017c.089.355.195.8.3,1.156l.373,1.272Zm8.507.863a1.508,1.508,0,0,0-.8-1.12v-.028a1.589,1.589,0,0,0,1.058-1.477,1.521,1.521,0,0,0-.55-1.253,3.063,3.063,0,0,0-1.94-.473,12.057,12.057,0,0,0-1.806.125V300h1.343v-2.357h.409c.552.008.81.212.97.96a7.49,7.49,0,0,0,.418,1.4H95.3C95.181,299.769,94.993,298.986,94.807,298.31Zm-2.162-1.646h-.534V295.01a3.346,3.346,0,0,1,.615-.045c.622.009,1,.285,1,.836C93.722,296.326,93.321,296.664,92.645,296.664Z" fill="#fff"/>
  </g>
</svg>
