<svg xmlns="http://www.w3.org/2000/svg" width="30" height="32" viewBox="0 0 30 32">
  <g id="Group_3478" data-name="Group 3478" transform="translate(-287 -141)">
    <path id="Path_2258" data-name="Path 2258" d="M306,141l8,8v24H290V141Z" fill="#737373"/>
    <path id="Path_2259" data-name="Path 2259" d="M305,150v-8H291v30h22V150Z" fill="#fff"/>
    <rect id="Rectangle_2600" data-name="Rectangle 2600" width="30" height="10" transform="translate(287 157)" fill="#7e7e2a"/>
    <path id="Path_2260" data-name="Path 2260" d="M296.853,162.189v-.027a1.59,1.59,0,0,0,1.059-1.477,1.522,1.522,0,0,0-.551-1.254,3.062,3.062,0,0,0-1.939-.472,11.94,11.94,0,0,0-1.807.125V165h1.344v-2.357h.41c.551.008.809.213.969.961a7.493,7.493,0,0,0,.418,1.4h1.388c-.117-.231-.3-1.014-.49-1.69A1.509,1.509,0,0,0,296.853,162.189Zm-1.361-.525h-.533v-1.655a3.482,3.482,0,0,1,.613-.044c.623.009,1,.284,1,.836C296.568,161.326,296.168,161.664,295.492,161.664ZM303.5,159,302.861,161c-.2.667-.4,1.459-.57,2.152h-.025c-.135-.7-.321-1.449-.508-2.143l-.588-2h-1.805l-.383,6h1.254l.108-2.277c.045-.747.07-1.673.105-2.482h.02c.14.782.345,1.636.541,2.339l.64,2.322h1.059l.73-2.339c.231-.7.481-1.557.666-2.322h.028c0,.871.027,1.743.052,2.464l.09,2.295H305.6l-.331-6Zm7.031,1.112V159h-3.666v6h1.361v-2.411h2.153v-1.1h-2.153v-1.37Z" fill="#fff"/>
  </g>
</svg>
