<svg xmlns="http://www.w3.org/2000/svg" width="30" height="32" viewBox="0 0 30 32">
  <g id="Group_3418" data-name="Group 3418" transform="translate(-287 -411)">
    <path id="Path_2076" data-name="Path 2076" d="M306,411l8,8v24H290V411Z" fill="#737373"/>
    <path id="Path_2077" data-name="Path 2077" d="M305,420v-8H291v30h22V420Z" fill="#fff"/>
    <rect id="Rectangle_2540" data-name="Rectangle 2540" width="30" height="10" transform="translate(287 427)" fill="#f60"/>
    <path id="Path_2078" data-name="Path 2078" d="M297.935,432.19v-.028a1.59,1.59,0,0,0,1.059-1.477,1.518,1.518,0,0,0-.551-1.253,3.059,3.059,0,0,0-1.939-.473,12.072,12.072,0,0,0-1.807.125V435h1.344v-2.357h.408c.553.008.811.212.971.96a7.486,7.486,0,0,0,.418,1.4h1.387c-.116-.231-.3-1.014-.489-1.69A1.508,1.508,0,0,0,297.935,432.19Zm-1.361-.526h-.533V430.01a3.328,3.328,0,0,1,.613-.045c.623.009,1,.285,1,.836C297.65,431.326,297.25,431.664,296.574,431.664Zm5.953-.223c-.773-.293-1.111-.463-1.111-.844,0-.312.285-.578.871-.578a2.865,2.865,0,0,1,1.256.284l.3-1.094a3.675,3.675,0,0,0-1.53-.3c-1.414,0-2.267.784-2.267,1.807,0,.871.648,1.423,1.644,1.769.721.258,1.006.472,1.006.846,0,.391-.33.649-.951.649a3.453,3.453,0,0,1-1.5-.374l-.275,1.122a3.932,3.932,0,0,0,1.7.364c1.644,0,2.418-.855,2.418-1.86C304.084,432.385,303.586,431.833,302.527,431.441Zm5.03,0c-.774-.293-1.114-.463-1.114-.844,0-.312.285-.578.873-.578a2.863,2.863,0,0,1,1.254.284l.3-1.094a3.669,3.669,0,0,0-1.529-.3c-1.416,0-2.27.784-2.27,1.807,0,.871.651,1.423,1.647,1.769.72.258,1,.472,1,.846,0,.391-.329.649-.952.649a3.465,3.465,0,0,1-1.5-.374l-.275,1.122a3.936,3.936,0,0,0,1.7.364c1.647,0,2.42-.855,2.42-1.86C309.113,432.385,308.615,431.833,307.557,431.441Z" fill="#fff"/>
  </g>
</svg>
