<svg xmlns="http://www.w3.org/2000/svg" width="30" height="32" viewBox="0 0 30 32">
  <g id="Group_3491" data-name="Group 3491" transform="translate(-157.999 -96)">
    <path id="Path_2297" data-name="Path 2297" d="M177,96l8,8v24H161V96Z" fill="#737373"/>
    <path id="Path_2298" data-name="Path 2298" d="M176,105V97H162v30h22V105Z" fill="#fff"/>
    <rect id="Rectangle_2613" data-name="Rectangle 2613" width="30" height="10" transform="translate(157.999 112)" fill="#7f0100"/>
    <path id="Path_2299" data-name="Path 2299" d="M168.957,117.189v-.027a1.589,1.589,0,0,0,1.059-1.477,1.525,1.525,0,0,0-.551-1.254,3.063,3.063,0,0,0-1.94-.472,11.936,11.936,0,0,0-1.806.125V120h1.343v-2.357h.41c.551.008.809.213.969.961a7.58,7.58,0,0,0,.418,1.4h1.388c-.115-.231-.3-1.014-.489-1.69A1.514,1.514,0,0,0,168.957,117.189Zm-1.36-.525h-.535v-1.655a3.491,3.491,0,0,1,.615-.044c.622.009,1,.284,1,.836C168.673,116.326,168.272,116.664,167.6,116.664Zm3.169-1.521h1.61V120h1.36v-4.857h1.638V114h-4.608Zm9.217-.027V114h-3.665v6h1.362v-2.411h2.152v-1.1H177.68v-1.37Z" fill="#fff"/>
  </g>
</svg>
