<svg xmlns="http://www.w3.org/2000/svg" width="30" height="32" viewBox="0 0 30 32">
  <g id="Group_3489" data-name="Group 3489" transform="translate(-244 -96)">
    <path id="Path_2291" data-name="Path 2291" d="M263,96l8,8v24H247V96Z" fill="#737373"/>
    <path id="Path_2292" data-name="Path 2292" d="M262,105V97H248v30h22V105Z" fill="#fff"/>
    <rect id="Rectangle_2611" data-name="Rectangle 2611" width="30" height="10" transform="translate(244 112)" fill="#0f9"/>
    <path id="Path_2293" data-name="Path 2293" d="M253.793,116.441c-.775-.293-1.113-.462-1.113-.844,0-.312.285-.578.873-.578a2.867,2.867,0,0,1,1.254.284l.3-1.094a3.684,3.684,0,0,0-1.531-.3c-1.414,0-2.268.783-2.268,1.806,0,.872.649,1.424,1.645,1.77.721.258,1.006.472,1.006.846,0,.391-.328.649-.951.649a3.476,3.476,0,0,1-1.5-.373l-.276,1.12a3.921,3.921,0,0,0,1.7.365c1.644,0,2.42-.854,2.42-1.859C255.35,117.385,254.852,116.833,253.793,116.441Zm6.016,1.015c0,1.058-.393,1.557-1.1,1.557-.693,0-1.086-.525-1.086-1.557V114h-1.361v3.345c0,1.913.89,2.749,2.4,2.749,1.567,0,2.5-.881,2.5-2.731V114h-1.351Zm5.785-.685v-.018a1.355,1.355,0,0,0,.986-1.281,1.3,1.3,0,0,0-.721-1.174,3.3,3.3,0,0,0-1.769-.339,10.8,10.8,0,0,0-1.752.125v5.889a10.376,10.376,0,0,0,1.467.09,3.779,3.779,0,0,0,2.357-.543,1.6,1.6,0,0,0,.623-1.272A1.5,1.5,0,0,0,265.594,116.771Zm-1.914-1.788a3.686,3.686,0,0,1,.58-.036c.613,0,.959.241.959.694s-.381.738-1.094.738h-.445Zm.525,4.074a4.247,4.247,0,0,1-.525-.018v-1.69h.463c.675,0,1.218.24,1.218.845C265.361,118.826,264.818,119.057,264.2,119.057Z" fill="#262626"/>
  </g>
</svg>
