<svg xmlns="http://www.w3.org/2000/svg" width="30" height="32" viewBox="0 0 30 32">
  <g id="Group_3424" data-name="Group 3424" transform="translate(-28.999 -411)">
    <path id="Path_2094" data-name="Path 2094" d="M48,411l8,8v24H32V411Z" fill="#737373"/>
    <path id="Path_2095" data-name="Path 2095" d="M47,420v-8H33v30H55V420Z" fill="#fff"/>
    <rect id="Rectangle_2546" data-name="Rectangle 2546" width="30" height="10" transform="translate(28.999 427)" fill="#c00"/>
    <path id="Path_2096" data-name="Path 2096" d="M37.995,431.441c-.773-.293-1.112-.463-1.112-.844,0-.312.285-.578.872-.578a2.868,2.868,0,0,1,1.255.284l.3-1.094a3.666,3.666,0,0,0-1.529-.3c-1.415,0-2.268.784-2.268,1.807,0,.871.649,1.423,1.645,1.769.721.258,1.005.472,1.005.846,0,.391-.329.649-.951.649a3.457,3.457,0,0,1-1.5-.374l-.275,1.122a3.929,3.929,0,0,0,1.7.364c1.645,0,2.419-.855,2.419-1.86C39.552,432.385,39.054,431.833,37.995,431.441Zm8.026.018c-.124.712-.257,1.415-.346,2.082h-.018c-.089-.667-.186-1.308-.32-2.01L44.856,429H43.415l-.507,2.455c-.151.738-.293,1.459-.391,2.109H42.5c-.1-.6-.223-1.378-.355-2.091L41.689,429h-1.45l1.424,6h1.485l.57-2.58c.142-.605.24-1.174.346-1.85h.019c.071.685.169,1.245.284,1.85l.507,2.58h1.468l1.548-6H46.512Zm6.462-1.343V429H48.818v6H50.18v-2.41h2.152v-1.1H50.18v-1.37Z" fill="#fff"/>
  </g>
</svg>
