<svg xmlns="http://www.w3.org/2000/svg" width="30" height="32" viewBox="0 0 30 32">
  <g id="Group_3433" data-name="Group 3433" transform="translate(-71.999 -366)">
    <path id="Path_2121" data-name="Path 2121" d="M91,366l8,8v24H75V366Z" fill="#737373"/>
    <path id="Path_2122" data-name="Path 2122" d="M90,375v-8H76v30H98V375Z" fill="#fff"/>
    <rect id="Rectangle_2555" data-name="Rectangle 2555" width="30" height="10" transform="translate(71.999 382)" fill="#009"/>
    <path id="Path_2123" data-name="Path 2123" d="M82.112,386.441c-.774-.293-1.112-.463-1.112-.844,0-.312.284-.578.872-.578a2.859,2.859,0,0,1,1.254.284l.3-1.094a3.684,3.684,0,0,0-1.531-.3c-1.414,0-2.268.784-2.268,1.807,0,.871.649,1.423,1.645,1.769.721.258,1.006.472,1.006.846,0,.391-.329.649-.952.649a3.453,3.453,0,0,1-1.5-.374l-.276,1.122a3.936,3.936,0,0,0,1.7.364c1.645,0,2.42-.855,2.42-1.86C83.669,387.385,83.171,386.833,82.112,386.441Zm5.286-1c-.177.427-.32.774-.453,1.148h-.017c-.152-.392-.277-.712-.463-1.148L85.851,384H84.3l1.895,3.541V390H87.55v-2.5l1.974-3.5H88Zm5.074,1c-.774-.293-1.113-.463-1.113-.844,0-.312.285-.578.872-.578a2.864,2.864,0,0,1,1.255.284l.3-1.094a3.666,3.666,0,0,0-1.529-.3c-1.415,0-2.269.784-2.269,1.807,0,.871.65,1.423,1.646,1.769.72.258,1,.472,1,.846,0,.391-.33.649-.952.649a3.461,3.461,0,0,1-1.5-.374l-.275,1.122a3.936,3.936,0,0,0,1.7.364c1.646,0,2.419-.855,2.419-1.86C94.028,387.385,93.53,386.833,92.472,386.441Z" fill="#3f0"/>
  </g>
</svg>
