<svg xmlns="http://www.w3.org/2000/svg" width="30.001" height="32" viewBox="0 0 30.001 32">
  <g id="Group_3450" data-name="Group 3450" transform="translate(-201 -276)">
    <path id="Path_2174" data-name="Path 2174" d="M220,276l8,8v24H204V276Z" fill="#737373"/>
    <path id="Path_2175" data-name="Path 2175" d="M219,285v-8H205v30h22V285Z" fill="#fff"/>
    <rect id="Rectangle_2572" data-name="Rectangle 2572" width="30.001" height="10" transform="translate(200.999 292)" fill="#096"/>
    <path id="Path_2176" data-name="Path 2176" d="M212.842,294h-4.608v1.139h1.61V300h1.361v-4.857h1.637Zm1.7,0-1.832,6h1.4l.427-1.539h1.717l.463,1.539h1.459l-1.859-6Zm.2,3.443.356-1.272c.1-.347.187-.8.276-1.156h.018c.088.355.195.8.3,1.156l.373,1.272Zm8.507.863a1.506,1.506,0,0,0-.8-1.12v-.028a1.59,1.59,0,0,0,1.059-1.477,1.521,1.521,0,0,0-.551-1.253,3.063,3.063,0,0,0-1.94-.473,12.057,12.057,0,0,0-1.806.125V300h1.343v-2.357h.41c.551.008.809.212.969.96a7.379,7.379,0,0,0,.419,1.4h1.387C223.62,299.769,223.433,298.986,223.246,298.31Zm-2.162-1.646h-.534V295.01a3.356,3.356,0,0,1,.615-.045c.622.009,1,.285,1,.836C222.161,296.326,221.76,296.664,221.084,296.664Z" fill="#fff"/>
  </g>
</svg>
