<svg xmlns="http://www.w3.org/2000/svg" width="30" height="32" viewBox="0 0 30 32">
  <g id="Group_3498" data-name="Group 3498" transform="translate(-287 -51)">
    <path id="Path_2318" data-name="Path 2318" d="M306,51l8,8V83H290V51Z" fill="#737373"/>
    <path id="Path_2319" data-name="Path 2319" d="M305,60V52H291V82h22V60Z" fill="#fff"/>
    <rect id="Rectangle_2620" data-name="Rectangle 2620" width="30" height="10" transform="translate(287 67)" fill="#099"/>
    <path id="Path_2320" data-name="Path 2320" d="M293.646,70.143h1.612V75h1.361V70.143h1.637V69h-4.61Zm8.073,2.482h.924v1.254a1.955,1.955,0,1,1-.569-3.816,3.311,3.311,0,0,1,1.4.258l.285-1.086a4.142,4.142,0,0,0-1.664-.293c-1.965,0-3.416,1.139-3.424,3.131a2.9,2.9,0,0,0,.844,2.18,3.34,3.34,0,0,0,2.437.81,6.679,6.679,0,0,0,2-.339V71.566h-2.232ZM308.41,69h-1.779L304.8,75H306.2l.426-1.539h1.717L308.81,75h1.459Zm-1.582,3.443.356-1.272c.1-.347.185-.8.275-1.156h.018c.089.355.2.8.3,1.156l.373,1.272Z" fill="#fff"/>
  </g>
</svg>
