<svg xmlns="http://www.w3.org/2000/svg" width="30" height="32" viewBox="0 0 30 32">
  <g id="Group_3488" data-name="Group 3488" transform="translate(-287 -96)">
    <path id="Path_2288" data-name="Path 2288" d="M306,96l8,8v24H290V96Z" fill="#737373"/>
    <path id="Path_2289" data-name="Path 2289" d="M305,105V97H291v30h22V105Z" fill="#fff"/>
    <rect id="Rectangle_2610" data-name="Rectangle 2610" width="30" height="10" transform="translate(287 112)" fill="#639"/>
    <path id="Path_2290" data-name="Path 2290" d="M297.3,117.456c0,1.058-.393,1.557-1.1,1.557-.693,0-1.086-.525-1.086-1.557V114h-1.361v3.345c0,1.913.891,2.749,2.4,2.749,1.567,0,2.5-.881,2.5-2.731V114H297.3Zm6.248-1.7a22,22,0,0,0,.115,2.5h-.027a17.178,17.178,0,0,0-.979-2.054l-1.246-2.2h-1.582v6h1.244v-1.806c0-.978-.017-1.823-.052-2.615l.027-.009a21.887,21.887,0,0,0,1.041,2.117L303.365,120h1.422v-6h-1.244Zm5.365,1.174L310.6,114h-1.549l-.506,1.094c-.152.347-.268.614-.41,1h-.018c-.142-.338-.275-.632-.453-1L307.139,114h-1.557l1.672,2.962L305.519,120h1.549l.5-1.085c.186-.418.338-.73.461-1.077h.02c.168.347.31.659.533,1.077l.543,1.085h1.564Z" fill="#fff"/>
  </g>
</svg>
