<svg xmlns="http://www.w3.org/2000/svg" width="30" height="32" viewBox="0 0 30 32">
  <g id="Group_3465" data-name="Group 3465" transform="translate(-416 -186)">
    <path id="Path_2219" data-name="Path 2219" d="M435,186l8,8v24H419V186Z" fill="#737373"/>
    <path id="Path_2220" data-name="Path 2220" d="M434,195v-8H420v30h22V195Z" fill="#fff"/>
    <rect id="Rectangle_2587" data-name="Rectangle 2587" width="30" height="10" transform="translate(416 202)" fill="#963"/>
    <path id="Path_2221" data-name="Path 2221" d="M425.725,206.566c-.2.685-.391,1.4-.543,2.118h-.026c-.142-.748-.33-1.433-.535-2.144L423.893,204h-1.487l1.922,6h1.584l2.02-6H426.49Zm5.419-2.66a2.9,2.9,0,0,0-2.917,3.14,2.8,2.8,0,0,0,2.82,3.052,2.859,2.859,0,0,0,2.945-3.158A2.8,2.8,0,0,0,431.144,203.906Zm-.025,5.115c-.908,0-1.459-.827-1.459-2s.533-2.037,1.449-2.037c.934,0,1.45.925,1.45,2C432.559,208.149,432.035,209.021,431.119,209.021Zm7.022-2.25v-.018a1.355,1.355,0,0,0,.986-1.281,1.3,1.3,0,0,0-.721-1.174,3.3,3.3,0,0,0-1.769-.339,10.8,10.8,0,0,0-1.752.125v5.889a10.354,10.354,0,0,0,1.467.09,3.781,3.781,0,0,0,2.357-.543,1.6,1.6,0,0,0,.623-1.272A1.5,1.5,0,0,0,438.141,206.771Zm-1.914-1.788a3.687,3.687,0,0,1,.58-.036c.613,0,.959.241.959.694s-.381.738-1.094.738h-.445Zm.525,4.074a4.237,4.237,0,0,1-.525-.018v-1.69h.462c.676,0,1.219.24,1.219.845C437.908,208.826,437.365,209.057,436.752,209.057Z" fill="#fff"/>
  </g>
</svg>
