<svg xmlns="http://www.w3.org/2000/svg" width="30" height="32" viewBox="0 0 30 32">
  <g id="Group_3502" data-name="Group 3502" transform="translate(-114.999 -51)">
    <path id="Path_2330" data-name="Path 2330" d="M134,51l8,8V83H118V51Z" fill="#737373"/>
    <path id="Path_2331" data-name="Path 2331" d="M133,60V52H119V82h22V60Z" fill="#fff"/>
    <rect id="Rectangle_2624" data-name="Rectangle 2624" width="30" height="10" transform="translate(114.999 67)" fill="#7f7f0a"/>
    <path id="Path_2332" data-name="Path 2332" d="M124.315,72.776c0,.934-.355,1.192-.924,1.192a2.221,2.221,0,0,1-.695-.107l-.15,1.1a3.56,3.56,0,0,0,.987.142c1.317,0,2.135-.6,2.135-2.3V69h-1.353Zm4.317-3.817a11.124,11.124,0,0,0-1.833.125V75h1.344V72.856a3.37,3.37,0,0,0,.462.027,2.782,2.782,0,0,0,1.949-.632,1.918,1.918,0,0,0,.55-1.423,1.755,1.755,0,0,0-.639-1.388A2.881,2.881,0,0,0,128.632,68.959Zm-.035,2.883a2.041,2.041,0,0,1-.454-.036v-1.77a2.288,2.288,0,0,1,.56-.053c.676,0,1.059.329,1.059.88C129.762,71.477,129.316,71.842,128.6,71.842Zm6.149-.276v1.059h.925v1.254a1.955,1.955,0,1,1-.569-3.816,3.309,3.309,0,0,1,1.4.258l.285-1.086a4.138,4.138,0,0,0-1.664-.293c-1.966,0-3.416,1.139-3.425,3.131a2.9,2.9,0,0,0,.845,2.18,3.343,3.343,0,0,0,2.438.81,6.678,6.678,0,0,0,2-.339V71.566Z" fill="#fff"/>
  </g>
</svg>
