<svg xmlns="http://www.w3.org/2000/svg" width="30" height="32" viewBox="0 0 30 32">
  <g id="Group_3467" data-name="Group 3467" transform="translate(-330 -186)">
    <path id="Path_2225" data-name="Path 2225" d="M349,186l8,8v24H333V186Z" fill="#737373"/>
    <path id="Path_2226" data-name="Path 2226" d="M348,195v-8H334v30h22V195Z" fill="#fff"/>
    <rect id="Rectangle_2589" data-name="Rectangle 2589" width="30" height="10" transform="translate(330 202)" fill="#906"/>
    <path id="Path_2227" data-name="Path 2227" d="M340.242,204,339.6,206c-.2.667-.4,1.459-.569,2.152h-.027c-.133-.7-.321-1.449-.508-2.143l-.586-2h-1.807l-.382,6h1.255l.106-2.277c.045-.747.072-1.673.107-2.482h.018c.143.782.348,1.636.543,2.339l.641,2.322h1.058l.729-2.339c.232-.7.48-1.557.668-2.322h.027c0,.871.025,1.743.053,2.464l.088,2.295h1.326l-.328-6Zm5.785-.1a2.9,2.9,0,0,0-2.916,3.14,2.8,2.8,0,0,0,2.819,3.052,2.858,2.858,0,0,0,2.945-3.158A2.8,2.8,0,0,0,346.027,203.906ZM346,209.021c-.908,0-1.459-.827-1.459-2s.533-2.037,1.449-2.037c.936,0,1.451.925,1.451,2C347.443,208.149,346.918,209.021,346,209.021ZM353.281,204l-.763,2.562c-.206.685-.393,1.4-.543,2.118h-.028c-.142-.748-.33-1.433-.533-2.144l-.73-2.536H349.2l1.92,6H352.7l2.02-6Z" fill="#fff"/>
  </g>
</svg>
