<svg xmlns="http://www.w3.org/2000/svg" width="41.125" height="28.958" viewBox="0 0 41.125 28.958">
  <g id="Group_3591" data-name="Group 3591" transform="translate(-422.536 -316.758)">
    <path id="badge001_-_E2A5" data-name="badge001 - E2A5" d="M27.525,8.294H-5.327A4.141,4.141,0,0,1-9.464,4.157V-16.527a4.141,4.141,0,0,1,4.137-4.137H27.525a4.141,4.141,0,0,1,4.137,4.137V4.157A4.141,4.141,0,0,1,27.525,8.294ZM-5.327-19.082a2.571,2.571,0,0,0-2.555,2.555V4.157A2.571,2.571,0,0,0-5.327,6.712H27.525A2.571,2.571,0,0,0,30.08,4.157V-16.527a2.571,2.571,0,0,0-2.555-2.555ZM14.019,2.636H12.437A6.647,6.647,0,0,0,5.806-3.995,6.554,6.554,0,0,0,1.122-2.048,6.482,6.482,0,0,0-.825,2.636H-2.407A8.168,8.168,0,0,1,0-3.174,7.946,7.946,0,0,1,2.7-4.968,5.329,5.329,0,0,1,.513-9.288a5.22,5.22,0,0,1,1.551-3.741A5.169,5.169,0,0,1,5.806-14.58a5.272,5.272,0,0,1,3.741,1.551A5.22,5.22,0,0,1,11.1-9.288,5.356,5.356,0,0,1,8.878-4.968a8.066,8.066,0,0,1,2.738,1.795A8.168,8.168,0,0,1,14.019,2.636ZM5.806-13A3.728,3.728,0,0,0,3.16-11.9,3.629,3.629,0,0,0,2.095-9.288,3.706,3.706,0,0,0,5.806-5.577,3.726,3.726,0,0,0,9.517-9.288a3.657,3.657,0,0,0-1.1-2.616A3.71,3.71,0,0,0,5.806-13ZM26.247-8.5h-10.4v-1.582h10.4ZM23.114-3.326h-7.27V-4.907h7.27Z" transform="translate(432 337.422)" fill="#c00015"/>
  </g>
</svg>
