<svg xmlns="http://www.w3.org/2000/svg" width="31.382" height="38.547" viewBox="0 0 31.382 38.547">
  <path id="Path_2371" data-name="Path 2371" d="M756.123,526.355h-8.152v-4.777h-2.961c1.191-7.36,2.147-13.7,2.147-15.106a6.726,6.726,0,0,0-13.452,0c0,1.4.956,7.746,2.147,15.106h-2.959v4.777h-8.154v8.186h2.046v3.752h27.29v-3.752h2.046Zm-15.691-25.086a5.21,5.21,0,0,1,5.2,5.2c0,.656-.287,3.5-2.16,15.064H737.39c-1.875-11.566-2.162-14.408-2.162-15.064A5.211,5.211,0,0,1,740.432,501.269ZM734.417,523.1H746.45v3.1H734.417Zm18.138,13.671H728.311V534.7h24.244Zm2.046-3.752H726.263v-5.143H754.6Z" transform="translate(-724.741 -499.747)" fill="#3d9155"/>
</svg>
