<svg xmlns="http://www.w3.org/2000/svg" width="14.31" height="17.577" viewBox="0 0 14.31 17.577">
  <path id="Path_2029" data-name="Path 2029" d="M739.051,511.88h-3.717V509.7h-1.35c.543-3.356.979-6.249.979-6.888a3.067,3.067,0,0,0-6.134,0c0,.639.436,3.532.979,6.888h-1.349v2.178h-3.718v3.733h.933v1.711h12.444v-1.711h.933ZM731.9,500.441a2.376,2.376,0,0,1,2.373,2.373c0,.3-.131,1.6-.985,6.869h-2.775c-.855-5.274-.986-6.57-.986-6.869A2.376,2.376,0,0,1,731.9,500.441Zm-2.743,9.955h5.487v1.412h-5.487Zm8.271,6.234H726.369v-.945h11.055Zm.933-1.711H725.435v-2.345h12.922Z" transform="translate(-724.741 -499.747)" fill="#737373"/>
</svg>
