<svg xmlns="http://www.w3.org/2000/svg" width="31.43" height="38.16" viewBox="0 0 31.43 38.16">
  <path id="fingerprint001_-_E237" data-name="fingerprint001 - E237" d="M10.62-44.85a.8.8,0,0,1-.36-.09,22.1,22.1,0,0,0-4.89-1.92A22.886,22.886,0,0,0,0-47.52a22.886,22.886,0,0,0-5.37.66,21.534,21.534,0,0,0-4.89,1.92.755.755,0,0,1-1.05-.33.759.759,0,0,1,.3-1.05,21.91,21.91,0,0,1,5.25-2.04A23.133,23.133,0,0,1,0-49.08a23.133,23.133,0,0,1,5.76.72,22.409,22.409,0,0,1,5.25,2.04.785.785,0,0,1,.3,1.05A.8.8,0,0,1,10.62-44.85Zm4.32,9.78a.8.8,0,0,1-.66-.33,17.074,17.074,0,0,0-6.06-5.55,17.813,17.813,0,0,0-3.93-1.53A17.157,17.157,0,0,0,0-43.02a17.394,17.394,0,0,0-4.32.54,18.167,18.167,0,0,0-3.9,1.53,17.074,17.074,0,0,0-6.06,5.55.84.84,0,0,1-1.11.21.84.84,0,0,1-.21-1.11A18.79,18.79,0,0,1,0-44.58,18.737,18.737,0,0,1,15.57-36.3a.81.81,0,0,1-.21,1.11A.689.689,0,0,1,14.94-35.07ZM5.34-10.92a.876.876,0,0,1-.27-.06A14.95,14.95,0,0,1,.9-13.29a15.239,15.239,0,0,1-3.27-3.39A15.5,15.5,0,0,1-5.28-25.8,5.288,5.288,0,0,1,0-31.08,5.288,5.288,0,0,1,5.28-25.8,3.719,3.719,0,0,0,9-22.08a3.739,3.739,0,0,0,3.72-3.72,12.681,12.681,0,0,0-.99-4.95A12.858,12.858,0,0,0,9-34.8a13.207,13.207,0,0,0-4.05-2.73A12.681,12.681,0,0,0,0-38.52a12.681,12.681,0,0,0-4.95.99A12.858,12.858,0,0,0-9-34.8a12.858,12.858,0,0,0-2.73,4.05,12.681,12.681,0,0,0-.99,4.95,26.546,26.546,0,0,0,1.23,7.98.766.766,0,0,1-.51.96.774.774,0,0,1-.99-.51,27.491,27.491,0,0,1-1.29-8.43,14,14,0,0,1,1.11-5.55,14.685,14.685,0,0,1,3.06-4.56,14.685,14.685,0,0,1,4.56-3.06A14.543,14.543,0,0,1,0-40.08a14.657,14.657,0,0,1,5.55,1.11,14.214,14.214,0,0,1,4.53,3.06,14.183,14.183,0,0,1,3.06,4.56,14.026,14.026,0,0,1,1.14,5.55A5.288,5.288,0,0,1,9-20.52,5.288,5.288,0,0,1,3.72-25.8,3.739,3.739,0,0,0,0-29.52,3.719,3.719,0,0,0-3.72-25.8a14.094,14.094,0,0,0,2.61,8.22,14.986,14.986,0,0,0,2.94,3.06,14.851,14.851,0,0,0,3.75,2.07.769.769,0,0,1,.48.99A.794.794,0,0,1,5.34-10.92Zm-9.36-.51a.8.8,0,0,1-.6-.27A21.988,21.988,0,0,1-8.4-18.18,21.164,21.164,0,0,1-9.78-25.8a9.834,9.834,0,0,1,2.85-6.93A9.834,9.834,0,0,1,0-35.58a9.712,9.712,0,0,1,6.9,2.85A9.737,9.737,0,0,1,9.78-25.8a.794.794,0,0,1-.78.78.775.775,0,0,1-.78-.78,8.294,8.294,0,0,0-2.4-5.82A8.294,8.294,0,0,0,0-34.02a8.294,8.294,0,0,0-5.82,2.4,8.168,8.168,0,0,0-2.4,5.82,20.239,20.239,0,0,0,1.26,7.08,20.563,20.563,0,0,0,3.54,6,.8.8,0,0,1-.09,1.11A.815.815,0,0,1-4.02-11.43ZM9.6-15.42a10.385,10.385,0,0,1-4.05-.81,11.206,11.206,0,0,1-3.3-2.22,10.159,10.159,0,0,1-2.22-3.3A10.385,10.385,0,0,1-.78-25.8.775.775,0,0,1,0-26.58a.794.794,0,0,1,.78.78,8.709,8.709,0,0,0,2.58,6.24A8.781,8.781,0,0,0,9.6-16.98a.794.794,0,0,1,.78.78A.794.794,0,0,1,9.6-15.42Z" transform="translate(15.726 49.08)" fill="#3d9155"/>
</svg>
