share1<svg xmlns="http://www.w3.org/2000/svg" width="45.84" height="31.56" viewBox="0 0 45.84 31.56">
  <path id="cloud001_-_E009" data-name="cloud001 - E009" d="M16.47-33.03a10.643,10.643,0,0,0,.18-1.92A10.844,10.844,0,0,0,5.82-45.78a10.9,10.9,0,0,0-8.64,4.26A7.64,7.64,0,0,0-7.59-43.2a7.682,7.682,0,0,0-7.65,7.65,6.972,6.972,0,0,0,.3,2.1,9.727,9.727,0,0,0-7.98,9.57,9.679,9.679,0,0,0,9.69,9.66H13.26a9.692,9.692,0,0,0,9.66-9.66A9.692,9.692,0,0,0,16.47-33.03Zm-1.86,1.14a8.113,8.113,0,0,1,6.75,8.01,8.1,8.1,0,0,1-8.1,8.1H-13.23a8.13,8.13,0,0,1-8.13-8.1,8.164,8.164,0,0,1,8.88-8.13l-.15-.21a5.624,5.624,0,0,1-1.05-3.33,6.094,6.094,0,0,1,6.09-6.09A6.235,6.235,0,0,1-2.52-39a9.21,9.21,0,0,1,8.34-5.22,9.257,9.257,0,0,1,9.27,9.27A11.073,11.073,0,0,1,14.61-31.89Z" transform="translate(22.92 45.78)" fill="#3d9155"/>
</svg>
