<svg xmlns="http://www.w3.org/2000/svg" width="18.928" height="13.328" viewBox="0 0 18.928 13.328">
  <path id="badge001_-_E2A5" data-name="badge001 - E2A5" d="M7.56-7.336H-7.56a1.906,1.906,0,0,1-1.9-1.9v-9.52a1.906,1.906,0,0,1,1.9-1.9H7.56a1.906,1.906,0,0,1,1.9,1.9v9.52A1.906,1.906,0,0,1,7.56-7.336Zm-15.12-12.6A1.183,1.183,0,0,0-8.736-18.76v9.52A1.183,1.183,0,0,0-7.56-8.064H7.56A1.183,1.183,0,0,0,8.736-9.24v-9.52A1.183,1.183,0,0,0,7.56-19.936Zm8.9,10H.616A3.041,3.041,0,0,0-.28-12.1a3.041,3.041,0,0,0-2.156-.9,3.017,3.017,0,0,0-2.156.9,2.984,2.984,0,0,0-.9,2.156h-.728A3.76,3.76,0,0,1-5.11-12.614a3.657,3.657,0,0,1,1.246-.826,2.453,2.453,0,0,1-1.008-1.988,2.4,2.4,0,0,1,.714-1.722,2.379,2.379,0,0,1,1.722-.714,2.426,2.426,0,0,1,1.722.714A2.4,2.4,0,0,1,0-15.428,2.465,2.465,0,0,1-1.022-13.44a3.712,3.712,0,0,1,1.26.826A3.76,3.76,0,0,1,1.344-9.94Zm-3.78-7.2a1.716,1.716,0,0,0-1.218.5,1.67,1.67,0,0,0-.49,1.2A1.706,1.706,0,0,0-2.436-13.72,1.715,1.715,0,0,0-.728-15.428a1.683,1.683,0,0,0-.5-1.2A1.708,1.708,0,0,0-2.436-17.136Zm9.408,2.072H2.184v-.728H6.972ZM5.53-12.684H2.184v-.728H5.53Z" transform="translate(9.464 20.664)" fill="#737373"/>
</svg>
