<svg xmlns="http://www.w3.org/2000/svg" xmlns:xlink="http://www.w3.org/1999/xlink" width="698" height="544" viewBox="0 0 698 544">
  <defs>
    <linearGradient id="linear-gradient" x1="0.492" y1="1.21" x2="0.479" y2="-0.509" gradientUnits="objectBoundingBox">
      <stop offset="0" stop-color="#f1f2f2"/>
      <stop offset="1" stop-color="#fff"/>
    </linearGradient>
  </defs>
  <g id="Group_3604" data-name="Group 3604" transform="translate(-960 -103)">
    <rect id="Rectangle_2388" data-name="Rectangle 2388" width="698" height="544" transform="translate(960 103)" fill="url(#linear-gradient)"/>
    <text id="Authorize_MainStay.xyz_with_your_Google_Drive_DropBox_or_OneDrive." data-name="Authorize MainStay.xyz 
with your Google Drive, 
DropBox or OneDrive." transform="translate(1081 287)" fill="#1c1c1c" font-size="16" font-family="IBMPlexSans-SemiBold, IBM Plex Sans" font-weight="600"><tspan x="0" y="0">Authorize</tspan><tspan y="0" font-family="IBMPlexSans, IBM Plex Sans" font-weight="400"> </tspan><tspan y="0">MainStay.xyz</tspan><tspan y="0" font-family="IBMPlexSans, IBM Plex Sans" font-weight="400"> </tspan><tspan font-family="IBMPlexSans, IBM Plex Sans" font-weight="400"><tspan x="0" y="20">with your Google Drive, </tspan><tspan x="0" y="40">DropBox or OneDrive.</tspan></tspan></text>
    <text id="Upload_the_files_to_the_newly_created_MainStay_folder_in_your_cloud_service." data-name="Upload the files to the 
newly created /MainStay 
folder in your cloud service." transform="translate(1374 288)" fill="#1c1c1c" font-size="16" font-family="IBMPlexSans-SemiBold, IBM Plex Sans" font-weight="600"><tspan x="0" y="0">Upload the files</tspan><tspan y="0" xml:space="preserve" font-family="IBMPlexSans, IBM Plex Sans" font-weight="400"> to the </tspan><tspan font-family="IBMPlexSans, IBM Plex Sans" font-weight="400"><tspan x="0" y="20">newly created </tspan><tspan y="20" font-family="IBMPlexSans-SemiBold, IBM Plex Sans" font-weight="600">/MainStay </tspan></tspan><tspan x="0" y="40">folder</tspan><tspan y="40" xml:space="preserve" font-family="IBMPlexSans, IBM Plex Sans" font-weight="400"> in your cloud service.</tspan></text>
    <text id="Select_the_files_in_MainStay.xyz_to_attest_them_and_obtain_a_proof._" data-name="Select the files in MainStay.xyz to attest them and obtain a proof. " transform="translate(1081 467)" fill="#1c1c1c" font-size="16" font-family="IBMPlexSans-SemiBold, IBM Plex Sans" font-weight="600"><tspan x="0" y="16">Select the files</tspan><tspan y="16" font-family="IBMPlexSans, IBM Plex Sans" font-weight="400"> </tspan><tspan y="16">in </tspan><tspan x="0" y="36">MainStay.xyz </tspan><tspan y="36" font-family="IBMPlexSans, IBM Plex Sans" font-weight="400">to attest </tspan><tspan x="0" y="56" font-family="IBMPlexSans, IBM Plex Sans" font-weight="400">them and obtain a proof. </tspan></text>
    <text id="Share_the_attested_files_with_3rd_parties._Any_recipient_can_use_the_MainStay.xyz_service_with_their_cloud_to_verify_them." data-name="Share the attested files with 3rd parties. Any recipient can use the MainStay.xyz service 
with their cloud to verify them." transform="translate(1374 471)" fill="#1c1c1c" font-size="16" font-family="IBMPlexSans-SemiBold, IBM Plex Sans" font-weight="600"><tspan x="0" y="16">Share the attested files</tspan><tspan y="16" xml:space="preserve" font-family="IBMPlexSans, IBM Plex Sans" font-weight="400"> with </tspan><tspan x="0" y="36" font-family="IBMPlexSans, IBM Plex Sans" font-weight="400">3rd parties. Any recipient can </tspan><tspan x="0" y="56" font-family="IBMPlexSans, IBM Plex Sans" font-weight="400">use the MainStay.xyz service </tspan><tspan font-family="IBMPlexSans, IBM Plex Sans" font-weight="400"><tspan x="0" y="76">with their cloud to verify them.</tspan></tspan></text>
    <path id="cloud001_-_E009" data-name="cloud001 - E009" d="M16.47-33.03a10.643,10.643,0,0,0,.18-1.92A10.844,10.844,0,0,0,5.82-45.78a10.9,10.9,0,0,0-8.64,4.26A7.64,7.64,0,0,0-7.59-43.2a7.682,7.682,0,0,0-7.65,7.65,6.972,6.972,0,0,0,.3,2.1,9.727,9.727,0,0,0-7.98,9.57,9.679,9.679,0,0,0,9.69,9.66H13.26a9.692,9.692,0,0,0,9.66-9.66A9.692,9.692,0,0,0,16.47-33.03Zm-1.86,1.14a8.113,8.113,0,0,1,6.75,8.01,8.1,8.1,0,0,1-8.1,8.1H-13.23a8.13,8.13,0,0,1-8.13-8.1,8.164,8.164,0,0,1,8.88-8.13l-.15-.21a5.624,5.624,0,0,1-1.05-3.33,6.094,6.094,0,0,1,6.09-6.09A6.235,6.235,0,0,1-2.52-39a9.21,9.21,0,0,1,8.34-5.22,9.257,9.257,0,0,1,9.27,9.27A11.073,11.073,0,0,1,14.61-31.89Z" transform="translate(1180 255.5)" fill="#3d9155"/>
    <path id="cloud001_-_E009-2" data-name="cloud001 - E009" d="M16.47-33.03a10.643,10.643,0,0,0,.18-1.92A10.844,10.844,0,0,0,5.82-45.78a10.9,10.9,0,0,0-8.64,4.26A7.64,7.64,0,0,0-7.59-43.2a7.682,7.682,0,0,0-7.65,7.65,6.972,6.972,0,0,0,.3,2.1,9.727,9.727,0,0,0-7.98,9.57,9.679,9.679,0,0,0,9.69,9.66H13.26a9.692,9.692,0,0,0,9.66-9.66A9.692,9.692,0,0,0,16.47-33.03Zm-1.86,1.14a8.113,8.113,0,0,1,6.75,8.01,8.1,8.1,0,0,1-8.1,8.1H-13.23a8.13,8.13,0,0,1-8.13-8.1,8.164,8.164,0,0,1,8.88-8.13l-.15-.21a5.624,5.624,0,0,1-1.05-3.33,6.094,6.094,0,0,1,6.09-6.09A6.235,6.235,0,0,1-2.52-39a9.21,9.21,0,0,1,8.34-5.22,9.257,9.257,0,0,1,9.27,9.27A11.073,11.073,0,0,1,14.61-31.89Z" transform="translate(1495 259.5)" fill="#3d9155"/>
    <path id="fingerprint001_-_E237" data-name="fingerprint001 - E237" d="M10.62-44.85a.8.8,0,0,1-.36-.09,22.1,22.1,0,0,0-4.89-1.92A22.886,22.886,0,0,0,0-47.52a22.886,22.886,0,0,0-5.37.66,21.534,21.534,0,0,0-4.89,1.92.755.755,0,0,1-1.05-.33.759.759,0,0,1,.3-1.05,21.91,21.91,0,0,1,5.25-2.04A23.133,23.133,0,0,1,0-49.08a23.133,23.133,0,0,1,5.76.72,22.409,22.409,0,0,1,5.25,2.04.785.785,0,0,1,.3,1.05A.8.8,0,0,1,10.62-44.85Zm4.32,9.78a.8.8,0,0,1-.66-.33,17.074,17.074,0,0,0-6.06-5.55,17.813,17.813,0,0,0-3.93-1.53A17.157,17.157,0,0,0,0-43.02a17.394,17.394,0,0,0-4.32.54,18.167,18.167,0,0,0-3.9,1.53,17.074,17.074,0,0,0-6.06,5.55.84.84,0,0,1-1.11.21.84.84,0,0,1-.21-1.11A18.79,18.79,0,0,1,0-44.58,18.737,18.737,0,0,1,15.57-36.3a.81.81,0,0,1-.21,1.11A.689.689,0,0,1,14.94-35.07ZM5.34-10.92a.876.876,0,0,1-.27-.06A14.95,14.95,0,0,1,.9-13.29a15.239,15.239,0,0,1-3.27-3.39A15.5,15.5,0,0,1-5.28-25.8,5.288,5.288,0,0,1,0-31.08,5.288,5.288,0,0,1,5.28-25.8,3.719,3.719,0,0,0,9-22.08a3.739,3.739,0,0,0,3.72-3.72,12.681,12.681,0,0,0-.99-4.95A12.858,12.858,0,0,0,9-34.8a13.207,13.207,0,0,0-4.05-2.73A12.681,12.681,0,0,0,0-38.52a12.681,12.681,0,0,0-4.95.99A12.858,12.858,0,0,0-9-34.8a12.858,12.858,0,0,0-2.73,4.05,12.681,12.681,0,0,0-.99,4.95,26.546,26.546,0,0,0,1.23,7.98.766.766,0,0,1-.51.96.774.774,0,0,1-.99-.51,27.491,27.491,0,0,1-1.29-8.43,14,14,0,0,1,1.11-5.55,14.685,14.685,0,0,1,3.06-4.56,14.685,14.685,0,0,1,4.56-3.06A14.543,14.543,0,0,1,0-40.08a14.657,14.657,0,0,1,5.55,1.11,14.214,14.214,0,0,1,4.53,3.06,14.183,14.183,0,0,1,3.06,4.56,14.026,14.026,0,0,1,1.14,5.55A5.288,5.288,0,0,1,9-20.52,5.288,5.288,0,0,1,3.72-25.8,3.739,3.739,0,0,0,0-29.52,3.719,3.719,0,0,0-3.72-25.8a14.094,14.094,0,0,0,2.61,8.22,14.986,14.986,0,0,0,2.94,3.06,14.851,14.851,0,0,0,3.75,2.07.769.769,0,0,1,.48.99A.794.794,0,0,1,5.34-10.92Zm-9.36-.51a.8.8,0,0,1-.6-.27A21.988,21.988,0,0,1-8.4-18.18,21.164,21.164,0,0,1-9.78-25.8a9.834,9.834,0,0,1,2.85-6.93A9.834,9.834,0,0,1,0-35.58a9.712,9.712,0,0,1,6.9,2.85A9.737,9.737,0,0,1,9.78-25.8a.794.794,0,0,1-.78.78.775.775,0,0,1-.78-.78,8.294,8.294,0,0,0-2.4-5.82A8.294,8.294,0,0,0,0-34.02a8.294,8.294,0,0,0-5.82,2.4,8.168,8.168,0,0,0-2.4,5.82,20.239,20.239,0,0,0,1.26,7.08,20.563,20.563,0,0,0,3.54,6,.8.8,0,0,1-.09,1.11A.815.815,0,0,1-4.02-11.43ZM9.6-15.42a10.385,10.385,0,0,1-4.05-.81,11.206,11.206,0,0,1-3.3-2.22,10.159,10.159,0,0,1-2.22-3.3A10.385,10.385,0,0,1-.78-25.8.775.775,0,0,1,0-26.58a.794.794,0,0,1,.78.78,8.709,8.709,0,0,0,2.58,6.24A8.781,8.781,0,0,0,9.6-16.98a.794.794,0,0,1,.78.78A.794.794,0,0,1,9.6-15.42Z" transform="translate(1128 257.5)" fill="#3d9155"/>
    <path id="right105_-_E68B" data-name="right105 - E68B" d="M15.51-37.83l-1.08,1.08,5.94,5.97H8.19v-15H-23.37v31.56H8.19v-15H20.37l-5.94,5.97,1.08,1.08L23.37-30ZM6.63-15.78H-21.81V-44.22H6.63v13.44H-7.59v1.56H6.63Z" transform="translate(1495 449.5)" fill="#3d9155"/>
    <path id="list001_-_E0BA" data-name="list001 - E0BA" d="M-17.22-38.04a1.549,1.549,0,0,1-1.56-1.56,1.549,1.549,0,0,1,1.56-1.56,1.549,1.549,0,0,1,1.56,1.56A1.549,1.549,0,0,1-17.22-38.04Zm36-.78h-30v-1.56h30Zm-36,10.38A1.549,1.549,0,0,1-18.78-30a1.549,1.549,0,0,1,1.56-1.56A1.549,1.549,0,0,1-15.66-30,1.549,1.549,0,0,1-17.22-28.44Zm36-.78h-30v-1.56h30Zm-36,10.38a1.549,1.549,0,0,1-1.56-1.56,1.549,1.549,0,0,1,1.56-1.56,1.549,1.549,0,0,1,1.56,1.56A1.549,1.549,0,0,1-17.22-18.84Zm36-.78h-30v-1.56h30Z" transform="translate(1130 449.5)" fill="#3d9155"/>
    <g id="Group_3584" data-name="Group 3584" transform="translate(771.963 40.889)">
      <path id="Path_2024" data-name="Path 2024" d="M668.9,396.11H652.6V361.672h11.94v12.749h12.749v6.848h1.56v-7.957l-13.2-13.2H651.037V397.67H668.9ZM666.1,362.781l10.08,10.08H666.1Z" fill="#3d9155"/>
      <path id="Path_2025" data-name="Path 2025" d="M680.237,393.2c.251-2.239.691-6.182.691-6.217a2.979,2.979,0,0,0-5.935,0c0,.036.436,3.984.683,6.217H671.9v4.453h1.79v1.317h8.529v-1.317h1.8V393.2Zm-2.276-7.368a1.312,1.312,0,0,1,1.4,1.09c-.057.533-.375,3.381-.692,6.211h-1.422c-.229-2.074-.619-5.61-.682-6.21A1.311,1.311,0,0,1,677.961,385.836Zm4.558,10.321h-1.8v1.317h-5.529v-1.317H673.4V394.7h9.117Z" fill="#3d9155"/>
    </g>
    <g id="Path_2378" data-name="Path 2378" transform="translate(1009 276)" fill="#31c25a" opacity="0.201">
      <path d="M 26 51.5 C 22.55730056762695 51.5 19.21784973144531 50.82585144042969 16.07439994812012 49.49628829956055 C 13.03794002532959 48.21197128295898 10.31081962585449 46.37326049804688 7.968780040740967 44.03121948242188 C 5.626739978790283 41.68917846679688 3.788029909133911 38.96205902099609 2.503710031509399 35.92559814453125 C 1.174149990081787 32.78215026855469 0.5 29.44269943237305 0.5 26 C 0.5 22.55730056762695 1.174149990081787 19.21784973144531 2.503710031509399 16.07439994812012 C 3.788029909133911 13.03794002532959 5.626739978790283 10.31081962585449 7.968780040740967 7.968780040740967 C 10.31081962585449 5.626739978790283 13.03794002532959 3.788029909133911 16.07439994812012 2.503710031509399 C 19.21784973144531 1.174149990081787 22.55730056762695 0.5 26 0.5 C 29.44269943237305 0.5 32.78215026855469 1.174149990081787 35.92559814453125 2.503710031509399 C 38.96205902099609 3.788029909133911 41.68917846679688 5.626739978790283 44.03121948242188 7.968780040740967 C 46.37326049804688 10.31081962585449 48.21197128295898 13.03794002532959 49.49628829956055 16.07439994812012 C 50.82585144042969 19.21784973144531 51.5 22.55730056762695 51.5 26 C 51.5 29.44269943237305 50.82585144042969 32.78215026855469 49.49628829956055 35.92559814453125 C 48.21197128295898 38.96205902099609 46.37326049804688 41.68917846679688 44.03121948242188 44.03121948242188 C 41.68917846679688 46.37326049804688 38.96205902099609 48.21197128295898 35.92559814453125 49.49628829956055 C 32.78215026855469 50.82585144042969 29.44269943237305 51.5 26 51.5 Z" stroke="none"/>
      <path d="M 26 1 C 22.62458038330078 1 19.35065841674805 1.660858154296875 16.26918029785156 2.964210510253906 C 13.29232025146484 4.223320007324219 10.61861038208008 6.026050567626953 8.322330474853516 8.322330474853516 C 6.026050567626953 10.61861038208008 4.223320007324219 13.29232025146484 2.964210510253906 16.26918029785156 C 1.660858154296875 19.35065841674805 1 22.62458038330078 1 26 C 1 29.37541961669922 1.660858154296875 32.64933776855469 2.964210510253906 35.73081970214844 C 4.223320007324219 38.70767974853516 6.026050567626953 41.38138961791992 8.322330474853516 43.67766952514648 C 10.61861038208008 45.97394943237305 13.29232025146484 47.77667999267578 16.26918029785156 49.03578948974609 C 19.35065841674805 50.33914184570312 22.62458038330078 51 26 51 C 29.37541961669922 51 32.64933776855469 50.33914184570312 35.73081970214844 49.03578948974609 C 38.70767974853516 47.77667999267578 41.38138961791992 45.97394943237305 43.67766952514648 43.67766952514648 C 45.97394943237305 41.38138961791992 47.77667999267578 38.70767974853516 49.03578948974609 35.73081970214844 C 50.33914184570312 32.64933776855469 51 29.37541961669922 51 26 C 51 22.62458038330078 50.33914184570312 19.35065841674805 49.03578948974609 16.26918029785156 C 47.77667999267578 13.29232025146484 45.97394943237305 10.61861038208008 43.67766952514648 8.322330474853516 C 41.38138961791992 6.026050567626953 38.70767974853516 4.223320007324219 35.73081970214844 2.964210510253906 C 32.64933776855469 1.660858154296875 29.37541961669922 1 26 1 M 26 0 C 40.35939788818359 0 52 11.64059829711914 52 26 C 52 40.35939788818359 40.35939788818359 52 26 52 C 11.64059829711914 52 0 40.35939788818359 0 26 C 0 11.64059829711914 11.64059829711914 0 26 0 Z" stroke="none" fill="#31c25a"/>
    </g>
    <g id="Path_2380" data-name="Path 2380" transform="translate(1009 468)" fill="#31c25a" opacity="0.201">
      <path d="M 26 51.5 C 22.55730056762695 51.5 19.21784973144531 50.82585144042969 16.07439994812012 49.49628829956055 C 13.03794002532959 48.21197128295898 10.31081962585449 46.37326049804688 7.968780040740967 44.03121948242188 C 5.626739978790283 41.68917846679688 3.788029909133911 38.96205902099609 2.503710031509399 35.92559814453125 C 1.174149990081787 32.78215026855469 0.5 29.44269943237305 0.5 26 C 0.5 22.55730056762695 1.174149990081787 19.21784973144531 2.503710031509399 16.07439994812012 C 3.788029909133911 13.03794002532959 5.626739978790283 10.31081962585449 7.968780040740967 7.968780040740967 C 10.31081962585449 5.626739978790283 13.03794002532959 3.788029909133911 16.07439994812012 2.503710031509399 C 19.21784973144531 1.174149990081787 22.55730056762695 0.5 26 0.5 C 29.44269943237305 0.5 32.78215026855469 1.174149990081787 35.92559814453125 2.503710031509399 C 38.96205902099609 3.788029909133911 41.68917846679688 5.626739978790283 44.03121948242188 7.968780040740967 C 46.37326049804688 10.31081962585449 48.21197128295898 13.03794002532959 49.49628829956055 16.07439994812012 C 50.82585144042969 19.21784973144531 51.5 22.55730056762695 51.5 26 C 51.5 29.44269943237305 50.82585144042969 32.78215026855469 49.49628829956055 35.92559814453125 C 48.21197128295898 38.96205902099609 46.37326049804688 41.68917846679688 44.03121948242188 44.03121948242188 C 41.68917846679688 46.37326049804688 38.96205902099609 48.21197128295898 35.92559814453125 49.49628829956055 C 32.78215026855469 50.82585144042969 29.44269943237305 51.5 26 51.5 Z" stroke="none"/>
      <path d="M 26 1 C 22.62458038330078 1 19.35065841674805 1.660858154296875 16.26918029785156 2.964210510253906 C 13.29232025146484 4.223320007324219 10.61861038208008 6.026050567626953 8.322330474853516 8.322330474853516 C 6.026050567626953 10.61861038208008 4.223320007324219 13.29232025146484 2.964210510253906 16.26918029785156 C 1.660858154296875 19.35065841674805 1 22.62458038330078 1 26 C 1 29.37541961669922 1.660858154296875 32.64933776855469 2.964210510253906 35.73081970214844 C 4.223320007324219 38.70767974853516 6.026050567626953 41.38138961791992 8.322330474853516 43.67766952514648 C 10.61861038208008 45.97394943237305 13.29232025146484 47.77667999267578 16.26918029785156 49.03578948974609 C 19.35065841674805 50.33914184570312 22.62458038330078 51 26 51 C 29.37541961669922 51 32.64933776855469 50.33914184570312 35.73081970214844 49.03578948974609 C 38.70767974853516 47.77667999267578 41.38138961791992 45.97394943237305 43.67766952514648 43.67766952514648 C 45.97394943237305 41.38138961791992 47.77667999267578 38.70767974853516 49.03578948974609 35.73081970214844 C 50.33914184570312 32.64933776855469 51 29.37541961669922 51 26 C 51 22.62458038330078 50.33914184570312 19.35065841674805 49.03578948974609 16.26918029785156 C 47.77667999267578 13.29232025146484 45.97394943237305 10.61861038208008 43.67766952514648 8.322330474853516 C 41.38138961791992 6.026050567626953 38.70767974853516 4.223320007324219 35.73081970214844 2.964210510253906 C 32.64933776855469 1.660858154296875 29.37541961669922 1 26 1 M 26 0 C 40.35939788818359 0 52 11.64059829711914 52 26 C 52 40.35939788818359 40.35939788818359 52 26 52 C 11.64059829711914 52 0 40.35939788818359 0 26 C 0 11.64059829711914 11.64059829711914 0 26 0 Z" stroke="none" fill="#31c25a"/>
    </g>
    <g id="Path_2383" data-name="Path 2383" transform="translate(1302 468)" fill="#31c25a" opacity="0.201">
      <path d="M 26 51.5 C 22.55730056762695 51.5 19.21784973144531 50.82585144042969 16.07439994812012 49.49628829956055 C 13.03794002532959 48.21197128295898 10.31081962585449 46.37326049804688 7.968780040740967 44.03121948242188 C 5.626739978790283 41.68917846679688 3.788029909133911 38.96205902099609 2.503710031509399 35.92559814453125 C 1.174149990081787 32.78215026855469 0.5 29.44269943237305 0.5 26 C 0.5 22.55730056762695 1.174149990081787 19.21784973144531 2.503710031509399 16.07439994812012 C 3.788029909133911 13.03794002532959 5.626739978790283 10.31081962585449 7.968780040740967 7.968780040740967 C 10.31081962585449 5.626739978790283 13.03794002532959 3.788029909133911 16.07439994812012 2.503710031509399 C 19.21784973144531 1.174149990081787 22.55730056762695 0.5 26 0.5 C 29.44269943237305 0.5 32.78215026855469 1.174149990081787 35.92559814453125 2.503710031509399 C 38.96205902099609 3.788029909133911 41.68917846679688 5.626739978790283 44.03121948242188 7.968780040740967 C 46.37326049804688 10.31081962585449 48.21197128295898 13.03794002532959 49.49628829956055 16.07439994812012 C 50.82585144042969 19.21784973144531 51.5 22.55730056762695 51.5 26 C 51.5 29.44269943237305 50.82585144042969 32.78215026855469 49.49628829956055 35.92559814453125 C 48.21197128295898 38.96205902099609 46.37326049804688 41.68917846679688 44.03121948242188 44.03121948242188 C 41.68917846679688 46.37326049804688 38.96205902099609 48.21197128295898 35.92559814453125 49.49628829956055 C 32.78215026855469 50.82585144042969 29.44269943237305 51.5 26 51.5 Z" stroke="none"/>
      <path d="M 26 1 C 22.62458038330078 1 19.35065841674805 1.660858154296875 16.26918029785156 2.964210510253906 C 13.29232025146484 4.223320007324219 10.61861038208008 6.026050567626953 8.322330474853516 8.322330474853516 C 6.026050567626953 10.61861038208008 4.223320007324219 13.29232025146484 2.964210510253906 16.26918029785156 C 1.660858154296875 19.35065841674805 1 22.62458038330078 1 26 C 1 29.37541961669922 1.660858154296875 32.64933776855469 2.964210510253906 35.73081970214844 C 4.223320007324219 38.70767974853516 6.026050567626953 41.38138961791992 8.322330474853516 43.67766952514648 C 10.61861038208008 45.97394943237305 13.29232025146484 47.77667999267578 16.26918029785156 49.03578948974609 C 19.35065841674805 50.33914184570312 22.62458038330078 51 26 51 C 29.37541961669922 51 32.64933776855469 50.33914184570312 35.73081970214844 49.03578948974609 C 38.70767974853516 47.77667999267578 41.38138961791992 45.97394943237305 43.67766952514648 43.67766952514648 C 45.97394943237305 41.38138961791992 47.77667999267578 38.70767974853516 49.03578948974609 35.73081970214844 C 50.33914184570312 32.64933776855469 51 29.37541961669922 51 26 C 51 22.62458038330078 50.33914184570312 19.35065841674805 49.03578948974609 16.26918029785156 C 47.77667999267578 13.29232025146484 45.97394943237305 10.61861038208008 43.67766952514648 8.322330474853516 C 41.38138961791992 6.026050567626953 38.70767974853516 4.223320007324219 35.73081970214844 2.964210510253906 C 32.64933776855469 1.660858154296875 29.37541961669922 1 26 1 M 26 0 C 40.35939788818359 0 52 11.64059829711914 52 26 C 52 40.35939788818359 40.35939788818359 52 26 52 C 11.64059829711914 52 0 40.35939788818359 0 26 C 0 11.64059829711914 11.64059829711914 0 26 0 Z" stroke="none" fill="#31c25a"/>
    </g>
    <g id="Ellipse_48" data-name="Ellipse 48" transform="translate(1302 275)" fill="#31c25a" stroke="#31c25a" stroke-width="1" opacity="0.201">
      <circle cx="26" cy="26" r="26" stroke="none"/>
      <circle cx="26" cy="26" r="25.5" fill="none"/>
    </g>
    <path id="Path_2379" data-name="Path 2379" d="M-10.44,0V-2.22h5.85V-19.08H-4.8l-5.28,4.92-1.47-1.59L-6-20.94h3.93V-2.22h5.4V0ZM9,.36A1.8,1.8,0,0,1,7.605-.12,1.8,1.8,0,0,1,7.17-1.38v-.39a1.8,1.8,0,0,1,.435-1.26A1.8,1.8,0,0,1,9-3.51a1.8,1.8,0,0,1,1.4.48,1.8,1.8,0,0,1,.435,1.26v.39A1.8,1.8,0,0,1,10.4-.12,1.8,1.8,0,0,1,9,.36Z" transform="translate(1038 313)" fill="#3d9155"/>
    <path id="Path_2381" data-name="Path 2381" d="M-5.25-12.06a4.592,4.592,0,0,0,3.2-.975A3.243,3.243,0,0,0-.99-15.54v-.21a2.974,2.974,0,0,0-1.035-2.475A4.226,4.226,0,0,0-4.74-19.05a4.548,4.548,0,0,0-2.64.7A5.471,5.471,0,0,0-9.06-16.44l-1.86-1.44a8.705,8.705,0,0,1,.945-1.245,6.37,6.37,0,0,1,1.305-1.1A6.95,6.95,0,0,1-6.93-21a7.758,7.758,0,0,1,2.25-.3,8.762,8.762,0,0,1,2.49.345,5.94,5.94,0,0,1,2.025,1.02,4.866,4.866,0,0,1,1.35,1.665,4.963,4.963,0,0,1,.5,2.25,5.017,5.017,0,0,1-.315,1.83A4.549,4.549,0,0,1,.51-12.78,5.113,5.113,0,0,1-.765-11.76a6.178,6.178,0,0,1-1.575.63v.12A6.67,6.67,0,0,1-.7-10.425a5.189,5.189,0,0,1,1.41,1.05,4.954,4.954,0,0,1,.99,1.56A5.459,5.459,0,0,1,2.07-5.73a5.924,5.924,0,0,1-.51,2.475A5.46,5.46,0,0,1,.12-1.335,6.792,6.792,0,0,1-2.13-.09,8.972,8.972,0,0,1-5.04.36a8.751,8.751,0,0,1-2.4-.3A7.165,7.165,0,0,1-9.3-.75a7.75,7.75,0,0,1-1.425-1.14A10.358,10.358,0,0,1-11.82-3.21l1.89-1.44a7.706,7.706,0,0,0,.855,1.14,5.034,5.034,0,0,0,1.035.87,4.7,4.7,0,0,0,1.29.555,6.462,6.462,0,0,0,1.68.2,4.941,4.941,0,0,0,3.36-1A3.617,3.617,0,0,0-.57-5.76V-6A3.617,3.617,0,0,0-1.71-8.865a4.941,4.941,0,0,0-3.36-1H-7.53v-2.19ZM9,.36A1.8,1.8,0,0,1,7.605-.12,1.8,1.8,0,0,1,7.17-1.38v-.39a1.8,1.8,0,0,1,.435-1.26A1.8,1.8,0,0,1,9-3.51a1.8,1.8,0,0,1,1.4.48,1.8,1.8,0,0,1,.435,1.26v.39A1.8,1.8,0,0,1,10.4-.12,1.8,1.8,0,0,1,9,.36Z" transform="translate(1038 505)" fill="#3d9155"/>
    <path id="Path_2384" data-name="Path 2384" d="M-1.83,0V-4.11H-11.94V-6.33l8.76-14.61H.57V-6.21H3.6v2.1H.57V0ZM-9.57-6.21h7.74V-18.99h-.15ZM9,.36A1.8,1.8,0,0,1,7.605-.12,1.8,1.8,0,0,1,7.17-1.38v-.39a1.8,1.8,0,0,1,.435-1.26A1.8,1.8,0,0,1,9-3.51a1.8,1.8,0,0,1,1.4.48,1.8,1.8,0,0,1,.435,1.26v.39A1.8,1.8,0,0,1,10.4-.12,1.8,1.8,0,0,1,9,.36Z" transform="translate(1331 505)" fill="#3d9155"/>
    <path id="Path_2382" data-name="Path 2382" d="M2.91,0H-10.83V-2.58l6.84-6.3a15.166,15.166,0,0,0,2.46-2.865A5.525,5.525,0,0,0-.54-14.79v-.36a4.086,4.086,0,0,0-.96-2.82,3.694,3.694,0,0,0-2.91-1.08,4.775,4.775,0,0,0-1.68.27,3.8,3.8,0,0,0-1.245.75A4.186,4.186,0,0,0-8.2-16.9,6.88,6.88,0,0,0-8.76-15.51l-2.25-.87a8.921,8.921,0,0,1,.825-1.815,6.4,6.4,0,0,1,1.32-1.575,6.208,6.208,0,0,1,1.92-1.11A7.587,7.587,0,0,1-4.29-21.3a7.738,7.738,0,0,1,2.73.45A5.553,5.553,0,0,1,.45-19.59,5.538,5.538,0,0,1,1.7-17.67a6.689,6.689,0,0,1,.435,2.46,7.264,7.264,0,0,1-.345,2.28,8.882,8.882,0,0,1-.945,2A12.123,12.123,0,0,1-.615-9.09q-.855.9-1.845,1.8L-8.1-2.22H2.91ZM9,.36A1.8,1.8,0,0,1,7.605-.12,1.8,1.8,0,0,1,7.17-1.38v-.39a1.8,1.8,0,0,1,.435-1.26A1.8,1.8,0,0,1,9-3.51a1.8,1.8,0,0,1,1.4.48,1.8,1.8,0,0,1,.435,1.26v.39A1.8,1.8,0,0,1,10.4-.12,1.8,1.8,0,0,1,9,.36Z" transform="translate(1331 312)" fill="#3d9155"/>
    <path id="Path_2371" data-name="Path 2371" d="M756.123,526.355h-8.152v-4.777h-2.961c1.191-7.36,2.147-13.7,2.147-15.106a6.726,6.726,0,0,0-13.452,0c0,1.4.956,7.746,2.147,15.106h-2.959v4.777h-8.154v8.186h2.046v3.752h27.29v-3.752h2.046Zm-15.691-25.086a5.21,5.21,0,0,1,5.2,5.2c0,.656-.287,3.5-2.16,15.064H737.39c-1.875-11.566-2.162-14.408-2.162-15.064A5.211,5.211,0,0,1,740.432,501.269ZM734.417,523.1H746.45v3.1H734.417Zm18.138,13.671H728.311V534.7h24.244Zm2.046-3.752H726.263v-5.143H754.6Z" transform="translate(444.73 -98.524)" fill="#3d9155"/>
    <path id="Path_2372" data-name="Path 2372" d="M678.846,396.11H652.6V361.672h11.94v12.749h12.749V397.67h1.56V373.312l-13.2-13.2H651.037V397.67h27.809ZM666.1,362.781l10.08,10.08H666.1Z" transform="translate(772.963 -149.111)" fill="#3d9155"/>
  </g>
</svg>
