<svg xmlns="http://www.w3.org/2000/svg" width="130.948" height="29.997" viewBox="0 0 130.948 29.997">
  <g id="mainstay_-_primary_-_positive" data-name="mainstay - primary - positive" transform="translate(-50 -50)">
    <path id="Path_204" data-name="Path 204" d="M194.164,85c0-2.677.043-5.676.113-7.45h-.11c-.738,3.2-2.307,8.425-3.813,13.334H187.47c-1.154-4.292-2.769-10.245-3.461-13.377h-.124c.133,1.84.2,5.068.2,7.759v5.619H181V75.2h5.053c1.226,4.1,2.6,9.23,3.072,11.575h.023c.387-2.059,2.111-7.557,3.421-11.575h4.872V90.885h-3.277Z" transform="translate(-93.215 -17.931)" fill="#1c1c1c"/>
    <path id="Path_205" data-name="Path 205" d="M254.859,96.784a26.2,26.2,0,0,0,.162,3.043H251.9a4.923,4.923,0,0,1-.164-1.154c-.427.663-1.229,1.425-3.317,1.425-2.841,0-4.038-1.866-4.038-3.692,0-2.682,2.157-3.92,5.613-3.92h1.684v-.721c0-.836-.3-1.661-1.817-1.661-1.376,0-1.679.577-1.829,1.442h-3.109c.179-2.094,1.474-3.787,5.059-3.767,3.158.02,4.877,1.252,4.877,4.055Zm-3.173-2.307h-1.33c-1.967,0-2.7.6-2.7,1.731a1.507,1.507,0,0,0,1.7,1.572c2.077,0,2.331-1.442,2.331-3Z" transform="translate(-138.314 -26.883)" fill="#1c1c1c"/>
    <path id="Path_206" data-name="Path 206" d="M288.24,72h3.265v2.907H288.24Zm0,4.831h3.265V88.608H288.24Z" transform="translate(-169.524 -15.654)" fill="#1c1c1c"/>
    <path id="Path_207" data-name="Path 207" d="M306.943,91.009c0-1,0-2.1-.023-2.965h3.173a13.679,13.679,0,0,1,.127,1.5,3.6,3.6,0,0,1,3.421-1.774c2.368,0,3.908,1.6,3.908,4.557v7.5h-3.274V92.7c0-1.324-.441-2.284-1.883-2.284-1.387,0-2.181.77-2.181,2.85v6.565h-3.268Z" transform="translate(-182.816 -26.876)" fill="#1c1c1c"/>
    <path id="Path_208" data-name="Path 208" d="M352.144,85.725c.358,1.575,1.488,2.264,3.305,2.264s2.6-.715,2.6-1.863c0-1.278-.759-1.832-3.444-2.455-4.275-1-5.333-2.556-5.333-4.673,0-2.734,2.051-4.589,5.769-4.589,4.171,0,5.832,2.238,6.057,4.531h-3.429c-.162-.963-.7-2.019-2.723-2.019-1.379,0-2.209.577-2.209,1.682s.666,1.534,3.2,2.123c4.569,1.073,5.57,2.772,5.57,4.981,0,2.864-2.169,4.831-6.322,4.831-3.986,0-6.086-1.961-6.464-4.82Z" transform="translate(-212.559 -17.369)" fill="#1c1c1c"/>
    <path id="Path_209" data-name="Path 209" d="M396.51,80.88h1.817V77.69h3.265v3.19H403.9v2.452h-2.307v5.812c0,.891.274,1.24,1.249,1.24a5.835,5.835,0,0,0,.741-.037V92.59a7.433,7.433,0,0,1-2.195.225c-2.307,0-3.06-1.229-3.06-3.291V83.332H396.51Z" transform="translate(-246.565 -19.703)" fill="#1c1c1c"/>
    <path id="Path_210" data-name="Path 210" d="M435.424,96.784a26.382,26.382,0,0,0,.159,3.043h-3.127a4.924,4.924,0,0,1-.164-1.154c-.427.663-1.229,1.425-3.314,1.425-2.844,0-4.038-1.866-4.038-3.692,0-2.682,2.157-3.92,5.616-3.92h1.682v-.721c0-.836-.288-1.661-1.814-1.661-1.379,0-1.682.577-1.832,1.442h-3.1c.176-2.094,1.471-3.787,5.056-3.767,3.173.02,4.88,1.252,4.88,4.055Zm-3.173-2.307h-1.33c-1.967,0-2.7.6-2.7,1.731a1.508,1.508,0,0,0,1.7,1.572c2.077,0,2.331-1.442,2.331-3Z" transform="translate(-266.795 -26.883)" fill="#1c1c1c"/>
    <path id="Path_211" data-name="Path 211" d="M467.3,88.75c1.217,4.064,2.279,7.69,2.466,8.777h.023c.254-1.188.946-3.827,2.354-8.777h3.251l-3.963,12.114c-1.128,3.386-2.068,4.4-4.9,4.4-.288,0-.963-.023-1.529-.089v-2.619a8.343,8.343,0,0,0,.845.049c1.2,0,1.8-.415,2.244-1.731L463.8,88.75Z" transform="translate(-294.447 -27.573)" fill="#1c1c1c"/>
    <path id="Path_212" data-name="Path 212" d="M75.094,50l-3.75,2.163v1.3H68.171v-1.3L64.422,50l-3.75,2.163v1.3H57.5v-1.3L53.75,50,50,52.163V56.49l3.75,2.163L57.5,56.49v-1.3h3.173v1.289l3.75,2.172,3.75-2.163v-1.3h3.173v1.289l3.75,2.172,3.75-2.163V52.163ZM55.769,55.48,53.75,56.634,51.731,55.48V53.173l2.019-1.154,2.019,1.154Zm10.672,0-2.019,1.154L62.4,55.48V53.173l2.019-1.154,2.019,1.154Zm10.672,0-2.019,1.154L73.075,55.48V53.173l2.019-1.154,2.019,1.154Z" transform="translate(0 0)" fill="#31c25a"/>
    <path id="Path_213" data-name="Path 213" d="M75.094,87l-3.75,2.163v1.3H68.171v-1.3L64.422,87l-3.75,2.163v1.3H57.5v-1.3L53.75,87,50,89.163V93.49l3.75,2.163L57.5,93.49v-1.3h3.173v1.289l3.75,2.172,3.75-2.163v-1.3h3.173v1.289l3.75,2.172,3.75-2.163V89.163ZM55.769,92.48,53.75,93.634,51.731,92.48V90.173l2.019-1.154,2.019,1.154Zm10.672,0-2.019,1.154L62.4,92.48V90.173l2.019-1.154,2.019,1.154Zm10.672,0-2.019,1.154L73.075,92.48V90.173l2.019-1.154,2.019,1.154Z" transform="translate(0 -26.328)" fill="#31c25a"/>
    <path id="Path_214" data-name="Path 214" d="M75.094,124l-3.75,2.163v1.3H68.171v-1.3L64.422,124l-3.75,2.163v1.3H57.5v-1.3L53.75,124,50,126.163v4.326l3.75,2.163,3.75-2.163v-1.3h3.173v1.289l3.75,2.172,3.75-2.163v-1.3h3.173v1.289l3.75,2.172,3.75-2.163v-4.326Zm-19.325,5.48-2.019,1.154-2.019-1.154v-2.307l2.019-1.154,2.019,1.154Zm10.672,0-2.019,1.154L62.4,129.48v-2.307l2.019-1.154,2.019,1.154Zm10.672,0-2.019,1.154-2.019-1.154v-2.307l2.019-1.154,2.019,1.154Z" transform="translate(0 -52.656)" fill="#31c25a"/>
  </g>
</svg>
