<svg xmlns="http://www.w3.org/2000/svg" width="37.56" height="22.32" viewBox="0 0 37.56 22.32">
  <path id="list001_-_E0BA" data-name="list001 - E0BA" d="M-17.22-38.04a1.549,1.549,0,0,1-1.56-1.56,1.549,1.549,0,0,1,1.56-1.56,1.549,1.549,0,0,1,1.56,1.56A1.549,1.549,0,0,1-17.22-38.04Zm36-.78h-30v-1.56h30Zm-36,10.38A1.549,1.549,0,0,1-18.78-30a1.549,1.549,0,0,1,1.56-1.56A1.549,1.549,0,0,1-15.66-30,1.549,1.549,0,0,1-17.22-28.44Zm36-.78h-30v-1.56h30Zm-36,10.38a1.549,1.549,0,0,1-1.56-1.56,1.549,1.549,0,0,1,1.56-1.56,1.549,1.549,0,0,1,1.56,1.56A1.549,1.549,0,0,1-17.22-18.84Zm36-.78h-30v-1.56h30Z" transform="translate(18.78 41.16)" fill="#3d9155"/>
</svg>
