<svg xmlns="http://www.w3.org/2000/svg" width="24" height="24" viewBox="0 0 24 24">
  <g id="Group_3592" data-name="Group 3592" transform="translate(-549 -603)">
    <circle id="Ellipse_55" data-name="Ellipse 55" cx="12" cy="12" r="12" transform="translate(549 603)" fill="#c00015" opacity="0.201"/>
    <path id="Path_2377" data-name="Path 2377" d="M-2.45-5.628A2.143,2.143,0,0,0-.959-6.083a1.513,1.513,0,0,0,.5-1.169v-.1A1.388,1.388,0,0,0-.945-8.505,1.972,1.972,0,0,0-2.212-8.89a2.122,2.122,0,0,0-1.232.329,2.553,2.553,0,0,0-.784.889L-5.1-8.344a4.062,4.062,0,0,1,.441-.581,2.972,2.972,0,0,1,.609-.511A3.244,3.244,0,0,1-3.234-9.8a3.62,3.62,0,0,1,1.05-.14,4.089,4.089,0,0,1,1.162.161A2.772,2.772,0,0,1-.077-9.3a2.271,2.271,0,0,1,.63.777,2.316,2.316,0,0,1,.231,1.05,2.341,2.341,0,0,1-.147.854,2.123,2.123,0,0,1-.4.658,2.386,2.386,0,0,1-.6.476,2.883,2.883,0,0,1-.735.294v.056a3.112,3.112,0,0,1,.763.273,2.421,2.421,0,0,1,.658.49,2.312,2.312,0,0,1,.462.728,2.548,2.548,0,0,1,.175.973A2.765,2.765,0,0,1,.728-1.519a2.548,2.548,0,0,1-.672.9,3.169,3.169,0,0,1-1.05.581,4.187,4.187,0,0,1-1.358.21,4.084,4.084,0,0,1-1.12-.14A3.343,3.343,0,0,1-4.34-.35,3.616,3.616,0,0,1-5-.882,4.834,4.834,0,0,1-5.516-1.5l.882-.672a3.6,3.6,0,0,0,.4.532,2.349,2.349,0,0,0,.483.406,2.193,2.193,0,0,0,.6.259,3.016,3.016,0,0,0,.784.091A2.306,2.306,0,0,0-.8-1.351,1.688,1.688,0,0,0-.266-2.688V-2.8A1.688,1.688,0,0,0-.8-4.137a2.306,2.306,0,0,0-1.568-.469H-3.514V-5.628ZM4.2.168a.839.839,0,0,1-.651-.224.842.842,0,0,1-.2-.588V-.826a.842.842,0,0,1,.2-.588A.839.839,0,0,1,4.2-1.638a.839.839,0,0,1,.651.224.842.842,0,0,1,.2.588v.182a.842.842,0,0,1-.2.588A.839.839,0,0,1,4.2.168Z" transform="translate(563 620)" fill="#c00015"/>
  </g>
</svg>
