<svg xmlns="http://www.w3.org/2000/svg" width="37.56" height="37.56" viewBox="0 0 37.56 37.56">
  <path id="clock001_-_E008" data-name="clock001 - E008" d="M0-11.22a18.946,18.946,0,0,1-7.29-1.47,18.866,18.866,0,0,1-5.97-4.02,18.792,18.792,0,0,1-4.05-5.97A18.983,18.983,0,0,1-18.78-30,18.808,18.808,0,0,1,0-48.78a18.834,18.834,0,0,1,7.29,1.47,18.866,18.866,0,0,1,5.97,4.02,19.131,19.131,0,0,1,4.05,5.97A19.208,19.208,0,0,1,18.78-30a18.983,18.983,0,0,1-1.47,7.32,19.131,19.131,0,0,1-4.05,5.97,18.866,18.866,0,0,1-5.97,4.02A18.834,18.834,0,0,1,0-11.22Zm0-36A17.24,17.24,0,0,0-17.22-30a17.126,17.126,0,0,0,1.35,6.72,17.309,17.309,0,0,0,3.72,5.46,16.891,16.891,0,0,0,5.46,3.69A17.088,17.088,0,0,0,0-12.78,17.22,17.22,0,0,0,17.22-30a17.088,17.088,0,0,0-1.35-6.69,17.512,17.512,0,0,0-3.69-5.49,17.862,17.862,0,0,0-5.49-3.69A16.981,16.981,0,0,0,0-47.22Zm1.38,20.4H-9.12v-1.56H-.18V-42.84H1.38Z" transform="translate(18.78 48.78)" fill="#c00015"/>
</svg>
