<svg xmlns="http://www.w3.org/2000/svg" width="24" height="24" viewBox="0 0 24 24">
  <g id="Group_3593" data-name="Group 3593" transform="translate(-549 -603)">
    <path id="Path_2374" data-name="Path 2374" d="M12,0A12,12,0,1,1,0,12,12,12,0,0,1,12,0Z" transform="translate(549 603)" fill="#c00015" opacity="0.201"/>
    <path id="Path_2376" data-name="Path 2376" d="M1.358,0H-5.054V-1.2l3.192-2.94A7.078,7.078,0,0,0-.714-5.481,2.579,2.579,0,0,0-.252-6.9V-7.07A1.907,1.907,0,0,0-.7-8.386a1.724,1.724,0,0,0-1.358-.5,2.228,2.228,0,0,0-.784.126,1.773,1.773,0,0,0-.581.35,1.954,1.954,0,0,0-.406.525,3.211,3.211,0,0,0-.259.651l-1.05-.406a4.163,4.163,0,0,1,.385-.847,2.986,2.986,0,0,1,.616-.735,2.9,2.9,0,0,1,.9-.518A3.541,3.541,0,0,1-2-9.94a3.611,3.611,0,0,1,1.274.21,2.592,2.592,0,0,1,.938.588,2.584,2.584,0,0,1,.581.9A3.122,3.122,0,0,1,.994-7.1,3.39,3.39,0,0,1,.833-6.034,4.145,4.145,0,0,1,.392-5.1a5.657,5.657,0,0,1-.679.861q-.4.42-.861.84L-3.78-1.036H1.358ZM4.2.168a.839.839,0,0,1-.651-.224.842.842,0,0,1-.2-.588V-.826a.842.842,0,0,1,.2-.588A.839.839,0,0,1,4.2-1.638a.839.839,0,0,1,.651.224.842.842,0,0,1,.2.588v.182a.842.842,0,0,1-.2.588A.839.839,0,0,1,4.2.168Z" transform="translate(563 620)" fill="#c00015"/>
  </g>
</svg>
