<svg xmlns="http://www.w3.org/2000/svg" width="30.001" height="32" viewBox="0 0 30.001 32">
  <g id="Group_3470" data-name="Group 3470" transform="translate(-201 -186)">
    <path id="Path_2234" data-name="Path 2234" d="M220,186l8,8v24H204V186Z" fill="#737373"/>
    <path id="Path_2235" data-name="Path 2235" d="M219,195v-8H205v30h22V195Z" fill="#fff"/>
    <rect id="Rectangle_2592" data-name="Rectangle 2592" width="30.001" height="10" transform="translate(200.999 202)" fill="#267e7e"/>
    <path id="Path_2236" data-name="Path 2236" d="M210.853,206.922V206.9a1.385,1.385,0,0,0,1.059-1.343c0-.792-.685-1.441-1.921-1.441a3.612,3.612,0,0,0-1.788.436l.275.978a2.646,2.646,0,0,1,1.21-.346c.569,0,.854.257.854.6,0,.49-.578.659-1.032.667h-.525v.97h.552c.6,0,1.165.258,1.165.827,0,.436-.356.774-1.058.774a3.181,3.181,0,0,1-1.344-.356l-.276,1.015a3.427,3.427,0,0,0,1.718.409c1.467,0,2.366-.747,2.366-1.77A1.437,1.437,0,0,0,210.853,206.922Zm5.358.7h.925v1.254A1.964,1.964,0,0,1,214.583,207a1.814,1.814,0,0,1,1.984-1.939,3.311,3.311,0,0,1,1.4.258l.284-1.086a4.132,4.132,0,0,0-1.663-.293c-1.966,0-3.416,1.139-3.425,3.131a2.9,2.9,0,0,0,.845,2.18,3.34,3.34,0,0,0,2.437.81,6.685,6.685,0,0,0,2-.339v-3.158h-2.233Zm7.182-3.185a2.879,2.879,0,0,0-1.833-.481,11.124,11.124,0,0,0-1.833.125V210h1.344v-2.144a3.377,3.377,0,0,0,.463.027,2.781,2.781,0,0,0,1.948-.632,1.918,1.918,0,0,0,.551-1.423A1.756,1.756,0,0,0,223.393,204.44Zm-1.868,2.4a2.047,2.047,0,0,1-.454-.036v-1.77a2.3,2.3,0,0,1,.56-.053c.677,0,1.059.329,1.059.88C222.69,206.477,222.245,206.842,221.525,206.842Z" fill="#fff"/>
  </g>
</svg>
