<svg xmlns="http://www.w3.org/2000/svg" width="30.001" height="32" viewBox="0 0 30.001 32">
  <g id="Group_3480" data-name="Group 3480" transform="translate(-201 -141)">
    <path id="Path_2264" data-name="Path 2264" d="M220,141l8,8v24H204V141Z" fill="#737373"/>
    <path id="Path_2265" data-name="Path 2265" d="M219,150v-8H205v30h22V150Z" fill="#fff"/>
    <rect id="Rectangle_2602" data-name="Rectangle 2602" width="30.001" height="10" transform="translate(200.999 157)" fill="#980365"/>
    <path id="Path_2266" data-name="Path 2266" d="M210.831,160.027a2.945,2.945,0,0,1,1.139.222l.275-1.076a3.542,3.542,0,0,0-1.476-.267,3.057,3.057,0,0,0-3.274,3.185,2.851,2.851,0,0,0,3.14,3,3.854,3.854,0,0,0,1.539-.258l-.2-1.058a3.411,3.411,0,0,1-1.13.2,1.971,1.971,0,0,1-.009-3.941Zm6.746-.427a3.858,3.858,0,0,0-2.455-.641,12.1,12.1,0,0,0-1.833.125v5.889a11.6,11.6,0,0,0,1.539.09,4.3,4.3,0,0,0,2.766-.775,3.038,3.038,0,0,0,1-2.428A2.655,2.655,0,0,0,217.577,159.6Zm-2.455,4.4a2.469,2.469,0,0,1-.472-.027v-3.923a2.806,2.806,0,0,1,.614-.053,1.718,1.718,0,0,1,1.885,1.9A1.859,1.859,0,0,1,215.122,164Zm7.617-5h-1.78l-1.832,6h1.4l.427-1.539h1.717l.463,1.539H224.6Zm-1.584,3.443.356-1.272c.1-.347.187-.8.276-1.156h.018c.089.355.2.8.3,1.156l.373,1.272Z" fill="#fff"/>
  </g>
</svg>
