<svg xmlns="http://www.w3.org/2000/svg" width="30" height="32" viewBox="0 0 30 32">
  <g id="Group_3442" data-name="Group 3442" transform="translate(-114.999 -321)">
    <path id="Path_2150" data-name="Path 2150" d="M134,321l8,8v24H118V321Z" fill="#737373"/>
    <path id="Path_2151" data-name="Path 2151" d="M133,330v-8H119v30h22V330Z" fill="#fff"/>
    <rect id="Rectangle_2564" data-name="Rectangle 2564" width="30" height="10" transform="translate(114.999 337)" fill="#00980d"/>
    <path id="Path_2152" data-name="Path 2152" d="M125.748,340.027a2.929,2.929,0,0,1,1.139.223l.275-1.076a3.524,3.524,0,0,0-1.477-.268,3.057,3.057,0,0,0-3.273,3.185,2.851,2.851,0,0,0,3.14,3,3.876,3.876,0,0,0,1.539-.258l-.2-1.059a3.387,3.387,0,0,1-1.13.2,1.972,1.972,0,0,1-.009-3.942Zm4.788,1.414c-.773-.293-1.112-.463-1.112-.844,0-.312.285-.578.872-.578a2.868,2.868,0,0,1,1.255.284l.3-1.094a3.666,3.666,0,0,0-1.529-.3c-1.415,0-2.268.784-2.268,1.807,0,.871.649,1.423,1.645,1.769.721.258,1.005.472,1.005.846,0,.391-.329.649-.951.649a3.457,3.457,0,0,1-1.5-.374l-.275,1.122a3.929,3.929,0,0,0,1.7.364c1.645,0,2.419-.855,2.419-1.86C132.093,342.385,131.6,341.833,130.536,341.441Zm5.028,0c-.773-.293-1.112-.463-1.112-.844,0-.312.285-.578.872-.578a2.864,2.864,0,0,1,1.255.284l.3-1.094a3.673,3.673,0,0,0-1.529-.3c-1.416,0-2.269.784-2.269,1.807,0,.871.649,1.423,1.645,1.769.721.258,1.005.472,1.005.846,0,.391-.329.649-.951.649a3.461,3.461,0,0,1-1.5-.374L133,344.725a3.936,3.936,0,0,0,1.7.364c1.646,0,2.419-.855,2.419-1.86C137.121,342.385,136.623,341.833,135.564,341.441Z" fill="#fff"/>
  </g>
</svg>
