<svg xmlns="http://www.w3.org/2000/svg" width="30" height="32" viewBox="0 0 30 32">
  <g id="Group_3492" data-name="Group 3492" transform="translate(-114.999 -96)">
    <path id="Path_2300" data-name="Path 2300" d="M134,96l8,8v24H118V96Z" fill="#737373"/>
    <path id="Path_2301" data-name="Path 2301" d="M133,105V97H119v30h22V105Z" fill="#fff"/>
    <rect id="Rectangle_2614" data-name="Rectangle 2614" width="30" height="10" transform="translate(114.999 112)" fill="#009"/>
    <path id="Path_2302" data-name="Path 2302" d="M125.938,114.6a3.855,3.855,0,0,0-2.455-.641,12.129,12.129,0,0,0-1.833.125v5.889a11.628,11.628,0,0,0,1.539.09,4.3,4.3,0,0,0,2.767-.775,3.038,3.038,0,0,0,1-2.428A2.653,2.653,0,0,0,125.938,114.6Zm-2.455,4.4a2.463,2.463,0,0,1-.471-.027v-3.923a2.807,2.807,0,0,1,.614-.053,1.72,1.72,0,0,1,1.886,1.9A1.86,1.86,0,0,1,123.483,119Zm7-5.1a2.9,2.9,0,0,0-2.918,3.14,2.8,2.8,0,0,0,2.821,3.052,2.858,2.858,0,0,0,2.944-3.158A2.8,2.8,0,0,0,130.487,113.906Zm-.026,5.115c-.908,0-1.459-.827-1.459-2s.533-2.037,1.45-2.037c.934,0,1.449.925,1.449,2C131.9,118.149,131.377,119.021,130.461,119.021Zm6.835-.053a1.971,1.971,0,0,1-.009-3.941,2.945,2.945,0,0,1,1.139.222l.275-1.076a3.542,3.542,0,0,0-1.476-.267,3.057,3.057,0,0,0-3.274,3.185,2.852,2.852,0,0,0,3.14,3,3.858,3.858,0,0,0,1.539-.258l-.2-1.058A3.416,3.416,0,0,1,137.3,118.968Z" fill="#fff"/>
  </g>
</svg>
