<svg xmlns="http://www.w3.org/2000/svg" width="30" height="32" viewBox="0 0 30 32">
  <g id="Group_3456" data-name="Group 3456" transform="translate(-373 -231)">
    <path id="Path_2192" data-name="Path 2192" d="M392,231l8,8v24H376V231Z" fill="#737373"/>
    <path id="Path_2193" data-name="Path 2193" d="M391,240v-8H377v30h22V240Z" fill="#fff"/>
    <rect id="Rectangle_2578" data-name="Rectangle 2578" width="30" height="10" transform="translate(373 247)" fill="#060"/>
    <path id="Path_2194" data-name="Path 2194" d="M381.912,252.465h2.205v-1.1h-2.205v-1.245h2.338V249h-3.7v6h3.824v-1.111h-2.463Zm6.869-.693v-.019a1.355,1.355,0,0,0,.988-1.28,1.305,1.305,0,0,0-.72-1.175,3.311,3.311,0,0,0-1.772-.339,10.935,10.935,0,0,0-1.752.125v5.889a10.388,10.388,0,0,0,1.469.09,3.792,3.792,0,0,0,2.358-.543,1.6,1.6,0,0,0,.621-1.272A1.5,1.5,0,0,0,388.781,251.772Zm-1.912-1.79a3.806,3.806,0,0,1,.578-.035c.613,0,.961.241.961.694s-.383.738-1.1.738h-.443Zm.524,4.075a4.211,4.211,0,0,1-.524-.018V252.35h.463c.676,0,1.219.24,1.219.844C388.551,253.826,388.008,254.057,387.393,254.057Zm6.55-2.5L395.928,249h-1.664L392.9,251c-.133.214-.275.427-.41.658h-.025V249h-1.344v6h1.344v-1.957l.515-.632L394.449,255h1.584Z" fill="#fff"/>
  </g>
</svg>
