<svg xmlns="http://www.w3.org/2000/svg" width="30" height="32" viewBox="0 0 30 32">
  <g id="Group_3513" data-name="Group 3513" transform="translate(-71.999 -6)">
    <path id="Path_2363" data-name="Path 2363" d="M91,6l8,8V38H75V6Z" fill="#737373"/>
    <path id="Path_2364" data-name="Path 2364" d="M90,15V7H76V37H98V15Z" fill="#fff"/>
    <rect id="Rectangle_2635" data-name="Rectangle 2635" width="30" height="10" transform="translate(71.999 22)" fill="red"/>
    <path id="Path_2365" data-name="Path 2365" d="M81.138,27.465h2.206v-1.1H81.138V25.116h2.339V24h-3.7v6H83.6V28.888H81.138Zm5.446-3.506a11.124,11.124,0,0,0-1.833.125V30H86.1V27.856a3.375,3.375,0,0,0,.463.027,2.781,2.781,0,0,0,1.948-.632,1.918,1.918,0,0,0,.551-1.423,1.756,1.756,0,0,0-.64-1.388A2.879,2.879,0,0,0,86.584,23.959Zm-.035,2.883a2.041,2.041,0,0,1-.454-.036v-1.77a2.288,2.288,0,0,1,.56-.053c.676,0,1.059.329,1.059.88C87.714,26.477,87.269,26.842,86.549,26.842Zm5.927-.4c-.775-.293-1.113-.462-1.113-.844,0-.312.284-.578.872-.578a2.859,2.859,0,0,1,1.254.284l.3-1.094a3.682,3.682,0,0,0-1.53-.3c-1.414,0-2.269.783-2.269,1.806,0,.872.65,1.424,1.646,1.77.72.258,1,.472,1,.846,0,.391-.329.649-.952.649a3.471,3.471,0,0,1-1.5-.373l-.276,1.12a3.924,3.924,0,0,0,1.7.365c1.646,0,2.42-.854,2.42-1.859C94.032,27.385,93.534,26.833,92.476,26.441Z" fill="#fff"/>
  </g>
</svg>
