<svg xmlns="http://www.w3.org/2000/svg" width="30" height="32" viewBox="0 0 30 32">
  <g id="Group_3419" data-name="Group 3419" transform="translate(-244 -411)">
    <path id="Path_2079" data-name="Path 2079" d="M263,411l8,8v24H247V411Z" fill="#737373"/>
    <path id="Path_2080" data-name="Path 2080" d="M262,420v-8H248v30h22V420Z" fill="#fff"/>
    <rect id="Rectangle_2541" data-name="Rectangle 2541" width="30" height="10" transform="translate(244 427)" fill="red"/>
    <path id="Path_2081" data-name="Path 2081" d="M251.318,435h1.362v-2.41h2.152v-1.1H252.68v-1.37h2.3V429h-3.666Zm5.715-6-1.834,6h1.406l.428-1.539h1.717l.461,1.539h1.459l-1.858-6Zm.2,3.443.356-1.272c.1-.347.187-.8.275-1.156h.018c.09.355.195.8.3,1.156l.373,1.272Zm8.311,2.2v-.037a3.1,3.1,0,0,0-1.414-5.7,2.907,2.907,0,0,0-2.928,3.15,2.8,2.8,0,0,0,2.615,3.042,1.3,1.3,0,0,1,.418.09,20.744,20.744,0,0,0,2.368.843l.39-1.049C266.518,434.885,266,434.777,265.539,434.645Zm-1.459-.623c-.908,0-1.459-.873-1.449-2.011,0-1.12.533-2.029,1.459-2.029s1.439.909,1.439,2C265.529,433.158,265,434.022,264.08,434.022Z" fill="#fff"/>
  </g>
</svg>
