<svg xmlns="http://www.w3.org/2000/svg" width="30" height="32" viewBox="0 0 30 32">
  <g id="Group_3426" data-name="Group 3426" transform="translate(-373 -366)">
    <path id="Path_2100" data-name="Path 2100" d="M392,366l8,8v24H376V366Z" fill="#737373"/>
    <path id="Path_2101" data-name="Path 2101" d="M391,375v-8H377v30h22V375Z" fill="#fff"/>
    <rect id="Rectangle_2548" data-name="Rectangle 2548" width="30" height="10" transform="translate(373 382)" fill="#639"/>
    <path id="Path_2102" data-name="Path 2102" d="M383.2,384,382.56,386c-.2.667-.4,1.458-.57,2.152h-.025c-.135-.7-.321-1.45-.508-2.143l-.588-2h-1.8l-.382,6h1.253l.108-2.277c.045-.747.07-1.672.105-2.483h.02c.141.783.346,1.637.541,2.34l.641,2.322h1.058l.731-2.339c.23-.7.48-1.557.666-2.323h.027c0,.872.027,1.744.053,2.465l.09,2.3H385.3l-.33-6Zm7.654.6a3.855,3.855,0,0,0-2.455-.641,12.122,12.122,0,0,0-1.834.125v5.889a11.6,11.6,0,0,0,1.539.09,4.311,4.311,0,0,0,2.768-.775,3.04,3.04,0,0,0,1-2.429A2.655,2.655,0,0,0,390.855,384.6ZM388.4,389a2.463,2.463,0,0,1-.472-.027v-3.923a2.786,2.786,0,0,1,.613-.054,1.72,1.72,0,0,1,1.887,1.9A1.859,1.859,0,0,1,388.4,389Zm7.84-2.232v-.019a1.354,1.354,0,0,0,.987-1.28,1.306,1.306,0,0,0-.721-1.175,3.3,3.3,0,0,0-1.77-.339,10.971,10.971,0,0,0-1.754.125v5.889a10.386,10.386,0,0,0,1.469.09,3.786,3.786,0,0,0,2.358-.543,1.6,1.6,0,0,0,.623-1.272A1.5,1.5,0,0,0,396.24,386.772Zm-1.914-1.79a3.826,3.826,0,0,1,.578-.035c.615,0,.961.241.961.694s-.383.738-1.094.738h-.445Zm.526,4.075a4.263,4.263,0,0,1-.526-.018V387.35h.463c.676,0,1.219.24,1.219.844C396.008,388.826,395.465,389.057,394.852,389.057Z" fill="#fff"/>
  </g>
</svg>
