<svg xmlns="http://www.w3.org/2000/svg" width="30" height="32" viewBox="0 0 30 32">
  <g id="Group_3479" data-name="Group 3479" transform="translate(-244 -141)">
    <path id="Path_2261" data-name="Path 2261" d="M263,141l8,8v24H247V141Z" fill="#737373"/>
    <path id="Path_2262" data-name="Path 2262" d="M262,150v-8H248v30h22V150Z" fill="#fff"/>
    <rect id="Rectangle_2601" data-name="Rectangle 2601" width="30" height="10" transform="translate(244 157)" fill="#099"/>
    <path id="Path_2263" data-name="Path 2263" d="M254.574,159l-.64,1.993c-.2.667-.4,1.459-.569,2.152h-.027c-.133-.7-.32-1.449-.508-2.143l-.586-2h-1.807l-.382,6h1.254l.107-2.277c.045-.747.07-1.673.107-2.482h.018c.143.782.346,1.636.543,2.339l.641,2.322h1.058l.729-2.339c.23-.7.48-1.557.668-2.322h.025c0,.871.027,1.743.055,2.464l.088,2.295h1.326l-.33-6Zm9.969.6a3.855,3.855,0,0,0-2.455-.641,12.115,12.115,0,0,0-1.834.125v5.889a11.6,11.6,0,0,0,1.539.09,4.306,4.306,0,0,0,2.767-.775,3.038,3.038,0,0,0,1-2.428A2.658,2.658,0,0,0,264.543,159.6Zm-2.455,4.4a2.475,2.475,0,0,1-.473-.027v-3.923a2.81,2.81,0,0,1,.613-.053,1.719,1.719,0,0,1,1.887,1.9A1.859,1.859,0,0,1,262.088,164Zm4.361-5v6h1.361v-6Zm-8.732,6h1.361v-6h-1.361Z" fill="#fff"/>
  </g>
</svg>
