<svg xmlns="http://www.w3.org/2000/svg" width="30" height="32" viewBox="0 0 30 32">
  <g id="Group_3468" data-name="Group 3468" transform="translate(-287 -186)">
    <path id="Path_2228" data-name="Path 2228" d="M306,186l8,8v24H290V186Z" fill="#737373"/>
    <path id="Path_2229" data-name="Path 2229" d="M305,195v-8H291v30h22V195Z" fill="#fff"/>
    <rect id="Rectangle_2590" data-name="Rectangle 2590" width="30" height="10" transform="translate(287 202)" fill="#7f7f0a"/>
    <path id="Path_2230" data-name="Path 2230" d="M297.644,204,297.006,206c-.2.667-.4,1.459-.571,2.152h-.027c-.133-.7-.32-1.449-.506-2.143l-.588-2h-1.8l-.383,6h1.254l.107-2.277c.043-.747.071-1.673.106-2.482h.017c.143.782.348,1.636.543,2.339l.641,2.322h1.058l.731-2.339c.23-.7.48-1.557.666-2.322h.027c0,.871.026,1.743.053,2.464l.09,2.295h1.324l-.328-6Zm7.95,0H303.93L302.568,206c-.133.213-.275.427-.41.658h-.025V204h-1.344v6h1.344v-1.957l.515-.632L304.115,210H305.7l-2.09-3.443Zm4.236,0-.766,2.562c-.2.685-.39,1.4-.543,2.118H308.5c-.143-.748-.33-1.433-.535-2.144L307.232,204h-1.486l1.922,6h1.584l2.019-6Z" fill="#fff"/>
  </g>
</svg>
