<svg xmlns="http://www.w3.org/2000/svg" width="30" height="32" viewBox="0 0 30 32">
  <g id="Group_3462" data-name="Group 3462" transform="translate(-114.999 -231)">
    <path id="Path_2210" data-name="Path 2210" d="M134,231l8,8v24H118V231Z" fill="#737373"/>
    <path id="Path_2211" data-name="Path 2211" d="M133,240v-8H119v30h22V240Z" fill="#fff"/>
    <rect id="Rectangle_2584" data-name="Rectangle 2584" width="30" height="10" transform="translate(114.999 247)" fill="#099"/>
    <path id="Path_2212" data-name="Path 2212" d="M124.857,249,124.28,251c-.176.667-.36,1.458-.512,2.152h-.024c-.12-.7-.289-1.45-.457-2.143l-.528-2h-1.627l-.344,6h1.129l.1-2.277c.04-.747.063-1.672.1-2.483h.017c.128.783.311,1.637.488,2.34l.577,2.322h.953l.657-2.339c.209-.7.432-1.557.6-2.323h.024c0,.872.024,1.744.048,2.465l.08,2.295h1.194l-.3-6Zm5.206-.1c-1.593,0-2.628,1.344-2.628,3.141,0,1.707.938,3.051,2.541,3.051,1.578,0,2.651-1.192,2.651-3.158C132.627,250.285,131.722,248.906,130.063,248.906Zm-.024,5.116c-.816,0-1.313-.828-1.313-2s.48-2.038,1.305-2.038c.842,0,1.306.926,1.306,2C131.337,253.149,130.864,254.022,130.039,254.022Zm6.32-2.25v-.019a1.345,1.345,0,0,0,.89-1.28,1.326,1.326,0,0,0-.649-1.175,2.726,2.726,0,0,0-1.594-.339,8.868,8.868,0,0,0-1.578.125v5.889a8.408,8.408,0,0,0,1.321.09,3.152,3.152,0,0,0,2.123-.543,1.665,1.665,0,0,0,.561-1.272A1.469,1.469,0,0,0,136.359,251.772Zm-1.722-1.79a3.119,3.119,0,0,1,.521-.035c.553,0,.864.241.864.694s-.343.738-.985.738h-.4Zm.472,4.075a3.421,3.421,0,0,1-.472-.018V252.35h.417c.608,0,1.1.24,1.1.844C136.151,253.826,135.662,254.057,135.109,254.057ZM138.266,249v6h1.225v-6Z" fill="#fff"/>
  </g>
</svg>
