<svg xmlns="http://www.w3.org/2000/svg" width="30" height="32" viewBox="0 0 30 32">
  <g id="Group_3472" data-name="Group 3472" transform="translate(-114.999 -186)">
    <path id="Path_2240" data-name="Path 2240" d="M134,186l8,8v24H118V186Z" fill="#737373"/>
    <path id="Path_2241" data-name="Path 2241" d="M133,195v-8H119v30h22V195Z" fill="#fff"/>
    <rect id="Rectangle_2594" data-name="Rectangle 2594" width="30" height="10" transform="translate(114.999 202)" fill="#06c"/>
    <path id="Path_2242" data-name="Path 2242" d="M126.152,204l-.64,1.993c-.2.667-.4,1.459-.57,2.152h-.026c-.134-.7-.32-1.449-.508-2.143l-.587-2h-1.805l-.383,6h1.255l.106-2.277c.045-.747.071-1.673.107-2.482h.018c.142.782.347,1.636.542,2.339l.641,2.322h1.058l.73-2.339c.231-.7.48-1.557.667-2.322h.027c0,.871.026,1.743.053,2.464l.089,2.295h1.326l-.329-6Zm4.977-.045a11.106,11.106,0,0,0-1.833.125V210h1.343v-2.144a3.387,3.387,0,0,0,.463.027,2.781,2.781,0,0,0,1.948-.632,1.915,1.915,0,0,0,.552-1.423,1.753,1.753,0,0,0-.641-1.388A2.878,2.878,0,0,0,131.129,203.959Zm-.036,2.883a2.053,2.053,0,0,1-.454-.036v-1.77a2.3,2.3,0,0,1,.56-.053c.677,0,1.059.329,1.059.88C132.258,206.477,131.813,206.842,131.093,206.842Zm6.835.765v-3.389h-1.656l-2.188,3.522v.881h2.562V210h1.282v-1.379h.693v-1.014Zm-1.282-1.281v1.281h-1.3v-.018l.773-1.263c.2-.365.348-.7.534-1.077h.035C136.664,205.623,136.646,205.979,136.646,206.326Z" fill="#fff"/>
  </g>
</svg>
