<svg xmlns="http://www.w3.org/2000/svg" width="30" height="32" viewBox="0 0 30 32">
  <g id="Group_3494" data-name="Group 3494" transform="translate(-28.999 -96)">
    <path id="Path_2306" data-name="Path 2306" d="M48,96l8,8v24H32V96Z" fill="#737373"/>
    <path id="Path_2307" data-name="Path 2307" d="M47,105V97H33v30H55V105Z" fill="#fff"/>
    <rect id="Rectangle_2616" data-name="Rectangle 2616" width="30" height="10" transform="translate(28.999 112)" fill="#c00"/>
    <path id="Path_2308" data-name="Path 2308" d="M38.169,113.959a11.124,11.124,0,0,0-1.833.125V120H37.68v-2.144a3.376,3.376,0,0,0,.463.027,2.781,2.781,0,0,0,1.948-.632,1.918,1.918,0,0,0,.551-1.423A1.756,1.756,0,0,0,40,114.44,2.879,2.879,0,0,0,38.169,113.959Zm-.035,2.883a2.041,2.041,0,0,1-.454-.036v-1.77a2.288,2.288,0,0,1,.56-.053c.676,0,1.059.329,1.059.88C39.3,116.477,38.853,116.842,38.134,116.842Zm7.884-2.242a3.86,3.86,0,0,0-2.456-.641,12.129,12.129,0,0,0-1.833.125v5.889a11.634,11.634,0,0,0,1.54.09,4.3,4.3,0,0,0,2.766-.775,3.038,3.038,0,0,0,1-2.428A2.653,2.653,0,0,0,46.018,114.6ZM43.562,119a2.468,2.468,0,0,1-.471-.027v-3.923a2.807,2.807,0,0,1,.614-.053,1.72,1.72,0,0,1,1.886,1.9A1.86,1.86,0,0,1,43.562,119Zm8.249-3.888V114H48.146v6h1.362v-2.411H51.66v-1.1H49.508v-1.37Z" fill="#fff"/>
  </g>
</svg>
