<svg xmlns="http://www.w3.org/2000/svg" width="30" height="32" viewBox="0 0 30 32">
  <g id="Group_3431" data-name="Group 3431" transform="translate(-157.999 -366)">
    <path id="Path_2115" data-name="Path 2115" d="M177,366l8,8v24H161V366Z" fill="#737373"/>
    <path id="Path_2116" data-name="Path 2116" d="M176,375v-8H162v30h22V375Z" fill="#fff"/>
    <rect id="Rectangle_2553" data-name="Rectangle 2553" width="30" height="10" transform="translate(157.999 382)" fill="#dd3e00"/>
    <path id="Path_2117" data-name="Path 2117" d="M167.587,383.959a11.236,11.236,0,0,0-1.833.125V390H167.1v-2.145a3.205,3.205,0,0,0,.462.028,2.777,2.777,0,0,0,1.949-.632,1.918,1.918,0,0,0,.551-1.423,1.753,1.753,0,0,0-.64-1.388A2.874,2.874,0,0,0,167.587,383.959Zm-.035,2.883a2.114,2.114,0,0,1-.454-.035v-1.771a2.324,2.324,0,0,1,.56-.054c.676,0,1.059.331,1.059.881C168.717,386.477,168.271,386.842,167.552,386.842Zm5.428-2.883a11.236,11.236,0,0,0-1.833.125V390h1.344v-2.145a3.21,3.21,0,0,0,.463.028,2.775,2.775,0,0,0,1.948-.632,1.914,1.914,0,0,0,.551-1.423,1.753,1.753,0,0,0-.64-1.388A2.873,2.873,0,0,0,172.98,383.959Zm-.035,2.883a2.12,2.12,0,0,1-.454-.035v-1.771a2.335,2.335,0,0,1,.561-.054c.675,0,1.058.331,1.058.881C174.11,386.477,173.665,386.842,172.945,386.842ZM176.087,384v1.139h1.61V390h1.362v-4.857H180.7V384Z" fill="#fff"/>
  </g>
</svg>
