<svg xmlns="http://www.w3.org/2000/svg" width="30" height="32" viewBox="0 0 30 32">
  <g id="Group_3503" data-name="Group 3503" transform="translate(-71.999 -51)">
    <path id="Path_2333" data-name="Path 2333" d="M91,51l8,8V83H75V51Z" fill="#737373"/>
    <path id="Path_2334" data-name="Path 2334" d="M90,60V52H76V82H98V60Z" fill="#fff"/>
    <rect id="Rectangle_2625" data-name="Rectangle 2625" width="30" height="10" transform="translate(71.999 67)" fill="#ffbf00"/>
    <path id="Path_2335" data-name="Path 2335" d="M81.334,68.959a11.106,11.106,0,0,0-1.833.125V75h1.343V72.856a3.386,3.386,0,0,0,.463.027,2.781,2.781,0,0,0,1.948-.632,1.915,1.915,0,0,0,.552-1.423,1.753,1.753,0,0,0-.641-1.388A2.876,2.876,0,0,0,81.334,68.959ZM81.3,71.842a2.052,2.052,0,0,1-.454-.036v-1.77a2.3,2.3,0,0,1,.56-.053c.677,0,1.059.329,1.059.88C82.463,71.477,82.019,71.842,81.3,71.842Zm5.705-.4c-.775-.293-1.112-.462-1.112-.844,0-.312.284-.578.872-.578a2.863,2.863,0,0,1,1.254.284l.3-1.094a3.675,3.675,0,0,0-1.53-.3c-1.414,0-2.269.783-2.269,1.806,0,.872.65,1.424,1.646,1.77.721.258,1.006.472,1.006.846,0,.391-.329.649-.952.649a3.467,3.467,0,0,1-1.5-.373l-.277,1.12a3.925,3.925,0,0,0,1.7.365c1.645,0,2.42-.854,2.42-1.859C88.56,72.385,88.061,71.833,87,71.441ZM93.766,69.6a3.86,3.86,0,0,0-2.456-.641,12.139,12.139,0,0,0-1.833.125v5.889a11.634,11.634,0,0,0,1.54.09,4.3,4.3,0,0,0,2.766-.775,3.038,3.038,0,0,0,1-2.428A2.653,2.653,0,0,0,93.766,69.6ZM91.31,74a2.468,2.468,0,0,1-.471-.027V70.054A2.807,2.807,0,0,1,91.453,70a1.72,1.72,0,0,1,1.886,1.9A1.86,1.86,0,0,1,91.31,74Z" fill="#fff"/>
  </g>
</svg>
