<svg xmlns="http://www.w3.org/2000/svg" width="30" height="32" viewBox="0 0 30 32">
  <g id="Group_3476" data-name="Group 3476" transform="translate(-373 -141)">
    <path id="Path_2252" data-name="Path 2252" d="M392,141l8,8v24H376V141Z" fill="#737373"/>
    <path id="Path_2253" data-name="Path 2253" d="M391,150v-8H377v30h22V150Z" fill="#fff"/>
    <rect id="Rectangle_2598" data-name="Rectangle 2598" width="30" height="10" transform="translate(373 157)" fill="#7f0100"/>
    <path id="Path_2254" data-name="Path 2254" d="M382.766,161.566c-.206.685-.393,1.4-.543,2.118H382.2c-.142-.748-.328-1.433-.533-2.144L380.934,159h-1.487l1.922,6h1.582l2.02-6h-1.442Zm5.419-2.66a2.9,2.9,0,0,0-2.917,3.14,2.8,2.8,0,0,0,2.82,3.052,2.858,2.858,0,0,0,2.943-3.158A2.794,2.794,0,0,0,388.185,158.906Zm-.027,5.115c-.908,0-1.459-.827-1.459-2s.533-2.037,1.451-2.037c.934,0,1.45.925,1.45,2C389.6,163.149,389.074,164.021,388.158,164.021Zm6.836-.053a1.971,1.971,0,0,1-.01-3.941,2.937,2.937,0,0,1,1.139.222l.275-1.076a3.538,3.538,0,0,0-1.476-.267,3.057,3.057,0,0,0-3.274,3.185,2.852,2.852,0,0,0,3.141,3,3.862,3.862,0,0,0,1.539-.258l-.205-1.058A3.414,3.414,0,0,1,394.994,163.968Z" fill="#fff"/>
  </g>
</svg>
