<svg xmlns="http://www.w3.org/2000/svg" width="30" height="32" viewBox="0 0 30 32">
  <g id="Group_3506" data-name="Group 3506" transform="translate(-373 -6)">
    <path id="Path_2342" data-name="Path 2342" d="M392,6l8,8V38H376V6Z" fill="#737373"/>
    <path id="Path_2343" data-name="Path 2343" d="M391,15V7H377V37h22V15Z" fill="#fff"/>
    <rect id="Rectangle_2628" data-name="Rectangle 2628" width="30" height="10" transform="translate(373 22)" fill="#7ece7e"/>
    <path id="Path_2344" data-name="Path 2344" d="M383.1,26.566c-.2.685-.392,1.4-.543,2.118h-.027c-.142-.748-.328-1.433-.533-2.144L381.271,24h-1.486l1.922,6h1.582l2.02-6h-1.442Zm5.108-.125c-.774-.293-1.111-.462-1.111-.844,0-.312.285-.578.871-.578a2.87,2.87,0,0,1,1.256.284l.3-1.094a3.666,3.666,0,0,0-1.529-.3c-1.414,0-2.268.783-2.268,1.806,0,.872.649,1.424,1.645,1.77.721.258,1.006.472,1.006.846,0,.391-.33.649-.951.649a3.468,3.468,0,0,1-1.5-.373l-.276,1.12a3.922,3.922,0,0,0,1.7.365c1.644,0,2.418-.854,2.418-1.859C389.768,27.385,389.269,26.833,388.211,26.441Zm6.764-1.841a3.86,3.86,0,0,0-2.456-.641,12.1,12.1,0,0,0-1.832.125v5.889a11.609,11.609,0,0,0,1.54.09,4.3,4.3,0,0,0,2.765-.775,3.041,3.041,0,0,0,1-2.428A2.652,2.652,0,0,0,394.975,24.6ZM392.519,29a2.447,2.447,0,0,1-.47-.027V25.054a2.788,2.788,0,0,1,.613-.053,1.718,1.718,0,0,1,1.885,1.9A1.858,1.858,0,0,1,392.519,29Z" fill="#fff"/>
  </g>
</svg>
