<svg xmlns="http://www.w3.org/2000/svg" width="30" height="32" viewBox="0 0 30 32">
  <g id="Group_3475" data-name="Group 3475" transform="translate(-416 -141)">
    <path id="Path_2249" data-name="Path 2249" d="M435,141l8,8v24H419V141Z" fill="#737373"/>
    <path id="Path_2250" data-name="Path 2250" d="M434,150v-8H420v30h22V150Z" fill="#fff"/>
    <rect id="Rectangle_2597" data-name="Rectangle 2597" width="30" height="10" transform="translate(416 157)" fill="#009"/>
    <path id="Path_2251" data-name="Path 2251" d="M426.816,161.483c-.113.681-.234,1.354-.316,1.992h-.016c-.082-.638-.17-1.251-.291-1.924l-.437-2.418h-1.311l-.461,2.35c-.136.707-.267,1.4-.355,2.018h-.018c-.088-.579-.2-1.32-.322-2l-.414-2.366h-1.316l1.293,5.739H424.2l.518-2.47c.129-.579.218-1.124.316-1.771h.016c.064.656.154,1.192.257,1.771l.461,2.47h1.336l1.409-5.739h-1.254Zm6.328-2.35-.582,1.907c-.179.639-.363,1.4-.517,2.06h-.026c-.121-.672-.291-1.387-.46-2.052l-.534-1.915h-1.642l-.348,5.739h1.141l.1-2.18c.039-.715.063-1.6.1-2.376h.016c.131.749.316,1.567.494,2.239l.584,2.223h.961l.664-2.239c.211-.673.437-1.491.607-2.223h.024c0,.834.025,1.669.049,2.359l.082,2.2h1.2l-.3-5.739Zm5.723,0h-1.619l-1.666,5.739h1.277l.389-1.474h1.562l.42,1.474h1.329Zm-1.441,3.295.324-1.218c.088-.332.17-.766.252-1.106h.014c.082.34.179.766.275,1.106l.34,1.218Z" fill="#fff"/>
  </g>
</svg>
