<svg xmlns="http://www.w3.org/2000/svg" width="30" height="32" viewBox="0 0 30 32">
  <g id="Group_3485" data-name="Group 3485" transform="translate(-416 -96)">
    <path id="Path_2279" data-name="Path 2279" d="M435,96l8,8v24H419V96Z" fill="#737373"/>
    <path id="Path_2280" data-name="Path 2280" d="M434,105V97H420v30h22V105Z" fill="#fff"/>
    <rect id="Rectangle_2607" data-name="Rectangle 2607" width="30" height="10" transform="translate(416 112)" fill="#906"/>
    <path id="Path_2281" data-name="Path 2281" d="M427.469,116.459c-.119.712-.244,1.415-.33,2.082h-.016c-.086-.667-.178-1.308-.3-2.01L426.361,114h-1.369l-.482,2.455c-.143.739-.28,1.459-.371,2.109h-.018c-.092-.605-.211-1.379-.338-2.091L423.352,114h-1.377l1.351,6h1.412l.541-2.58c.135-.6.229-1.174.33-1.85h.018c.066.685.16,1.245.269,1.85l.483,2.58h1.394l1.471-6h-1.31Zm4.185-2.5a10.019,10.019,0,0,0-1.74.125V120h1.275v-2.144a3.083,3.083,0,0,0,.44.027,2.555,2.555,0,0,0,1.851-.632,1.971,1.971,0,0,0,.524-1.423,1.79,1.79,0,0,0-.608-1.388A2.636,2.636,0,0,0,431.654,113.959Zm-.033,2.883a1.862,1.862,0,0,1-.432-.036v-1.77a2.1,2.1,0,0,1,.534-.053c.642,0,1.005.329,1.005.88C432.728,116.477,432.3,116.842,431.621,116.842ZM438.9,114.6a3.535,3.535,0,0,0-2.334-.641,10.928,10.928,0,0,0-1.74.125v5.889a10.448,10.448,0,0,0,1.461.09,3.943,3.943,0,0,0,2.629-.775,3.111,3.111,0,0,0,.947-2.428A2.709,2.709,0,0,0,438.9,114.6Zm-2.334,4.4a2.217,2.217,0,0,1-.447-.027v-3.923A2.521,2.521,0,0,1,436.7,115a1.679,1.679,0,0,1,1.793,1.9C438.494,118.336,437.732,119.013,436.566,119Z" fill="#fff"/>
  </g>
</svg>
