<svg xmlns="http://www.w3.org/2000/svg" width="30" height="32" viewBox="0 0 30 32">
  <g id="Group_3441" data-name="Group 3441" transform="translate(-157.999 -321)">
    <path id="Path_2147" data-name="Path 2147" d="M177,321l8,8v24H161V321Z" fill="#737373"/>
    <path id="Path_2148" data-name="Path 2148" d="M176,330v-8H162v30h22V330Z" fill="#fff"/>
    <rect id="Rectangle_2563" data-name="Rectangle 2563" width="30" height="10" transform="translate(157.999 337)" fill="#639"/>
    <path id="Path_2149" data-name="Path 2149" d="M169.232,339h-1.547l-.507,1.094c-.152.347-.268.615-.409,1h-.019c-.142-.338-.275-.632-.453-1L165.771,339h-1.556l1.673,2.963L164.153,345H165.7l.5-1.086c.187-.418.338-.729.462-1.076h.019c.169.347.31.658.533,1.076l.543,1.086h1.565l-1.779-3.068Zm5.429,0-.64,1.993c-.2.667-.4,1.458-.569,2.152h-.027c-.133-.7-.321-1.45-.507-2.143l-.587-2h-1.806l-.382,6H171.4l.108-2.277c.044-.747.07-1.672.106-2.483h.018c.142.783.347,1.637.543,2.34l.64,2.322h1.059l.73-2.339c.23-.7.48-1.557.667-2.323h.026c0,.872.026,1.744.054,2.465l.088,2.3h1.326l-.329-6Zm4.728,4.857V339h-1.362v6h3.745v-1.139Z" fill="#fff"/>
  </g>
</svg>
