<svg xmlns="http://www.w3.org/2000/svg" width="30" height="32" viewBox="0 0 30 32">
  <g id="Group_3445" data-name="Group 3445" transform="translate(-416 -276)">
    <path id="Path_2159" data-name="Path 2159" d="M435,276l8,8v24H419V276Z" fill="#737373"/>
    <path id="Path_2160" data-name="Path 2160" d="M434,285v-8H420v30h22V285Z" fill="#fff"/>
    <rect id="Rectangle_2567" data-name="Rectangle 2567" width="30" height="10" transform="translate(416 292)" fill="#099"/>
    <path id="Path_2161" data-name="Path 2161" d="M423.955,298.844l2.793-4.057V294H422.4v1.121h2.588v.035l-2.855,4.111V300h4.662v-1.121h-2.838Zm6.361-4.938a2.9,2.9,0,0,0-2.916,3.141,2.8,2.8,0,0,0,2.819,3.051,2.858,2.858,0,0,0,2.945-3.158A2.8,2.8,0,0,0,430.316,293.906Zm-.025,5.116c-.908,0-1.459-.828-1.459-2s.533-2.038,1.449-2.038c.936,0,1.451.926,1.451,2C431.732,298.149,431.207,299.022,430.291,299.022Zm6.629-5.116A2.9,2.9,0,0,0,434,297.047a2.8,2.8,0,0,0,2.818,3.051,2.859,2.859,0,0,0,2.946-3.158A2.8,2.8,0,0,0,436.92,293.906Zm-.026,5.116c-.908,0-1.459-.828-1.459-2s.534-2.038,1.45-2.038c.935,0,1.451.926,1.451,2C438.336,298.149,437.81,299.022,436.894,299.022Z" fill="#fff"/>
  </g>
</svg>
