<svg xmlns="http://www.w3.org/2000/svg" width="30" height="32" viewBox="0 0 30 32">
  <g id="Group_3449" data-name="Group 3449" transform="translate(-244 -276)">
    <path id="Path_2171" data-name="Path 2171" d="M263,276l8,8v24H247V276Z" fill="#737373"/>
    <path id="Path_2172" data-name="Path 2172" d="M262,285v-8H248v30h22V285Z" fill="#fff"/>
    <rect id="Rectangle_2571" data-name="Rectangle 2571" width="30" height="10" transform="translate(244 292)" fill="#7f0100"/>
    <path id="Path_2173" data-name="Path 2173" d="M252.707,294l-1.832,6h1.4l.428-1.539h1.717l.463,1.539h1.459l-1.86-6Zm.195,3.443.356-1.272c.1-.347.187-.8.277-1.156h.018c.088.355.2.8.3,1.156l.373,1.272Zm7.307-2.42a2.925,2.925,0,0,1,1.139.223l.275-1.076a3.52,3.52,0,0,0-1.477-.268,3.057,3.057,0,0,0-3.273,3.185,2.852,2.852,0,0,0,3.141,3,3.884,3.884,0,0,0,1.539-.258l-.205-1.059a3.385,3.385,0,0,1-1.129.2,1.972,1.972,0,0,1-.01-3.942Zm3.818,3.862v-1.424h2.207v-1.1h-2.207v-1.245h2.34V294h-3.7v6h3.826v-1.111Z" fill="#fff"/>
  </g>
</svg>
