<svg xmlns="http://www.w3.org/2000/svg" width="30" height="32" viewBox="0 0 30 32">
  <g id="Group_3447" data-name="Group 3447" transform="translate(-330 -276)">
    <path id="Path_2165" data-name="Path 2165" d="M349,276l8,8v24H333V276Z" fill="#737373"/>
    <path id="Path_2166" data-name="Path 2166" d="M348,285v-8H334v30h22V285Z" fill="#fff"/>
    <rect id="Rectangle_2569" data-name="Rectangle 2569" width="30" height="10" transform="translate(330 292)" fill="#060"/>
    <path id="Path_2167" data-name="Path 2167" d="M339.125,294l-1.832,6h1.4l.428-1.539h1.717L341.3,300h1.459l-1.86-6Zm.2,3.443.356-1.272c.1-.347.187-.8.275-1.156h.02c.088.355.195.8.3,1.156l.375,1.272Zm7.707-.257v-.028a1.59,1.59,0,0,0,1.059-1.477,1.518,1.518,0,0,0-.551-1.253,3.063,3.063,0,0,0-1.939-.473,12.072,12.072,0,0,0-1.807.125V300h1.344v-2.357h.408c.553.008.811.212.971.96a7.41,7.41,0,0,0,.418,1.4h1.386c-.115-.231-.3-1.014-.488-1.69A1.508,1.508,0,0,0,347.027,297.19Zm-1.361-.526h-.533V295.01a3.318,3.318,0,0,1,.613-.045c.623.009,1,.285,1,.836C346.742,296.326,346.342,296.664,345.666,296.664Zm4.85-2.66v3.771c0,.935-.356,1.194-.924,1.194a2.221,2.221,0,0,1-.7-.108l-.15,1.094a3.484,3.484,0,0,0,.986.143c1.317,0,2.137-.6,2.137-2.3V294Z" fill="#fff"/>
  </g>
</svg>
