<svg xmlns="http://www.w3.org/2000/svg" width="30" height="32" viewBox="0 0 30 32">
  <g id="Group_3455" data-name="Group 3455" transform="translate(-416 -231)">
    <path id="Path_2189" data-name="Path 2189" d="M435,231l8,8v24H419V231Z" fill="#737373"/>
    <path id="Path_2190" data-name="Path 2190" d="M434,240v-8H420v30h22V240Z" fill="#fff"/>
    <rect id="Rectangle_2577" data-name="Rectangle 2577" width="30" height="10" transform="translate(416 247)" fill="#09f"/>
    <path id="Path_2191" data-name="Path 2191" d="M423.519,249l-1.834,6h1.407l.427-1.539h1.717L425.7,255h1.459l-1.857-6Zm.2,3.443.355-1.272c.1-.347.188-.8.276-1.156h.017c.09.355.2.8.3,1.156l.373,1.272Zm5.74,1.4,2.793-4.057V249H427.9v1.121h2.588v.035l-2.855,4.111V255h4.662v-1.121h-2.838Zm9.512-4.84-.49,2.455c-.124.712-.258,1.415-.346,2.082h-.018c-.09-.667-.187-1.308-.32-2.01L437.312,249h-1.441l-.508,2.455c-.15.738-.293,1.459-.39,2.109h-.018c-.1-.6-.223-1.378-.355-2.091L434.144,249H432.7l1.424,6H435.6l.571-2.58c.142-.6.24-1.174.345-1.85h.02c.07.685.168,1.245.283,1.85l.508,2.58H438.8l1.549-6Z" fill="#fff"/>
  </g>
</svg>
