<svg xmlns="http://www.w3.org/2000/svg" width="30" height="32" viewBox="0 0 30 32">
  <g id="Group_3427" data-name="Group 3427" transform="translate(-330 -366)">
    <path id="Path_2103" data-name="Path 2103" d="M349,366l8,8v24H333V366Z" fill="#737373"/>
    <path id="Path_2104" data-name="Path 2104" d="M348,375v-8H334v30h22V375Z" fill="#fff"/>
    <rect id="Rectangle_2549" data-name="Rectangle 2549" width="30" height="10" transform="translate(330 382)" fill="#906"/>
    <path id="Path_2105" data-name="Path 2105" d="M340.125,385.027a2.925,2.925,0,0,1,1.139.223l.275-1.076a3.512,3.512,0,0,0-1.477-.268,3.057,3.057,0,0,0-3.273,3.185,2.852,2.852,0,0,0,3.141,3,3.868,3.868,0,0,0,1.539-.258l-.2-1.059a3.376,3.376,0,0,1-1.129.2,1.972,1.972,0,0,1-.01-3.942ZM344.068,384l-1.832,6h1.407l.425-1.539h1.717l.463,1.539h1.459l-1.859-6Zm.2,3.443.355-1.272c.1-.347.186-.8.275-1.156h.018c.09.355.2.8.3,1.156l.373,1.272Zm7.722-.675v-.019a1.356,1.356,0,0,0,.989-1.28,1.306,1.306,0,0,0-.721-1.175,3.3,3.3,0,0,0-1.77-.339,10.942,10.942,0,0,0-1.754.125v5.889a10.386,10.386,0,0,0,1.469.09,3.786,3.786,0,0,0,2.358-.543,1.6,1.6,0,0,0,.623-1.272A1.5,1.5,0,0,0,351.988,386.772Zm-1.912-1.79a3.826,3.826,0,0,1,.578-.035c.614,0,.961.241.961.694s-.383.738-1.094.738h-.445Zm.526,4.075a4.229,4.229,0,0,1-.526-.018V387.35h.463c.676,0,1.219.24,1.219.844C351.758,388.826,351.215,389.057,350.6,389.057Z" fill="#fff"/>
  </g>
</svg>
