<svg xmlns="http://www.w3.org/2000/svg" width="30" height="32" viewBox="0 0 30 32">
  <g id="Group_3425" data-name="Group 3425" transform="translate(-416 -366)">
    <path id="Path_2097" data-name="Path 2097" d="M435,366l8,8v24H419V366Z" fill="#737373"/>
    <path id="Path_2098" data-name="Path 2098" d="M434,375v-8H420v30h22V375Z" fill="#fff"/>
    <rect id="Rectangle_2547" data-name="Rectangle 2547" width="30" height="10" transform="translate(416 382)" fill="#7e5c7e"/>
    <path id="Path_2099" data-name="Path 2099" d="M425.178,385.027a2.915,2.915,0,0,1,1.138.223l.276-1.076a3.524,3.524,0,0,0-1.477-.268,3.057,3.057,0,0,0-3.273,3.185,2.852,2.852,0,0,0,3.14,3,3.88,3.88,0,0,0,1.539-.258l-.2-1.059a3.376,3.376,0,0,1-1.129.2,1.972,1.972,0,0,1-.009-3.942Zm4.609-1.121a2.9,2.9,0,0,0-2.916,3.141,2.8,2.8,0,0,0,2.818,3.051,2.859,2.859,0,0,0,2.946-3.158A2.8,2.8,0,0,0,429.787,383.906Zm-.025,5.116c-.909,0-1.459-.828-1.459-2s.533-2.038,1.449-2.038c.935,0,1.451.926,1.451,2C431.2,388.149,430.678,389.022,429.762,389.022ZM439.684,384h-1.772L437.273,386c-.2.667-.4,1.458-.57,2.152h-.027c-.133-.7-.321-1.45-.506-2.143l-.588-2h-1.8l-.383,6h1.254l.108-2.277c.043-.747.07-1.672.1-2.483h.018c.142.783.348,1.637.543,2.34l.64,2.322h1.059l.731-2.339c.23-.7.48-1.557.666-2.323h.027c0,.872.025,1.744.053,2.465l.089,2.3h1.325Z" fill="#fff"/>
  </g>
</svg>
