<svg xmlns="http://www.w3.org/2000/svg" width="30" height="32" viewBox="0 0 30 32">
  <g id="Group_3428" data-name="Group 3428" transform="translate(-287 -366)">
    <path id="Path_2106" data-name="Path 2106" d="M306,366l8,8v24H290V366Z" fill="#737373"/>
    <path id="Path_2107" data-name="Path 2107" d="M305,375v-8H291v30h22V375Z" fill="#fff"/>
    <rect id="Rectangle_2550" data-name="Rectangle 2550" width="30" height="10" transform="translate(287 382)" fill="#690"/>
    <path id="Path_2108" data-name="Path 2108" d="M297.545,385.027a2.933,2.933,0,0,1,1.139.223l.275-1.076a3.527,3.527,0,0,0-1.477-.268,3.057,3.057,0,0,0-3.273,3.185,2.85,2.85,0,0,0,3.139,3,3.868,3.868,0,0,0,1.539-.258l-.2-1.059a3.388,3.388,0,0,1-1.131.2,1.972,1.972,0,0,1-.008-3.942Zm4.787,1.414c-.773-.293-1.111-.463-1.111-.844,0-.312.285-.578.871-.578a2.869,2.869,0,0,1,1.256.284l.3-1.094a3.666,3.666,0,0,0-1.529-.3c-1.414,0-2.267.784-2.267,1.807,0,.871.648,1.423,1.644,1.769.721.258,1.006.472,1.006.846,0,.391-.33.649-.951.649a3.454,3.454,0,0,1-1.5-.374l-.276,1.122a3.938,3.938,0,0,0,1.7.364c1.644,0,2.418-.855,2.418-1.86C303.889,387.385,303.391,386.833,302.332,386.441ZM308.605,384l-.763,2.562c-.205.685-.393,1.4-.543,2.118h-.028c-.142-.749-.328-1.433-.533-2.145L306.01,384h-1.487l1.922,6h1.582l2.02-6Z" fill="#fff"/>
  </g>
</svg>
