<svg xmlns="http://www.w3.org/2000/svg" width="30" height="32" viewBox="0 0 30 32">
  <g id="Group_3481" data-name="Group 3481" transform="translate(-157.999 -141)">
    <path id="Path_2267" data-name="Path 2267" d="M177,141l8,8v24H161V141Z" fill="#737373"/>
    <path id="Path_2268" data-name="Path 2268" d="M176,150v-8H162v30h22V150Z" fill="#fff"/>
    <rect id="Rectangle_2603" data-name="Rectangle 2603" width="30" height="10" transform="translate(157.999 157)" fill="#f60"/>
    <path id="Path_2269" data-name="Path 2269" d="M164.065,165h1.293v-2.411H167.4v-1.1h-2.046v-1.37h2.19V159h-3.483Zm5.748-6H168.52v6h3.559v-1.139h-2.266Zm4.406,0-1.742,6h1.336l.406-1.539h1.632L176.29,165h1.386l-1.767-6Zm.186,3.443.338-1.272c.093-.347.178-.8.262-1.156h.016c.085.355.187.8.289,1.156l.354,1.272Zm6.738,1.521a1.977,1.977,0,0,1-.008-3.941,2.68,2.68,0,0,1,1.082.222l.261-1.076a3.22,3.22,0,0,0-1.4-.267,2.977,2.977,0,0,0-3.11,3.185,2.778,2.778,0,0,0,2.983,3,3.5,3.5,0,0,0,1.463-.258l-.194-1.058A3.1,3.1,0,0,1,181.143,163.968Z" fill="#fff"/>
  </g>
</svg>
