<svg xmlns="http://www.w3.org/2000/svg" width="30" height="32" viewBox="0 0 30 32">
  <g id="Group_3496" data-name="Group 3496" transform="translate(-373 -51)">
    <path id="Path_2312" data-name="Path 2312" d="M392,51l8,8V83H376V51Z" fill="#737373"/>
    <path id="Path_2313" data-name="Path 2313" d="M391,60V52H377V82h22V60Z" fill="#fff"/>
    <rect id="Rectangle_2618" data-name="Rectangle 2618" width="30" height="10" transform="translate(373 67)" fill="#80047e"/>
    <path id="Path_2314" data-name="Path 2314" d="M383.379,71.308h-2.233V69h-1.361v6h1.361V72.491h2.233V75h1.353V69h-1.353ZM390.2,69.6a3.854,3.854,0,0,0-2.455-.641,12.086,12.086,0,0,0-1.832.125v5.889a11.6,11.6,0,0,0,1.539.09,4.3,4.3,0,0,0,2.766-.775,3.041,3.041,0,0,0,1-2.428A2.653,2.653,0,0,0,390.2,69.6ZM387.75,74a2.453,2.453,0,0,1-.471-.027V70.054a2.8,2.8,0,0,1,.614-.053,1.717,1.717,0,0,1,1.884,1.9A1.858,1.858,0,0,1,387.75,74Zm8.4-.694a1.508,1.508,0,0,0-.8-1.121v-.027a1.59,1.59,0,0,0,1.058-1.477,1.522,1.522,0,0,0-.551-1.254,3.06,3.06,0,0,0-1.939-.472,11.94,11.94,0,0,0-1.807.125V75h1.344V72.643h.41c.551.008.809.213.969.961a7.493,7.493,0,0,0,.418,1.4h1.389A17.5,17.5,0,0,1,396.15,73.31Zm-2.162-1.646h-.533V70.009a3.482,3.482,0,0,1,.613-.044c.623.009,1,.284,1,.836C395.064,71.326,394.664,71.664,393.988,71.664Z" fill="#fff"/>
  </g>
</svg>
