<svg xmlns="http://www.w3.org/2000/svg" width="30" height="32" viewBox="0 0 30 32">
  <g id="Group_3497" data-name="Group 3497" transform="translate(-330 -51)">
    <path id="Path_2315" data-name="Path 2315" d="M349,51l8,8V83H333V51Z" fill="#737373"/>
    <path id="Path_2316" data-name="Path 2316" d="M348,60V52H334V82h22V60Z" fill="#fff"/>
    <rect id="Rectangle_2619" data-name="Rectangle 2619" width="30" height="10" transform="translate(330 67)" fill="#009"/>
    <path id="Path_2317" data-name="Path 2317" d="M338.168,75h1.361V69h-1.361Zm5.82-4.973a2.937,2.937,0,0,1,1.139.222l.275-1.076a3.538,3.538,0,0,0-1.476-.267,3.057,3.057,0,0,0-3.274,3.185,2.852,2.852,0,0,0,3.141,3,3.866,3.866,0,0,0,1.539-.258l-.2-1.058a3.414,3.414,0,0,1-1.129.195,1.971,1.971,0,0,1-.01-3.941Zm4.832-1.121a2.9,2.9,0,0,0-2.918,3.14,2.8,2.8,0,0,0,2.821,3.052,2.859,2.859,0,0,0,2.945-3.158A2.8,2.8,0,0,0,348.82,68.906Zm-.025,5.115c-.908,0-1.459-.827-1.459-2s.533-2.037,1.449-2.037c.934,0,1.449.925,1.449,2C350.234,73.149,349.711,74.021,348.8,74.021Z" fill="#3f0"/>
  </g>
</svg>
