<svg xmlns="http://www.w3.org/2000/svg" width="30" height="32" viewBox="0 0 30 32">
  <g id="Group_3444" data-name="Group 3444" transform="translate(-28.999 -321)">
    <path id="Path_2156" data-name="Path 2156" d="M48,321l8,8v24H32V321Z" fill="#737373"/>
    <path id="Path_2157" data-name="Path 2157" d="M47,330v-8H33v30H55V330Z" fill="#fff"/>
    <rect id="Rectangle_2566" data-name="Rectangle 2566" width="30" height="10" transform="translate(28.999 337)" fill="#690"/>
    <path id="Path_2158" data-name="Path 2158" d="M40.865,342.775c0,.935-.355,1.194-.925,1.194a2.205,2.205,0,0,1-.693-.108l-.151,1.094a3.481,3.481,0,0,0,.987.143c1.316,0,2.135-.6,2.135-2.3V339H40.865Zm5.26-1.334c-.774-.293-1.112-.463-1.112-.844,0-.312.284-.578.872-.578a2.863,2.863,0,0,1,1.254.284l.3-1.094a3.675,3.675,0,0,0-1.53-.3c-1.414,0-2.268.784-2.268,1.807,0,.871.649,1.423,1.645,1.769.721.258,1.006.472,1.006.846,0,.391-.329.649-.952.649a3.453,3.453,0,0,1-1.5-.374l-.277,1.122a3.941,3.941,0,0,0,1.7.364c1.645,0,2.42-.855,2.42-1.86C47.682,342.385,47.184,341.833,46.125,341.441Z" fill="#fff"/>
  </g>
</svg>
