<svg xmlns="http://www.w3.org/2000/svg" width="30.001" height="32" viewBox="0 0 30.001 32">
  <g id="Group_3430" data-name="Group 3430" transform="translate(-201 -366)">
    <path id="Path_2112" data-name="Path 2112" d="M220,366l8,8v24H204V366Z" fill="#737373"/>
    <path id="Path_2113" data-name="Path 2113" d="M219,375v-8H205v30h22V375Z" fill="#fff"/>
    <rect id="Rectangle_2552" data-name="Rectangle 2552" width="30.001" height="10" transform="translate(200.999 382)" fill="#36f"/>
    <path id="Path_2114" data-name="Path 2114" d="M211.476,385.757a22.224,22.224,0,0,0,.116,2.5h-.027a17.416,17.416,0,0,0-.979-2.055l-1.245-2.2h-1.584v6H209v-1.806c0-.978-.018-1.823-.053-2.616l.026-.008a22.5,22.5,0,0,0,1.041,2.118L211.3,390h1.423v-6h-1.245ZM214.121,390h1.361v-2.41h2.153v-1.1h-2.153v-1.37h2.3V384h-3.665Zm7.554-6.094a2.9,2.9,0,0,0-2.917,3.141,2.8,2.8,0,0,0,2.82,3.051,2.858,2.858,0,0,0,2.944-3.158A2.8,2.8,0,0,0,221.675,383.906Zm-.026,5.116c-.908,0-1.459-.828-1.459-2s.534-2.038,1.45-2.038c.934,0,1.45.926,1.45,2C223.09,388.149,222.565,389.022,221.649,389.022Z" fill="#fff"/>
  </g>
</svg>
