<svg xmlns="http://www.w3.org/2000/svg" width="30" height="32" viewBox="0 0 30 32">
  <g id="Group_3459" data-name="Group 3459" transform="translate(-244 -231)">
    <path id="Path_2201" data-name="Path 2201" d="M263,231l8,8v24H247V231Z" fill="#737373"/>
    <path id="Path_2202" data-name="Path 2202" d="M262,240v-8H248v30h22V240Z" fill="#fff"/>
    <rect id="Rectangle_2581" data-name="Rectangle 2581" width="30" height="10" transform="translate(244 247)" fill="#00980d"/>
    <path id="Path_2203" data-name="Path 2203" d="M253.344,248.959a11.234,11.234,0,0,0-1.834.125V255h1.343v-2.145a3.227,3.227,0,0,0,.463.028,2.775,2.775,0,0,0,1.948-.632,1.911,1.911,0,0,0,.552-1.423,1.75,1.75,0,0,0-.64-1.388A2.871,2.871,0,0,0,253.344,248.959Zm-.037,2.883a2.127,2.127,0,0,1-.454-.035v-1.771a2.348,2.348,0,0,1,.561-.054c.676,0,1.059.331,1.059.881C254.473,251.477,254.027,251.842,253.307,251.842Zm6.836.348v-.028a1.59,1.59,0,0,0,1.058-1.477,1.52,1.52,0,0,0-.553-1.253,3.052,3.052,0,0,0-1.939-.473,12.044,12.044,0,0,0-1.805.125V255h1.342v-2.357h.41c.551.008.809.212.969.96a7.432,7.432,0,0,0,.42,1.4h1.387c-.116-.231-.3-1.014-.489-1.69A1.51,1.51,0,0,0,260.143,252.19Zm-1.362-.526h-.535V250.01a3.377,3.377,0,0,1,.615-.045c.623.009,1,.285,1,.836C259.857,251.326,259.457,251.664,258.781,251.664Zm6.656,2.3a1.972,1.972,0,0,1-.009-3.942,2.915,2.915,0,0,1,1.138.223l.276-1.076a3.524,3.524,0,0,0-1.477-.268,3.057,3.057,0,0,0-3.273,3.185,2.852,2.852,0,0,0,3.14,3,3.88,3.88,0,0,0,1.539-.258l-.2-1.059A3.376,3.376,0,0,1,265.437,253.969Z" fill="#fff"/>
  </g>
</svg>
