<svg xmlns="http://www.w3.org/2000/svg" width="30" height="32" viewBox="0 0 30 32">
  <g id="Group_3439" data-name="Group 3439" transform="translate(-244 -321)">
    <path id="Path_2141" data-name="Path 2141" d="M263,321l8,8v24H247V321Z" fill="#737373"/>
    <path id="Path_2142" data-name="Path 2142" d="M262,330v-8H248v30h22V330Z" fill="#fff"/>
    <rect id="Rectangle_2561" data-name="Rectangle 2561" width="30" height="10" transform="translate(244 337)" fill="#c00"/>
    <path id="Path_2143" data-name="Path 2143" d="M253.469,338.959a11.2,11.2,0,0,0-1.832.125V345h1.341v-2.145a3.23,3.23,0,0,0,.463.028,2.78,2.78,0,0,0,1.95-.632,1.918,1.918,0,0,0,.55-1.423,1.75,1.75,0,0,0-.64-1.388A2.871,2.871,0,0,0,253.469,338.959Zm-.035,2.883a2.158,2.158,0,0,1-.456-.035v-1.771a2.362,2.362,0,0,1,.561-.054c.678,0,1.059.331,1.059.881C254.6,341.477,254.154,341.842,253.434,341.842Zm5.927-.4c-.775-.293-1.113-.463-1.113-.844,0-.312.285-.578.873-.578a2.863,2.863,0,0,1,1.254.284l.3-1.094a3.693,3.693,0,0,0-1.532-.3c-1.414,0-2.267.784-2.267,1.807,0,.871.648,1.423,1.644,1.769.721.258,1.006.472,1.006.846,0,.391-.328.649-.951.649a3.461,3.461,0,0,1-1.5-.374l-.275,1.122a3.932,3.932,0,0,0,1.7.364c1.645,0,2.42-.855,2.42-1.86C260.918,342.385,260.42,341.833,259.361,341.441Zm6.362-2a2.871,2.871,0,0,0-1.832-.481,11.194,11.194,0,0,0-1.832.125V345H263.4v-2.145a3.22,3.22,0,0,0,.463.028,2.776,2.776,0,0,0,1.949-.632,1.915,1.915,0,0,0,.551-1.423A1.753,1.753,0,0,0,265.723,339.44Zm-1.868,2.4a2.154,2.154,0,0,1-.455-.035v-1.771a2.355,2.355,0,0,1,.561-.054c.678,0,1.058.331,1.058.881C265.019,341.477,264.576,341.842,263.855,341.842Z" fill="#fff"/>
  </g>
</svg>
