<svg xmlns="http://www.w3.org/2000/svg" width="30" height="32" viewBox="0 0 30 32">
  <g id="Group_3435" data-name="Group 3435" transform="translate(-416 -321)">
    <path id="Path_2129" data-name="Path 2129" d="M435,321l8,8v24H419V321Z" fill="#737373"/>
    <path id="Path_2130" data-name="Path 2130" d="M434,330v-8H420v30h22V330Z" fill="#fff"/>
    <rect id="Rectangle_2557" data-name="Rectangle 2557" width="30" height="10" transform="translate(416 337)" fill="#80047e"/>
    <path id="Path_2131" data-name="Path 2131" d="M427.756,338.959a11.2,11.2,0,0,0-1.832.125V345h1.342v-2.145a3.215,3.215,0,0,0,.462.028,2.78,2.78,0,0,0,1.95-.632,1.918,1.918,0,0,0,.55-1.423,1.75,1.75,0,0,0-.64-1.388A2.871,2.871,0,0,0,427.756,338.959Zm-.035,2.883a2.142,2.142,0,0,1-.455-.035v-1.771a2.345,2.345,0,0,1,.56-.054c.678,0,1.059.331,1.059.881C428.885,341.477,428.441,341.842,427.721,341.842ZM434.555,339l-.606,1.441c-.178.427-.32.774-.453,1.148h-.018c-.15-.392-.275-.712-.462-1.148L432.4,339h-1.549l1.9,3.541V345H434.1v-2.5l1.974-3.5Z" fill="#fff"/>
  </g>
</svg>
