<svg xmlns="http://www.w3.org/2000/svg" width="30" height="32" viewBox="0 0 30 32">
  <g id="Group_3495" data-name="Group 3495" transform="translate(-416 -51)">
    <path id="Path_2309" data-name="Path 2309" d="M435,51l8,8V83H419V51Z" fill="#737373"/>
    <path id="Path_2310" data-name="Path 2310" d="M434,60V52H420V82h22V60Z" fill="#fff"/>
    <rect id="Rectangle_2617" data-name="Rectangle 2617" width="30" height="10" transform="translate(416 67)" fill="#ffbf00"/>
    <path id="Path_2311" data-name="Path 2311" d="M425.537,72.189v-.027a1.587,1.587,0,0,0,1.059-1.477,1.525,1.525,0,0,0-.551-1.254,3.061,3.061,0,0,0-1.94-.472,11.946,11.946,0,0,0-1.806.125V75h1.344V72.643h.41c.55.008.808.213.968.961a7.581,7.581,0,0,0,.418,1.4h1.389c-.115-.231-.3-1.014-.49-1.69A1.512,1.512,0,0,0,425.537,72.189Zm-1.359-.525h-.535V70.009a3.481,3.481,0,0,1,.615-.044c.621.009,1,.284,1,.836C425.254,71.326,424.853,71.664,424.178,71.664ZM429.055,69l-1.834,6h1.406l.428-1.539h1.716L431.232,75h1.459l-1.857-6Zm.2,3.443.355-1.272c.1-.347.188-.8.276-1.156h.017c.09.355.2.8.3,1.156l.373,1.272ZM438.789,69l-.49,2.455c-.125.712-.258,1.415-.346,2.082h-.018c-.089-.667-.187-1.308-.32-2.01L437.135,69h-1.442l-.508,2.455c-.15.739-.292,1.459-.39,2.109h-.018c-.1-.605-.222-1.379-.357-2.091L433.967,69h-1.449l1.421,6h1.487l.57-2.58c.141-.6.24-1.174.346-1.85h.017c.073.685.17,1.245.285,1.85l.508,2.58h1.467l1.549-6Z" fill="#262626"/>
  </g>
</svg>
