<svg xmlns="http://www.w3.org/2000/svg" width="30" height="32" viewBox="0 0 30 32">
  <g id="Group_3511" data-name="Group 3511" transform="translate(-157.999 -6)">
    <path id="Path_2357" data-name="Path 2357" d="M177,6l8,8V38H161V6Z" fill="#737373"/>
    <path id="Path_2358" data-name="Path 2358" d="M176,15V7H162V37h22V15Z" fill="#fff"/>
    <rect id="Rectangle_2633" data-name="Rectangle 2633" width="30" height="10" transform="translate(157.999 22)" fill="#906"/>
    <path id="Path_2359" data-name="Path 2359" d="M167.462,26.441c-.774-.293-1.112-.462-1.112-.844,0-.312.285-.578.872-.578a2.868,2.868,0,0,1,1.255.284l.3-1.094a3.666,3.666,0,0,0-1.529-.3c-1.415,0-2.269.783-2.269,1.806,0,.872.65,1.424,1.646,1.77.721.258,1,.472,1,.846,0,.391-.329.649-.951.649a3.472,3.472,0,0,1-1.5-.373l-.276,1.12a3.922,3.922,0,0,0,1.7.365c1.645,0,2.419-.854,2.419-1.859C169.019,27.385,168.52,26.833,167.462,26.441Zm5.51.125c-.205.685-.392,1.4-.543,2.118H172.4c-.142-.748-.33-1.433-.534-2.144L171.139,24h-1.486l1.921,6h1.584l2.02-6h-1.442Zm5.775,0v1.059h.925v1.254A1.964,1.964,0,0,1,177.119,27a1.814,1.814,0,0,1,1.983-1.939,3.31,3.31,0,0,1,1.4.258l.285-1.086a4.142,4.142,0,0,0-1.664-.293c-1.966,0-3.416,1.139-3.425,3.131a2.9,2.9,0,0,0,.845,2.18,3.342,3.342,0,0,0,2.437.81,6.685,6.685,0,0,0,2-.339V26.566Z" fill="#fff"/>
  </g>
</svg>
