<svg xmlns="http://www.w3.org/2000/svg" width="30" height="32" viewBox="0 0 30 32">
  <g id="Group_3457" data-name="Group 3457" transform="translate(-330 -231)">
    <path id="Path_2195" data-name="Path 2195" d="M349,231l8,8v24H333V231Z" fill="#737373"/>
    <path id="Path_2196" data-name="Path 2196" d="M348,240v-8H334v30h22V240Z" fill="#fff"/>
    <rect id="Rectangle_2579" data-name="Rectangle 2579" width="30" height="10" transform="translate(330 247)" fill="#963"/>
    <path id="Path_2197" data-name="Path 2197" d="M337.314,250.143h1.612V255h1.359v-4.857h1.639V249h-4.61Zm8.356-.116a2.925,2.925,0,0,1,1.139.223l.275-1.076a3.516,3.516,0,0,0-1.477-.268,3.057,3.057,0,0,0-3.273,3.185,2.852,2.852,0,0,0,3.141,3,3.868,3.868,0,0,0,1.539-.258l-.205-1.059a3.376,3.376,0,0,1-1.129.2,1.972,1.972,0,0,1-.01-3.942Zm6.5,3.283a1.5,1.5,0,0,0-.8-1.12v-.028a1.587,1.587,0,0,0,1.059-1.477,1.521,1.521,0,0,0-.551-1.253,3.059,3.059,0,0,0-1.939-.473,12.084,12.084,0,0,0-1.807.125V255h1.344v-2.357h.41c.551.008.808.212.969.96a7.41,7.41,0,0,0,.418,1.4h1.388C352.541,254.769,352.353,253.986,352.166,253.31Zm-2.16-1.646h-.535V250.01a3.348,3.348,0,0,1,.615-.045c.621.009,1,.285,1,.836C351.082,251.326,350.682,251.664,350.006,251.664Z" fill="#fff"/>
  </g>
</svg>
