<svg xmlns="http://www.w3.org/2000/svg" width="30" height="32" viewBox="0 0 30 32">
  <g id="Group_3483" data-name="Group 3483" transform="translate(-71.999 -141)">
    <path id="Path_2273" data-name="Path 2273" d="M91,141l8,8v24H75V141Z" fill="#737373"/>
    <path id="Path_2274" data-name="Path 2274" d="M90,150v-8H76v30H98V150Z" fill="#fff"/>
    <rect id="Rectangle_2605" data-name="Rectangle 2605" width="30" height="10" transform="translate(71.999 157)" fill="#00980d"/>
    <path id="Path_2275" data-name="Path 2275" d="M84.206,159l-.489,2.455c-.125.712-.258,1.415-.347,2.082h-.018c-.089-.667-.187-1.308-.32-2.01L82.552,159H81.11l-.507,2.455c-.151.739-.293,1.459-.391,2.109h-.018c-.1-.6-.222-1.379-.356-2.091L79.385,159h-1.45l1.422,6h1.487l.569-2.58c.142-.6.24-1.174.347-1.85h.017c.072.685.169,1.245.285,1.85l.507,2.58h1.468l1.548-6Zm3,0-1.832,6h1.4l.427-1.539h1.717L89.387,165h1.459l-1.86-6Zm.2,3.443.356-1.272c.1-.347.186-.8.275-1.156h.019c.089.355.195.8.3,1.156l.374,1.272ZM94.7,159l-.765,2.562c-.2.685-.391,1.4-.542,2.118h-.027c-.142-.748-.33-1.433-.534-2.144L92.1,159H90.617l1.921,6h1.584l2.02-6Z" fill="#fff"/>
  </g>
</svg>
