<svg xmlns="http://www.w3.org/2000/svg" width="30.001" height="32" viewBox="0 0 30.001 32">
  <g id="Group_3510" data-name="Group 3510" transform="translate(-201 -6)">
    <path id="Path_2354" data-name="Path 2354" d="M220,6l8,8V38H204V6Z" fill="#737373"/>
    <path id="Path_2355" data-name="Path 2355" d="M219,15V7H205V37h22V15Z" fill="#fff"/>
    <rect id="Rectangle_2632" data-name="Rectangle 2632" width="30.001" height="10" transform="translate(200.999 22)" fill="#73c973"/>
    <path id="Path_2356" data-name="Path 2356" d="M212.259,26.459c-.119.712-.245,1.415-.33,2.082h-.017c-.084-.667-.178-1.308-.3-2.01L211.151,24h-1.369l-.482,2.455c-.144.739-.279,1.459-.372,2.109h-.017c-.093-.605-.211-1.379-.338-2.091L208.142,24h-1.378l1.353,6h1.411l.541-2.58c.136-.6.228-1.174.33-1.85h.017c.067.685.161,1.245.27,1.85l.482,2.58h1.4l1.471-6h-1.31ZM218.871,24,218.262,26c-.186.667-.381,1.459-.541,2.152H217.7c-.126-.7-.3-1.449-.482-2.143l-.557-2h-1.717l-.363,6h1.192l.1-2.277c.042-.747.067-1.673.1-2.482h.017c.135.782.329,1.636.515,2.339l.609,2.322h1.006l.693-2.339c.22-.7.457-1.557.634-2.322h.026c0,.871.025,1.743.05,2.464l.085,2.3h1.259l-.312-6Zm6.467,1.112V24h-3.482v6h1.293V27.589H225.2v-1.1h-2.046v-1.37Z" fill="#fff"/>
  </g>
</svg>
