<svg xmlns="http://www.w3.org/2000/svg" width="30" height="32" viewBox="0 0 30 32">
  <g id="Group_3429" data-name="Group 3429" transform="translate(-244 -366)">
    <path id="Path_2109" data-name="Path 2109" d="M263,366l8,8v24H247V366Z" fill="#737373"/>
    <path id="Path_2110" data-name="Path 2110" d="M262,375v-8H248v30h22V375Z" fill="#fff"/>
    <rect id="Rectangle_2551" data-name="Rectangle 2551" width="30" height="10" transform="translate(244 382)" fill="#00980d"/>
    <path id="Path_2111" data-name="Path 2111" d="M256.371,384h-1.547l-.508,1.094c-.15.347-.265.615-.408,1h-.017c-.143-.338-.276-.632-.456-1L252.912,384h-1.557l1.672,2.963L251.293,390h1.547l.5-1.086c.187-.418.338-.729.463-1.076h.017c.17.347.313.658.535,1.076l.541,1.086h1.567l-1.779-3.068Zm2.406,0h-1.361v6h3.744v-1.139h-2.383Zm5.739,2.437c-.774-.293-1.112-.463-1.112-.844,0-.312.285-.578.871-.578a2.866,2.866,0,0,1,1.256.284l.3-1.094a3.67,3.67,0,0,0-1.529-.3c-1.414,0-2.268.784-2.268,1.807,0,.871.649,1.423,1.645,1.769.72.258,1.005.472,1.005.846,0,.391-.33.649-.951.649a3.457,3.457,0,0,1-1.5-.374l-.275,1.122a3.936,3.936,0,0,0,1.7.364c1.645,0,2.418-.855,2.418-1.86C266.072,387.385,265.574,386.833,264.516,386.441Z" fill="#fff"/>
  </g>
</svg>
