<svg xmlns="http://www.w3.org/2000/svg" width="22.302" height="7.728" viewBox="0 0 22.302 7.728">
  <path id="key007_-_E0BB" data-name="key007 - E0BB" d="M11.151-14.364H-3.437a3.876,3.876,0,0,0-3.85-3.5A3.872,3.872,0,0,0-11.151-14a3.872,3.872,0,0,0,3.864,3.864,3.876,3.876,0,0,0,3.85-3.5H3.619v3.5H8.645v-3.5h2.506Zm-18.438,3.5A3.131,3.131,0,0,1-10.423-14a3.131,3.131,0,0,1,3.136-3.136A3.131,3.131,0,0,1-4.151-14,3.131,3.131,0,0,1-7.287-10.864Zm15.2,0H4.347v-2.772h3.57Z" transform="translate(11.151 17.864)" fill="#737373"/>
</svg>
